<svg width="135" height="135" viewBox="0 0 135 135" fill="none" xmlns="http://www.w3.org/2000/svg">
<g filter="url(#filter0_d_1930_8121)">
<ellipse cx="67.3072" cy="65.198" rx="47.3072" ry="45.198" fill="url(#paint0_linear_1930_8121)"/>
</g>
<path d="M54.6294 83.5792C52.7441 83.5793 51.1941 83.0217 50.0848 81.9124C48.625 80.4525 47.9994 78.3783 48.2756 75.9138C48.5617 73.3614 49.7823 70.4244 51.9034 67.1847C52.0942 66.8931 52.4852 66.8115 52.777 67.0025C53.0685 67.1933 53.1501 67.5845 52.9592 67.8761C50.9474 70.9488 49.7935 73.7003 49.5298 76.0544C49.2944 78.1535 49.7814 79.8242 50.9771 81.02C52.6241 82.667 55.633 82.7543 59.45 81.2662C63.5454 79.6695 68.238 76.3529 72.6634 71.9269C77.1716 67.4187 80.7127 62.4969 82.6346 58.0679C84.4504 53.8835 84.5844 50.5763 83.0023 48.9941C80.8665 46.8576 75.769 47.8555 69.6991 51.598C69.4023 51.7808 69.0137 51.6886 68.8309 51.3921C68.648 51.0954 68.7402 50.7068 69.0367 50.5239C75.7304 46.3968 81.2848 45.4914 83.8946 48.1019C85.8914 50.0987 85.855 53.8165 83.7922 58.5703C81.8086 63.1412 78.1732 68.2016 73.5557 72.8193C69.0095 77.3657 64.1627 80.7833 59.9082 82.4419C57.9612 83.2011 56.1815 83.5791 54.6294 83.5792Z" fill="#0882D9"/>
<path d="M79.436 83.8436C77.678 83.8437 75.5355 83.3611 73.1365 82.3977C68.4844 80.5296 63.3966 77.0387 59.1777 72.8201C54.6711 68.3135 51.2519 63.2402 49.55 58.535C47.8793 53.9158 48.0742 50.1134 50.0848 48.1028C52.0918 46.0957 55.502 46.1338 59.9464 48.2127C64.042 50.1285 68.8753 53.7613 73.5558 58.4418C74.4911 59.377 77.3488 62.292 78.2435 63.3152C78.4729 63.5776 78.4461 63.9761 78.1838 64.2056C77.9215 64.4349 77.523 64.4082 77.2936 64.1459C76.418 63.1447 73.5904 60.2611 72.6634 59.3341C68.0841 54.7546 63.3779 51.2109 59.4117 49.3558C57.4579 48.4418 55.7312 47.9511 54.2798 47.8972C52.8691 47.8453 51.7579 48.2143 50.977 48.995C49.3268 50.6452 49.2392 53.966 50.7365 58.1055C52.3767 62.6404 55.6915 67.5492 60.0698 71.9276C64.1727 76.0303 69.1066 79.4196 73.6065 81.2266C77.7218 82.8792 81.0052 83.039 82.3897 81.6543C83.4704 80.5735 83.8822 78.9704 83.6136 76.8893C83.3284 74.6791 82.2468 71.9874 80.4858 69.105C80.3042 68.8076 80.3979 68.4193 80.6952 68.2375C80.9927 68.0559 81.3809 68.1495 81.5626 68.4469C85.3752 74.6874 86.0019 79.8265 83.282 82.5464C82.4172 83.4118 81.0987 83.8436 79.436 83.8436Z" fill="#0882D9"/>
<path d="M77.7689 64.3614H73.9683C73.6199 64.3614 73.3374 64.0788 73.3374 63.7304C73.3374 63.382 73.62 63.0995 73.9683 63.0995H77.138V59.9298C77.138 59.5813 77.4205 59.2988 77.7689 59.2988C78.1174 59.2988 78.3999 59.5814 78.3999 59.9298V63.7304C78.3999 64.0788 78.1175 64.3614 77.7689 64.3614Z" fill="#0882D9"/>
<path d="M52.4315 71.9629C52.0831 71.9629 51.8006 71.6804 51.8006 71.332V68.1623H48.6309C48.2825 68.1623 48 67.8797 48 67.5313C48 67.1829 48.2826 66.9004 48.6309 66.9004H52.4315C52.78 66.9004 53.0625 67.1829 53.0625 67.5313V71.332C53.0625 71.6804 52.78 71.9629 52.4315 71.9629Z" fill="#0882D9"/>
<g filter="url(#filter1_d_1930_8121)">
<path d="M53.5823 83.9992C51.8509 83.9992 50.4539 83.5089 49.4726 82.5275C46.7161 79.7717 47.8904 73.651 52.537 66.554C52.7279 66.2624 53.119 66.1809 53.4106 66.3718C53.7021 66.5626 53.7837 66.9537 53.5928 67.2453C51.4969 70.4465 50.0919 73.5118 49.5298 76.1097C49.1491 77.869 48.985 80.2557 50.3648 81.6352C51.9469 83.2173 55.2542 83.0834 59.4386 81.2674C63.8677 79.3454 68.7894 75.8042 73.2971 71.2962C77.8052 66.7881 81.3464 61.8662 83.2683 57.4372C85.0841 53.2527 85.2181 49.9456 83.636 48.3634C81.5003 46.2269 76.4027 47.2247 70.3328 50.9671C70.036 51.1499 69.6474 51.0578 69.4645 50.7613C69.2817 50.4646 69.3738 50.076 69.6704 49.893C76.3641 45.7659 81.9186 44.8606 84.5284 47.4711C86.5252 49.4679 86.4888 53.1857 84.426 57.9394C82.4424 62.5103 78.8071 67.5708 74.1895 72.1884C69.5724 76.8059 64.5121 80.4414 59.9411 82.425C57.5234 83.4741 55.3738 83.9991 53.5823 83.9992Z" fill="#94A4BC"/>
</g>
<g filter="url(#filter2_d_1930_8121)">
<path d="M80.4193 83.9996C78.6275 83.9997 76.4784 83.4748 74.0604 82.4255C69.4894 80.4419 64.4289 76.8065 59.8114 72.1889C55.1941 67.5714 51.5589 62.5112 49.5752 57.9401C47.5122 53.1862 47.4757 49.4683 49.4725 47.4715C51.4693 45.4747 55.1871 45.5112 59.941 47.5742C64.512 49.5578 69.5721 53.1931 74.1895 57.8106C75.1249 58.746 77.983 61.6614 78.8772 62.6841C79.1066 62.9464 79.0798 63.345 78.8175 63.5744C78.5552 63.8039 78.1566 63.7769 77.9271 63.5147C77.0523 62.5141 74.2243 59.6302 73.2971 58.7029C68.7894 54.1949 63.8677 50.6538 59.4387 48.7319C55.2543 46.9158 51.947 46.7818 50.3648 48.3638C48.7828 49.9459 48.9169 53.2532 50.7329 57.4378C52.6549 61.8667 56.196 66.7886 60.7038 71.2965C65.2119 75.8047 70.1338 79.3459 74.563 81.2679C78.7476 83.0836 82.055 83.2177 83.6368 81.6355C85.7519 79.5204 84.7875 74.477 81.1199 68.4737C80.9382 68.1763 81.0319 67.7881 81.3293 67.6063C81.6265 67.4246 82.015 67.5182 82.1966 67.8157C86.2443 74.4408 87.1162 79.9407 84.5292 82.5277C83.5479 83.5091 82.1504 83.9994 80.4193 83.9996Z" fill="#94A4BC"/>
</g>
<path d="M78.4022 63.7305H74.6016C74.2532 63.7305 73.9707 63.4479 73.9707 63.0996C73.9707 62.7512 74.2533 62.4686 74.6016 62.4686H77.7713V59.2989C77.7713 58.9504 78.0538 58.668 78.4022 58.668C78.7506 58.668 79.0332 58.9505 79.0332 59.2989V63.0996C79.0332 63.448 78.7508 63.7305 78.4022 63.7305Z" fill="#94A4BC"/>
<path d="M53.0648 71.3321C52.7164 71.3321 52.4339 71.0495 52.4339 70.7011V67.5314H49.2642C48.9158 67.5314 48.6333 67.2489 48.6333 66.9005C48.6333 66.552 48.9159 66.2695 49.2642 66.2695H53.0648C53.4133 66.2695 53.6958 66.5521 53.6958 66.9005V70.7011C53.6958 71.0496 53.4134 71.3321 53.0648 71.3321Z" fill="#94A4BC"/>
<defs>
<filter id="filter0_d_1930_8121" x="0" y="0" width="134.614" height="130.396" filterUnits="userSpaceOnUse" color-interpolation-filters="sRGB">
<feFlood flood-opacity="0" result="BackgroundImageFix"/>
<feColorMatrix in="SourceAlpha" type="matrix" values="0 0 0 0 0 0 0 0 0 0 0 0 0 0 0 0 0 0 127 0" result="hardAlpha"/>
<feMorphology radius="5" operator="dilate" in="SourceAlpha" result="effect1_dropShadow_1930_8121"/>
<feOffset/>
<feGaussianBlur stdDeviation="7.5"/>
<feComposite in2="hardAlpha" operator="out"/>
<feColorMatrix type="matrix" values="0 0 0 0 0.0313726 0 0 0 0 0.509804 0 0 0 0 0.85098 0 0 0 1 0"/>
<feBlend mode="normal" in2="BackgroundImageFix" result="effect1_dropShadow_1930_8121"/>
<feBlend mode="normal" in="SourceGraphic" in2="effect1_dropShadow_1930_8121" result="shape"/>
</filter>
<filter id="filter1_d_1930_8121" x="31.979" y="36.0827" width="70.0444" height="70.0449" filterUnits="userSpaceOnUse" color-interpolation-filters="sRGB">
<feFlood flood-opacity="0" result="BackgroundImageFix"/>
<feColorMatrix in="SourceAlpha" type="matrix" values="0 0 0 0 0 0 0 0 0 0 0 0 0 0 0 0 0 0 127 0" result="hardAlpha"/>
<feOffset dy="6.10416"/>
<feGaussianBlur stdDeviation="8.0117"/>
<feComposite in2="hardAlpha" operator="out"/>
<feColorMatrix type="matrix" values="0 0 0 0 0.00392157 0 0 0 0 0.859765 0 0 0 0 0.976471 0 0 0 1 0"/>
<feBlend mode="normal" in2="BackgroundImageFix" result="effect1_dropShadow_1930_8121"/>
<feBlend mode="normal" in="SourceGraphic" in2="effect1_dropShadow_1930_8121" result="shape"/>
</filter>
<filter id="filter2_d_1930_8121" x="31.9776" y="36.0807" width="70.0414" height="70.0468" filterUnits="userSpaceOnUse" color-interpolation-filters="sRGB">
<feFlood flood-opacity="0" result="BackgroundImageFix"/>
<feColorMatrix in="SourceAlpha" type="matrix" values="0 0 0 0 0 0 0 0 0 0 0 0 0 0 0 0 0 0 127 0" result="hardAlpha"/>
<feOffset dy="6.10416"/>
<feGaussianBlur stdDeviation="8.0117"/>
<feComposite in2="hardAlpha" operator="out"/>
<feColorMatrix type="matrix" values="0 0 0 0 0.00392157 0 0 0 0 0.859765 0 0 0 0 0.976471 0 0 0 1 0"/>
<feBlend mode="normal" in2="BackgroundImageFix" result="effect1_dropShadow_1930_8121"/>
<feBlend mode="normal" in="SourceGraphic" in2="effect1_dropShadow_1930_8121" result="shape"/>
</filter>
<linearGradient id="paint0_linear_1930_8121" x1="67.3072" y1="20" x2="67.3072" y2="110.396" gradientUnits="userSpaceOnUse">
<stop stop-color="#07081E"/>
<stop offset="1" stop-color="#0E0E1A"/>
</linearGradient>
</defs>
</svg>
