<svg width="135" height="135" viewBox="0 0 135 135" fill="none" xmlns="http://www.w3.org/2000/svg">
<g filter="url(#filter0_d_1930_8263)">
<ellipse cx="67.3072" cy="66.9909" rx="47.3072" ry="45.198" fill="url(#paint0_linear_1930_8263)"/>
<path d="M67.3072 112.952C93.8225 112.952 115.377 92.4069 115.377 66.9909C115.377 41.575 93.8225 21.0299 67.3072 21.0299C40.7919 21.0299 19.237 41.575 19.237 66.9909C19.237 92.4069 40.7919 112.952 67.3072 112.952Z" stroke="url(#paint1_linear_1930_8263)" stroke-width="1.52604"/>
</g>
<path d="M54.6294 85.9757C52.7441 85.9758 51.1941 85.4182 50.0848 84.3089C48.625 82.849 47.9994 80.7747 48.2756 78.3103C48.5617 75.7579 49.7823 72.8209 51.9034 69.5812C52.0942 69.2896 52.4852 69.208 52.777 69.399C53.0685 69.5898 53.1501 69.981 52.9592 70.2726C50.9474 73.3453 49.7935 76.0967 49.5298 78.4508C49.2944 80.55 49.7814 82.2207 50.9771 83.4164C52.6241 85.0634 55.633 85.1508 59.45 83.6627C63.5454 82.066 68.238 78.7494 72.6634 74.3234C77.1716 69.8152 80.7127 64.8933 82.6346 60.4644C84.4504 56.28 84.5844 52.9728 83.0023 51.3906C80.8665 49.2541 75.769 50.252 69.6991 53.9945C69.4023 54.1773 69.0137 54.0851 68.8309 53.7886C68.648 53.4919 68.7402 53.1033 69.0367 52.9204C75.7304 48.7933 81.2848 47.8879 83.8946 50.4984C85.8914 52.4952 85.855 56.213 83.7922 60.9667C81.8086 65.5377 78.1732 70.5981 73.5557 75.2158C69.0095 79.7622 64.1627 83.1798 59.9082 84.8384C57.9612 85.5975 56.1815 85.9756 54.6294 85.9757Z" fill="#0882D9"/>
<path d="M79.436 86.2401C77.678 86.2401 75.5355 85.7576 73.1365 84.7942C68.4844 82.9261 63.3966 79.4352 59.1777 75.2166C54.6711 70.71 51.2519 65.6367 49.55 60.9314C47.8793 56.3123 48.0742 52.5099 50.0848 50.4993C52.0918 48.4922 55.502 48.5303 59.9464 50.6092C64.042 52.5249 68.8753 56.1578 73.5558 60.8383C74.4911 61.7735 77.3488 64.6885 78.2435 65.7117C78.4729 65.9741 78.4461 66.3726 78.1838 66.602C77.9215 66.8314 77.523 66.8047 77.2936 66.5424C76.418 65.5411 73.5904 62.6576 72.6634 61.7306C68.0841 57.1511 63.3779 53.6074 59.4117 51.7522C57.4579 50.8383 55.7312 50.3476 54.2798 50.2937C52.8691 50.2418 51.7579 50.6107 50.977 51.3915C49.3268 53.0417 49.2392 56.3625 50.7365 60.502C52.3767 65.0369 55.6915 69.9456 60.0698 74.3241C64.1727 78.4268 69.1066 81.8161 73.6065 83.6231C77.7218 85.2757 81.0052 85.4355 82.3897 84.0507C83.4704 82.9699 83.8822 81.3669 83.6136 79.2858C83.3284 77.0756 82.2468 74.3838 80.4858 71.5014C80.3042 71.204 80.3979 70.8158 80.6952 70.634C80.9927 70.4524 81.3809 70.5459 81.5626 70.8434C85.3752 77.0839 86.0019 82.223 83.282 84.9429C82.4172 85.8083 81.0987 86.2401 79.436 86.2401Z" fill="#0882D9"/>
<path d="M77.7689 66.7578H73.9683C73.6199 66.7578 73.3374 66.4753 73.3374 66.1269C73.3374 65.7784 73.62 65.496 73.9683 65.496H77.138V62.3263C77.138 61.9778 77.4205 61.6953 77.7689 61.6953C78.1174 61.6953 78.3999 61.9779 78.3999 62.3263V66.1269C78.3999 66.4753 78.1175 66.7578 77.7689 66.7578Z" fill="#0882D9"/>
<path d="M52.4315 74.3594C52.0831 74.3594 51.8006 74.0768 51.8006 73.7285V70.5588H48.6309C48.2825 70.5588 48 70.2762 48 69.9278C48 69.5794 48.2826 69.2969 48.6309 69.2969H52.4315C52.78 69.2969 53.0625 69.5794 53.0625 69.9278V73.7285C53.0625 74.0768 52.78 74.3594 52.4315 74.3594Z" fill="#0882D9"/>
<g filter="url(#filter1_d_1930_8263)">
<path d="M53.5823 86.3956C51.8509 86.3956 50.4539 85.9053 49.4726 84.924C46.7161 82.1682 47.8904 76.0475 52.537 68.9504C52.7279 68.6588 53.119 68.5773 53.4106 68.7682C53.7021 68.9591 53.7837 69.3502 53.5928 69.6418C51.4969 72.843 50.0919 75.9083 49.5298 78.5062C49.1491 80.2655 48.985 82.6522 50.3648 84.0317C51.9469 85.6137 55.2542 85.4799 59.4386 83.6639C63.8677 81.7419 68.7894 78.2007 73.2971 73.6927C77.8052 69.1845 81.3464 64.2627 83.2683 59.8337C85.0841 55.6492 85.2181 52.3421 83.636 50.7599C81.5003 48.6234 76.4027 49.6212 70.3328 53.3636C70.036 53.5464 69.6474 53.4543 69.4645 53.1577C69.2817 52.8611 69.3738 52.4725 69.6704 52.2895C76.3641 48.1624 81.9186 47.2571 84.5284 49.8676C86.5252 51.8644 86.4888 55.5821 84.426 60.3359C82.4424 64.9068 78.8071 69.9673 74.1895 74.5848C69.5724 79.2023 64.5121 82.8378 59.9411 84.8214C57.5234 85.8705 55.3738 86.3956 53.5823 86.3956Z" fill="#94A4BC"/>
<path d="M53.5823 86.3956C51.8509 86.3956 50.4539 85.9053 49.4726 84.924C46.7161 82.1682 47.8904 76.0475 52.537 68.9504C52.7279 68.6588 53.119 68.5773 53.4106 68.7682C53.7021 68.9591 53.7837 69.3502 53.5928 69.6418C51.4969 72.843 50.0919 75.9083 49.5298 78.5062C49.1491 80.2655 48.985 82.6522 50.3648 84.0317C51.9469 85.6137 55.2542 85.4799 59.4386 83.6639C63.8677 81.7419 68.7894 78.2007 73.2971 73.6927C77.8052 69.1845 81.3464 64.2627 83.2683 59.8337C85.0841 55.6492 85.2181 52.3421 83.636 50.7599C81.5003 48.6234 76.4027 49.6212 70.3328 53.3636C70.036 53.5464 69.6474 53.4543 69.4645 53.1577C69.2817 52.8611 69.3738 52.4725 69.6704 52.2895C76.3641 48.1624 81.9186 47.2571 84.5284 49.8676C86.5252 51.8644 86.4888 55.5821 84.426 60.3359C82.4424 64.9068 78.8071 69.9673 74.1895 74.5848C69.5724 79.2023 64.5121 82.8378 59.9411 84.8214C57.5234 85.8705 55.3738 86.3956 53.5823 86.3956Z" fill="url(#paint2_linear_1930_8263)"/>
</g>
<g filter="url(#filter2_d_1930_8263)">
<path d="M80.4193 86.3961C78.6275 86.3962 76.4784 85.8713 74.0604 84.822C69.4894 82.8384 64.4289 79.203 59.8114 74.5854C55.1941 69.9679 51.5589 64.9077 49.5752 60.3366C47.5122 55.5826 47.4757 51.8648 49.4725 49.868C51.4693 47.8712 55.1871 47.9077 59.941 49.9707C64.512 51.9543 69.5721 55.5896 74.1895 60.207C75.1249 61.1425 77.983 64.0579 78.8772 65.0805C79.1066 65.3429 79.0798 65.7415 78.8175 65.9709C78.5552 66.2004 78.1566 66.1734 77.9271 65.9112C77.0523 64.9106 74.2243 62.0267 73.2971 61.0994C68.7894 56.5914 63.8677 53.0503 59.4387 51.1283C55.2543 49.3123 51.947 49.1783 50.3648 50.7603C48.7828 52.3424 48.9169 55.6497 50.7329 59.8342C52.6549 64.2632 56.196 69.185 60.7038 73.693C65.2119 78.2012 70.1338 81.7424 74.563 83.6643C78.7476 85.4801 82.055 85.6142 83.6368 84.032C85.7519 81.9169 84.7875 76.8735 81.1199 70.8702C80.9382 70.5728 81.0319 70.1846 81.3293 70.0028C81.6265 69.8211 82.015 69.9147 82.1966 70.2122C86.2443 76.8373 87.1162 82.3371 84.5292 84.9242C83.5479 85.9056 82.1504 86.3959 80.4193 86.3961Z" fill="#94A4BC"/>
<path d="M80.4193 86.3961C78.6275 86.3962 76.4784 85.8713 74.0604 84.822C69.4894 82.8384 64.4289 79.203 59.8114 74.5854C55.1941 69.9679 51.5589 64.9077 49.5752 60.3366C47.5122 55.5826 47.4757 51.8648 49.4725 49.868C51.4693 47.8712 55.1871 47.9077 59.941 49.9707C64.512 51.9543 69.5721 55.5896 74.1895 60.207C75.1249 61.1425 77.983 64.0579 78.8772 65.0805C79.1066 65.3429 79.0798 65.7415 78.8175 65.9709C78.5552 66.2004 78.1566 66.1734 77.9271 65.9112C77.0523 64.9106 74.2243 62.0267 73.2971 61.0994C68.7894 56.5914 63.8677 53.0503 59.4387 51.1283C55.2543 49.3123 51.947 49.1783 50.3648 50.7603C48.7828 52.3424 48.9169 55.6497 50.7329 59.8342C52.6549 64.2632 56.196 69.185 60.7038 73.693C65.2119 78.2012 70.1338 81.7424 74.563 83.6643C78.7476 85.4801 82.055 85.6142 83.6368 84.032C85.7519 81.9169 84.7875 76.8735 81.1199 70.8702C80.9382 70.5728 81.0319 70.1846 81.3293 70.0028C81.6265 69.8211 82.015 69.9147 82.1966 70.2122C86.2443 76.8373 87.1162 82.3371 84.5292 84.9242C83.5479 85.9056 82.1504 86.3959 80.4193 86.3961Z" fill="url(#paint3_linear_1930_8263)"/>
</g>
<path d="M78.4022 66.127H74.6016C74.2532 66.127 73.9707 65.8444 73.9707 65.496C73.9707 65.1477 74.2533 64.8651 74.6016 64.8651H77.7713V61.6954C77.7713 61.3469 78.0538 61.0645 78.4022 61.0645C78.7506 61.0645 79.0332 61.347 79.0332 61.6954V65.496C79.0332 65.8445 78.7508 66.127 78.4022 66.127Z" fill="#94A4BC"/>
<path d="M78.4022 66.127H74.6016C74.2532 66.127 73.9707 65.8444 73.9707 65.496C73.9707 65.1477 74.2533 64.8651 74.6016 64.8651H77.7713V61.6954C77.7713 61.3469 78.0538 61.0645 78.4022 61.0645C78.7506 61.0645 79.0332 61.347 79.0332 61.6954V65.496C79.0332 65.8445 78.7508 66.127 78.4022 66.127Z" fill="url(#paint4_linear_1930_8263)"/>
<path d="M53.0648 73.7285C52.7164 73.7285 52.4339 73.446 52.4339 73.0976V69.9279H49.2642C48.9158 69.9279 48.6333 69.6453 48.6333 69.297C48.6333 68.9485 48.9159 68.666 49.2642 68.666H53.0648C53.4133 68.666 53.6958 68.9486 53.6958 69.297V73.0976C53.6958 73.4461 53.4134 73.7285 53.0648 73.7285Z" fill="#94A4BC"/>
<path d="M53.0648 73.7285C52.7164 73.7285 52.4339 73.446 52.4339 73.0976V69.9279H49.2642C48.9158 69.9279 48.6333 69.6453 48.6333 69.297C48.6333 68.9485 48.9159 68.666 49.2642 68.666H53.0648C53.4133 68.666 53.6958 68.9486 53.6958 69.297V73.0976C53.6958 73.4461 53.4134 73.7285 53.0648 73.7285Z" fill="url(#paint5_linear_1930_8263)"/>
<defs>
<filter id="filter0_d_1930_8263" x="-1.52588" y="0.267578" width="137.667" height="133.447" filterUnits="userSpaceOnUse" color-interpolation-filters="sRGB">
<feFlood flood-opacity="0" result="BackgroundImageFix"/>
<feColorMatrix in="SourceAlpha" type="matrix" values="0 0 0 0 0 0 0 0 0 0 0 0 0 0 0 0 0 0 127 0" result="hardAlpha"/>
<feMorphology radius="5" operator="dilate" in="SourceAlpha" result="effect1_dropShadow_1930_8263"/>
<feOffset/>
<feGaussianBlur stdDeviation="7.5"/>
<feComposite in2="hardAlpha" operator="out"/>
<feColorMatrix type="matrix" values="0 0 0 0 0.0313726 0 0 0 0 0.509804 0 0 0 0 0.85098 0 0 0 1 0"/>
<feBlend mode="normal" in2="BackgroundImageFix" result="effect1_dropShadow_1930_8263"/>
<feBlend mode="normal" in="SourceGraphic" in2="effect1_dropShadow_1930_8263" result="shape"/>
</filter>
<filter id="filter1_d_1930_8263" x="31.979" y="38.4792" width="70.0444" height="70.0449" filterUnits="userSpaceOnUse" color-interpolation-filters="sRGB">
<feFlood flood-opacity="0" result="BackgroundImageFix"/>
<feColorMatrix in="SourceAlpha" type="matrix" values="0 0 0 0 0 0 0 0 0 0 0 0 0 0 0 0 0 0 127 0" result="hardAlpha"/>
<feOffset dy="6.10416"/>
<feGaussianBlur stdDeviation="8.0117"/>
<feComposite in2="hardAlpha" operator="out"/>
<feColorMatrix type="matrix" values="0 0 0 0 0.00392157 0 0 0 0 0.859765 0 0 0 0 0.976471 0 0 0 1 0"/>
<feBlend mode="normal" in2="BackgroundImageFix" result="effect1_dropShadow_1930_8263"/>
<feBlend mode="normal" in="SourceGraphic" in2="effect1_dropShadow_1930_8263" result="shape"/>
</filter>
<filter id="filter2_d_1930_8263" x="31.9776" y="38.4772" width="70.0414" height="70.0468" filterUnits="userSpaceOnUse" color-interpolation-filters="sRGB">
<feFlood flood-opacity="0" result="BackgroundImageFix"/>
<feColorMatrix in="SourceAlpha" type="matrix" values="0 0 0 0 0 0 0 0 0 0 0 0 0 0 0 0 0 0 127 0" result="hardAlpha"/>
<feOffset dy="6.10416"/>
<feGaussianBlur stdDeviation="8.0117"/>
<feComposite in2="hardAlpha" operator="out"/>
<feColorMatrix type="matrix" values="0 0 0 0 0.00392157 0 0 0 0 0.859765 0 0 0 0 0.976471 0 0 0 1 0"/>
<feBlend mode="normal" in2="BackgroundImageFix" result="effect1_dropShadow_1930_8263"/>
<feBlend mode="normal" in="SourceGraphic" in2="effect1_dropShadow_1930_8263" result="shape"/>
</filter>
<linearGradient id="paint0_linear_1930_8263" x1="67.3072" y1="21.793" x2="67.3072" y2="112.189" gradientUnits="userSpaceOnUse">
<stop stop-color="#07081E"/>
<stop offset="1" stop-color="#0E0E1A"/>
</linearGradient>
<linearGradient id="paint1_linear_1930_8263" x1="67.3072" y1="21.793" x2="67.3072" y2="112.189" gradientUnits="userSpaceOnUse">
<stop stop-color="#2F73DA"/>
<stop offset="1" stop-color="#00D1FF"/>
</linearGradient>
<linearGradient id="paint2_linear_1930_8263" x1="67.0012" y1="-0.853248" x2="67.0012" y2="88.0791" gradientUnits="userSpaceOnUse">
<stop stop-color="#0882D9"/>
<stop offset="1" stop-color="#00ACEA"/>
</linearGradient>
<linearGradient id="paint3_linear_1930_8263" x1="66.9982" y1="-0.858291" x2="66.9982" y2="88.0796" gradientUnits="userSpaceOnUse">
<stop stop-color="#0882D9"/>
<stop offset="1" stop-color="#00ACEA"/>
</linearGradient>
<linearGradient id="paint4_linear_1930_8263" x1="76.5019" y1="54.5024" x2="76.5019" y2="66.3513" gradientUnits="userSpaceOnUse">
<stop stop-color="#0882D9"/>
<stop offset="1" stop-color="#00ACEA"/>
</linearGradient>
<linearGradient id="paint5_linear_1930_8263" x1="51.1645" y1="62.104" x2="51.1645" y2="73.9528" gradientUnits="userSpaceOnUse">
<stop stop-color="#0882D9"/>
<stop offset="1" stop-color="#00ACEA"/>
</linearGradient>
</defs>
</svg>
