<svg width="135" height="135" viewBox="0 0 135 135" fill="none" xmlns="http://www.w3.org/2000/svg">
<g filter="url(#filter0_d_1930_8131)">
<ellipse cx="67.3072" cy="67.5944" rx="47.3072" ry="45.198" fill="url(#paint0_linear_1930_8131)"/>
<path d="M67.3072 113.555C93.8225 113.555 115.377 93.0104 115.377 67.5944C115.377 42.1785 93.8225 21.6335 67.3072 21.6335C40.7919 21.6335 19.237 42.1785 19.237 67.5944C19.237 93.0104 40.7919 113.555 67.3072 113.555Z" stroke="url(#paint1_linear_1930_8131)" stroke-width="1.52604"/>
</g>
<path d="M54.6294 86.5792C52.7441 86.5793 51.1941 86.0217 50.0848 84.9124C48.625 83.4525 47.9994 81.3783 48.2756 78.9138C48.5617 76.3614 49.7823 73.4244 51.9034 70.1847C52.0942 69.8931 52.4852 69.8115 52.777 70.0025C53.0685 70.1933 53.1501 70.5845 52.9592 70.8761C50.9474 73.9488 49.7935 76.7003 49.5298 79.0544C49.2944 81.1535 49.7814 82.8242 50.9771 84.02C52.6241 85.667 55.633 85.7543 59.45 84.2662C63.5454 82.6695 68.238 79.3529 72.6634 74.9269C77.1716 70.4187 80.7127 65.4969 82.6346 61.0679C84.4504 56.8835 84.5844 53.5763 83.0023 51.9941C80.8665 49.8576 75.769 50.8555 69.6991 54.598C69.4023 54.7808 69.0137 54.6886 68.8309 54.3921C68.648 54.0954 68.7402 53.7068 69.0367 53.5239C75.7304 49.3968 81.2848 48.4914 83.8946 51.1019C85.8914 53.0987 85.855 56.8165 83.7922 61.5703C81.8086 66.1412 78.1732 71.2016 73.5557 75.8193C69.0095 80.3657 64.1627 83.7833 59.9082 85.4419C57.9612 86.2011 56.1815 86.5791 54.6294 86.5792Z" fill="#0882D9"/>
<path d="M79.436 86.8436C77.678 86.8437 75.5355 86.3611 73.1365 85.3977C68.4844 83.5296 63.3966 80.0387 59.1777 75.8201C54.6711 71.3135 51.2519 66.2402 49.55 61.535C47.8793 56.9158 48.0742 53.1134 50.0848 51.1028C52.0918 49.0957 55.502 49.1338 59.9464 51.2127C64.042 53.1285 68.8753 56.7613 73.5558 61.4418C74.4911 62.377 77.3488 65.292 78.2435 66.3152C78.4729 66.5776 78.4461 66.9761 78.1838 67.2056C77.9215 67.4349 77.523 67.4082 77.2936 67.1459C76.418 66.1447 73.5904 63.2611 72.6634 62.3341C68.0841 57.7546 63.3779 54.2109 59.4117 52.3558C57.4579 51.4418 55.7312 50.9511 54.2798 50.8972C52.8691 50.8453 51.7579 51.2143 50.977 51.995C49.3268 53.6452 49.2392 56.966 50.7365 61.1055C52.3767 65.6404 55.6915 70.5492 60.0698 74.9276C64.1727 79.0303 69.1066 82.4196 73.6065 84.2266C77.7218 85.8792 81.0052 86.039 82.3897 84.6543C83.4704 83.5735 83.8822 81.9704 83.6136 79.8893C83.3284 77.6791 82.2468 74.9874 80.4858 72.105C80.3042 71.8076 80.3979 71.4193 80.6952 71.2375C80.9927 71.0559 81.3809 71.1495 81.5626 71.4469C85.3752 77.6874 86.0019 82.8265 83.282 85.5464C82.4172 86.4118 81.0987 86.8436 79.436 86.8436Z" fill="#0882D9"/>
<path d="M77.7689 67.3614H73.9683C73.6199 67.3614 73.3374 67.0788 73.3374 66.7304C73.3374 66.382 73.62 66.0995 73.9683 66.0995H77.138V62.9298C77.138 62.5813 77.4205 62.2988 77.7689 62.2988C78.1174 62.2988 78.3999 62.5814 78.3999 62.9298V66.7304C78.3999 67.0788 78.1175 67.3614 77.7689 67.3614Z" fill="#0882D9"/>
<path d="M52.4315 74.9629C52.0831 74.9629 51.8006 74.6804 51.8006 74.332V71.1623H48.6309C48.2825 71.1623 48 70.8797 48 70.5313C48 70.1829 48.2826 69.9004 48.6309 69.9004H52.4315C52.78 69.9004 53.0625 70.1829 53.0625 70.5313V74.332C53.0625 74.6804 52.78 74.9629 52.4315 74.9629Z" fill="#0882D9"/>
<g filter="url(#filter1_d_1930_8131)">
<path d="M53.5823 86.9992C51.8509 86.9992 50.4539 86.5089 49.4726 85.5275C46.7161 82.7717 47.8904 76.651 52.537 69.554C52.7279 69.2624 53.119 69.1809 53.4106 69.3718C53.7021 69.5626 53.7837 69.9537 53.5928 70.2453C51.4969 73.4465 50.0919 76.5118 49.5298 79.1097C49.1491 80.869 48.985 83.2557 50.3648 84.6352C51.9469 86.2173 55.2542 86.0834 59.4386 84.2674C63.8677 82.3454 68.7894 78.8042 73.2971 74.2962C77.8052 69.7881 81.3464 64.8662 83.2683 60.4372C85.0841 56.2527 85.2181 52.9456 83.636 51.3634C81.5003 49.2269 76.4027 50.2247 70.3328 53.9671C70.036 54.1499 69.6474 54.0578 69.4645 53.7613C69.2817 53.4646 69.3738 53.076 69.6704 52.893C76.3641 48.7659 81.9186 47.8606 84.5284 50.4711C86.5252 52.4679 86.4888 56.1857 84.426 60.9394C82.4424 65.5103 78.8071 70.5708 74.1895 75.1884C69.5724 79.8059 64.5121 83.4414 59.9411 85.425C57.5234 86.4741 55.3738 86.9991 53.5823 86.9992Z" fill="#94A4BC"/>
</g>
<g filter="url(#filter2_d_1930_8131)">
<path d="M80.4193 86.9996C78.6275 86.9997 76.4784 86.4748 74.0604 85.4255C69.4894 83.4419 64.4289 79.8065 59.8114 75.1889C55.1941 70.5714 51.5589 65.5112 49.5752 60.9401C47.5122 56.1862 47.4757 52.4683 49.4725 50.4715C51.4693 48.4747 55.1871 48.5112 59.941 50.5742C64.512 52.5578 69.5721 56.1931 74.1895 60.8106C75.1249 61.746 77.983 64.6614 78.8772 65.6841C79.1066 65.9464 79.0798 66.345 78.8175 66.5744C78.5552 66.8039 78.1566 66.7769 77.9271 66.5147C77.0523 65.5141 74.2243 62.6302 73.2971 61.7029C68.7894 57.1949 63.8677 53.6538 59.4387 51.7319C55.2543 49.9158 51.947 49.7818 50.3648 51.3638C48.7828 52.9459 48.9169 56.2532 50.7329 60.4378C52.6549 64.8667 56.196 69.7886 60.7038 74.2965C65.2119 78.8047 70.1338 82.3459 74.563 84.2679C78.7476 86.0836 82.055 86.2177 83.6368 84.6355C85.7519 82.5204 84.7875 77.477 81.1199 71.4737C80.9382 71.1763 81.0319 70.7881 81.3293 70.6063C81.6265 70.4246 82.015 70.5182 82.1966 70.8157C86.2443 77.4408 87.1162 82.9407 84.5292 85.5277C83.5479 86.5091 82.1504 86.9994 80.4193 86.9996Z" fill="#94A4BC"/>
</g>
<path d="M78.4022 66.7305H74.6016C74.2532 66.7305 73.9707 66.4479 73.9707 66.0996C73.9707 65.7512 74.2533 65.4686 74.6016 65.4686H77.7713V62.2989C77.7713 61.9504 78.0538 61.668 78.4022 61.668C78.7506 61.668 79.0332 61.9505 79.0332 62.2989V66.0996C79.0332 66.448 78.7508 66.7305 78.4022 66.7305Z" fill="#94A4BC"/>
<path d="M53.0648 74.3321C52.7164 74.3321 52.4339 74.0495 52.4339 73.7011V70.5314H49.2642C48.9158 70.5314 48.6333 70.2489 48.6333 69.9005C48.6333 69.552 48.9159 69.2695 49.2642 69.2695H53.0648C53.4133 69.2695 53.6958 69.5521 53.6958 69.9005V73.7011C53.6958 74.0496 53.4134 74.3321 53.0648 74.3321Z" fill="#94A4BC"/>
<defs>
<filter id="filter0_d_1930_8131" x="-1.52588" y="0.871094" width="137.667" height="133.447" filterUnits="userSpaceOnUse" color-interpolation-filters="sRGB">
<feFlood flood-opacity="0" result="BackgroundImageFix"/>
<feColorMatrix in="SourceAlpha" type="matrix" values="0 0 0 0 0 0 0 0 0 0 0 0 0 0 0 0 0 0 127 0" result="hardAlpha"/>
<feMorphology radius="5" operator="dilate" in="SourceAlpha" result="effect1_dropShadow_1930_8131"/>
<feOffset/>
<feGaussianBlur stdDeviation="7.5"/>
<feComposite in2="hardAlpha" operator="out"/>
<feColorMatrix type="matrix" values="0 0 0 0 0.0313726 0 0 0 0 0.509804 0 0 0 0 0.85098 0 0 0 1 0"/>
<feBlend mode="normal" in2="BackgroundImageFix" result="effect1_dropShadow_1930_8131"/>
<feBlend mode="normal" in="SourceGraphic" in2="effect1_dropShadow_1930_8131" result="shape"/>
</filter>
<filter id="filter1_d_1930_8131" x="31.979" y="39.0827" width="70.0444" height="70.0449" filterUnits="userSpaceOnUse" color-interpolation-filters="sRGB">
<feFlood flood-opacity="0" result="BackgroundImageFix"/>
<feColorMatrix in="SourceAlpha" type="matrix" values="0 0 0 0 0 0 0 0 0 0 0 0 0 0 0 0 0 0 127 0" result="hardAlpha"/>
<feOffset dy="6.10416"/>
<feGaussianBlur stdDeviation="8.0117"/>
<feComposite in2="hardAlpha" operator="out"/>
<feColorMatrix type="matrix" values="0 0 0 0 0.00392157 0 0 0 0 0.859765 0 0 0 0 0.976471 0 0 0 1 0"/>
<feBlend mode="normal" in2="BackgroundImageFix" result="effect1_dropShadow_1930_8131"/>
<feBlend mode="normal" in="SourceGraphic" in2="effect1_dropShadow_1930_8131" result="shape"/>
</filter>
<filter id="filter2_d_1930_8131" x="31.9776" y="39.0807" width="70.0414" height="70.0468" filterUnits="userSpaceOnUse" color-interpolation-filters="sRGB">
<feFlood flood-opacity="0" result="BackgroundImageFix"/>
<feColorMatrix in="SourceAlpha" type="matrix" values="0 0 0 0 0 0 0 0 0 0 0 0 0 0 0 0 0 0 127 0" result="hardAlpha"/>
<feOffset dy="6.10416"/>
<feGaussianBlur stdDeviation="8.0117"/>
<feComposite in2="hardAlpha" operator="out"/>
<feColorMatrix type="matrix" values="0 0 0 0 0.00392157 0 0 0 0 0.859765 0 0 0 0 0.976471 0 0 0 1 0"/>
<feBlend mode="normal" in2="BackgroundImageFix" result="effect1_dropShadow_1930_8131"/>
<feBlend mode="normal" in="SourceGraphic" in2="effect1_dropShadow_1930_8131" result="shape"/>
</filter>
<linearGradient id="paint0_linear_1930_8131" x1="67.3072" y1="22.3965" x2="67.3072" y2="112.792" gradientUnits="userSpaceOnUse">
<stop stop-color="#07081E"/>
<stop offset="1" stop-color="#0E0E1A"/>
</linearGradient>
<linearGradient id="paint1_linear_1930_8131" x1="67.3072" y1="22.3965" x2="67.3072" y2="112.792" gradientUnits="userSpaceOnUse">
<stop stop-color="#2F73DA"/>
<stop offset="1" stop-color="#00D1FF"/>
</linearGradient>
</defs>
</svg>
