<svg width="77" height="77" viewBox="0 0 77 77" fill="none" xmlns="http://www.w3.org/2000/svg">
<g filter="url(#filter0_d_1930_7990)">
<path d="M38.4977 9.97852C38.4706 9.97852 38.4489 9.99662 38.4215 9.99662V9.98458C38.3467 9.99188 38.2733 10.0098 38.2035 10.0376C38.1994 10.0396 38.1954 10.0415 38.1914 10.0436C26.0278 10.218 16.1854 20.086 16.1855 32.2907C16.1855 35.2418 17.0251 38.2864 18.7552 40.1038C19.6202 41.0125 20.7791 41.6016 22.0796 41.5326C23.3801 41.4636 24.7284 40.7744 26.1091 39.433C26.1133 39.431 26.1174 39.4291 26.1215 39.427C27.6353 37.9133 30.0915 37.7725 31.5564 39.2325C33.0164 40.6973 32.882 43.1598 31.3681 44.6736C31.366 44.6756 31.3639 44.6776 31.3618 44.6796C30.0204 46.0603 29.3249 47.4149 29.256 48.7154C29.187 50.0159 29.7823 51.1732 30.691 52.0383C32.5084 53.7683 35.5468 54.6032 38.4979 54.6032C50.8113 54.6033 60.8089 44.6042 60.8088 32.2907C60.8089 26.134 58.313 20.5547 54.2797 16.5151C50.3099 12.5514 44.8275 10.1217 38.7967 10.0373C38.7017 9.99905 38.6003 9.97943 38.4979 9.97953L38.4977 9.97852ZM38.4977 11.5739C44.2238 11.5738 49.398 13.89 53.1512 17.6375C56.8986 21.3908 59.215 26.5649 59.2149 32.291C59.215 43.7431 49.9498 53.0099 38.4977 53.0098C35.8707 53.0098 33.1189 52.1492 31.7912 50.8853C31.1274 50.2534 30.8076 49.5896 30.8496 48.7981C30.8914 48.0085 31.3342 46.9978 32.4978 45.7974L32.5026 45.7914C34.5924 43.6957 34.8009 40.2307 32.6863 38.1091C30.5661 35.9959 27.1 36.2054 25.0039 38.2913C23.7998 39.461 22.7822 39.9022 21.9907 39.9441C21.1992 39.986 20.5402 39.668 19.9082 39.0041C18.6444 37.6764 17.7791 34.9184 17.7791 32.2914C17.779 20.8392 27.0457 11.574 38.4979 11.5741L38.4977 11.5739ZM39.8907 16.3566C37.2595 16.3566 35.1094 18.5067 35.1094 21.1379C35.1094 23.7691 37.2595 25.9145 39.8907 25.9145C42.5218 25.9145 44.6735 23.7691 44.6735 21.1379C44.6735 18.5067 42.5218 16.3566 39.8907 16.3566ZM39.8907 17.9504C41.6605 17.9504 43.0798 19.368 43.0798 21.1379C43.0798 22.9077 41.6605 24.327 39.8907 24.327C38.1208 24.327 36.7032 22.9077 36.7032 21.1379C36.7032 19.368 38.1208 17.9504 39.8907 17.9504ZM27.1438 22.7332C24.5127 22.7332 22.361 24.877 22.361 27.5082C22.361 30.1394 24.5127 32.291 27.1438 32.291C29.775 32.291 31.9204 30.1394 31.9204 27.5082C31.9204 24.877 29.775 22.7332 27.1438 22.7332ZM27.1438 24.327C28.9137 24.327 30.3266 25.7384 30.3266 27.5082C30.3266 29.2781 28.9137 30.6973 27.1438 30.6973C25.374 30.6973 23.9563 29.2781 23.9563 27.5082C23.9563 25.7384 25.374 24.327 27.1438 24.327ZM49.4563 25.9145C46.8251 25.9145 44.6735 28.0661 44.6735 30.6973C44.6735 33.3285 46.8251 35.4801 49.4563 35.4801C52.0875 35.4801 54.2329 33.3285 54.2329 30.6973C54.2329 28.0661 52.0875 25.9145 49.4563 25.9145ZM49.4563 27.5082C51.2261 27.5082 52.6438 28.9275 52.6438 30.6973C52.6438 32.4672 51.2261 33.8848 49.4563 33.8848C47.6864 33.8848 46.2672 32.4672 46.2672 30.6973C46.2672 28.9275 47.6864 27.5082 49.4563 27.5082ZM43.0798 38.6676C40.4486 38.6676 38.2969 40.8192 38.2969 43.4504C38.2969 46.0815 40.4486 48.2332 43.0798 48.2332C45.7109 48.2332 47.8626 46.0815 47.8626 43.4504C47.8626 40.8192 45.7109 38.6676 43.0798 38.6676ZM43.0798 40.2629C44.8496 40.2629 46.2672 41.6805 46.2672 43.4504C46.2672 45.2202 44.8496 46.6395 43.0798 46.6395C41.3099 46.6395 39.8907 45.2202 39.8907 43.4504C39.8907 41.6805 41.3099 40.2629 43.0798 40.2629Z" fill="url(#paint0_linear_1930_7990)"/>
</g>
<defs>
<filter id="filter0_d_1930_7990" x="0.16214" y="0.0592637" width="76.6699" height="76.6718" filterUnits="userSpaceOnUse" color-interpolation-filters="sRGB">
<feFlood flood-opacity="0" result="BackgroundImageFix"/>
<feColorMatrix in="SourceAlpha" type="matrix" values="0 0 0 0 0 0 0 0 0 0 0 0 0 0 0 0 0 0 127 0" result="hardAlpha"/>
<feOffset dy="6.10416"/>
<feGaussianBlur stdDeviation="8.0117"/>
<feComposite in2="hardAlpha" operator="out"/>
<feColorMatrix type="matrix" values="0 0 0 0 0.00392157 0 0 0 0 0.859765 0 0 0 0 0.976471 0 0 0 1 0"/>
<feBlend mode="normal" in2="BackgroundImageFix" result="effect1_dropShadow_1930_7990"/>
<feBlend mode="normal" in="SourceGraphic" in2="effect1_dropShadow_1930_7990" result="shape"/>
</filter>
<linearGradient id="paint0_linear_1930_7990" x1="38.4972" y1="-47.8636" x2="38.4972" y2="56.5802" gradientUnits="userSpaceOnUse">
<stop stop-color="#0882D9"/>
<stop offset="1" stop-color="#00ACEA"/>
</linearGradient>
</defs>
</svg>
