<svg width="77" height="77" viewBox="0 0 77 77" fill="none" xmlns="http://www.w3.org/2000/svg">
<g filter="url(#filter0_d_1930_8003)">
<path d="M38.4977 10.1855C38.4706 10.1855 38.4489 10.2037 38.4215 10.2037V10.1916C38.3467 10.1989 38.2733 10.2168 38.2035 10.2446C38.1994 10.2466 38.1954 10.2486 38.1914 10.2506C26.0278 10.425 16.1854 20.293 16.1855 32.4977C16.1855 35.4488 17.0251 38.4934 18.7552 40.3108C19.6202 41.2195 20.7791 41.8086 22.0796 41.7396C23.3801 41.6706 24.7284 40.9814 26.1091 39.64C26.1133 39.6381 26.1174 39.6361 26.1215 39.6341C27.6353 38.1204 30.0915 37.9795 31.5564 39.4395C33.0164 40.9044 32.882 43.3668 31.3681 44.8807C31.366 44.8827 31.3639 44.8846 31.3618 44.8866C30.0204 46.2673 29.3249 47.6219 29.256 48.9224C29.187 50.223 29.7823 51.3802 30.691 52.2453C32.5084 53.9754 35.5468 54.8102 38.4979 54.8102C50.8113 54.8103 60.8089 44.8112 60.8088 32.4977C60.8089 26.341 58.313 20.7617 54.2797 16.7221C50.3099 12.7584 44.8275 10.3287 38.7967 10.2444C38.7017 10.2061 38.6003 10.1865 38.4979 10.1866L38.4977 10.1855ZM38.4977 11.7809C44.2238 11.7808 49.398 14.0971 53.1512 17.8446C56.8986 21.5979 59.215 26.772 59.2149 32.498C59.215 43.9502 49.9498 53.2169 38.4977 53.2168C35.8707 53.2168 33.1189 52.3562 31.7912 51.0923C31.1274 50.4604 30.8076 49.7966 30.8496 49.0052C30.8914 48.2155 31.3342 47.2048 32.4978 46.0045L32.5026 45.9984C34.5924 43.9028 34.8009 40.4377 32.6863 38.3161C30.5661 36.203 27.1 36.4124 25.0039 38.4983C23.7998 39.668 22.7822 40.1092 21.9907 40.1512C21.1992 40.193 20.5402 39.875 19.9082 39.2112C18.6444 37.8835 17.7791 35.1254 17.7791 32.4984C17.779 21.0462 27.0457 11.781 38.4979 11.7812L38.4977 11.7809ZM39.8907 16.5637C37.2595 16.5637 35.1094 18.7137 35.1094 21.3449C35.1094 23.9761 37.2595 26.1215 39.8907 26.1215C42.5218 26.1215 44.6735 23.9761 44.6735 21.3449C44.6735 18.7137 42.5218 16.5637 39.8907 16.5637ZM39.8907 18.1575C41.6605 18.1575 43.0798 19.575 43.0798 21.3449C43.0798 23.1147 41.6605 24.534 39.8907 24.534C38.1208 24.534 36.7032 23.1147 36.7032 21.3449C36.7032 19.575 38.1208 18.1575 39.8907 18.1575ZM27.1438 22.9402C24.5127 22.9402 22.361 25.0841 22.361 27.7152C22.361 30.3464 24.5127 32.498 27.1438 32.498C29.775 32.498 31.9204 30.3464 31.9204 27.7152C31.9204 25.0841 29.775 22.9402 27.1438 22.9402ZM27.1438 24.534C28.9137 24.534 30.3266 25.9454 30.3266 27.7152C30.3266 29.4851 28.9137 30.9043 27.1438 30.9043C25.374 30.9043 23.9563 29.4851 23.9563 27.7152C23.9563 25.9454 25.374 24.534 27.1438 24.534ZM49.4563 26.1215C46.8251 26.1215 44.6735 28.2732 44.6735 30.9043C44.6735 33.5355 46.8251 35.6871 49.4563 35.6871C52.0875 35.6871 54.2329 33.5355 54.2329 30.9043C54.2329 28.2732 52.0875 26.1215 49.4563 26.1215ZM49.4563 27.7152C51.2261 27.7152 52.6438 29.1345 52.6438 30.9043C52.6438 32.6742 51.2261 34.0918 49.4563 34.0918C47.6864 34.0918 46.2672 32.6742 46.2672 30.9043C46.2672 29.1345 47.6864 27.7152 49.4563 27.7152ZM43.0798 38.8746C40.4486 38.8746 38.2969 41.0262 38.2969 43.6574C38.2969 46.2886 40.4486 48.4403 43.0798 48.4403C45.7109 48.4403 47.8626 46.2886 47.8626 43.6574C47.8626 41.0262 45.7109 38.8746 43.0798 38.8746ZM43.0798 40.4699C44.8496 40.4699 46.2672 41.8876 46.2672 43.6574C46.2672 45.4272 44.8496 46.8465 43.0798 46.8465C41.3099 46.8465 39.8907 45.4272 39.8907 43.6574C39.8907 41.8876 41.3099 40.4699 43.0798 40.4699Z" fill="#94A4BC"/>
</g>
<defs>
<filter id="filter0_d_1930_8003" x="0.16214" y="0.266295" width="76.6699" height="76.6718" filterUnits="userSpaceOnUse" color-interpolation-filters="sRGB">
<feFlood flood-opacity="0" result="BackgroundImageFix"/>
<feColorMatrix in="SourceAlpha" type="matrix" values="0 0 0 0 0 0 0 0 0 0 0 0 0 0 0 0 0 0 127 0" result="hardAlpha"/>
<feOffset dy="6.10416"/>
<feGaussianBlur stdDeviation="8.0117"/>
<feComposite in2="hardAlpha" operator="out"/>
<feColorMatrix type="matrix" values="0 0 0 0 0.00392157 0 0 0 0 0.859765 0 0 0 0 0.976471 0 0 0 1 0"/>
<feBlend mode="normal" in2="BackgroundImageFix" result="effect1_dropShadow_1930_8003"/>
<feBlend mode="normal" in="SourceGraphic" in2="effect1_dropShadow_1930_8003" result="shape"/>
</filter>
</defs>
</svg>
