<svg width="135" height="135" viewBox="0 0 135 135" fill="none" xmlns="http://www.w3.org/2000/svg">
<g filter="url(#filter0_d_1930_7996)">
<ellipse cx="67.3072" cy="65.198" rx="47.3072" ry="45.198" fill="url(#paint0_linear_1930_7996)"/>
</g>
<g filter="url(#filter1_d_1930_7996)">
<path d="M67.4977 43.1855C67.4706 43.1855 67.4489 43.2037 67.4215 43.2037V43.1916C67.3467 43.1989 67.2733 43.2168 67.2035 43.2446C67.1994 43.2466 67.1954 43.2486 67.1914 43.2506C55.0278 43.425 45.1854 53.293 45.1855 65.4977C45.1855 68.4488 46.0251 71.4934 47.7552 73.3108C48.6202 74.2195 49.7791 74.8086 51.0796 74.7396C52.3801 74.6706 53.7284 73.9814 55.1091 72.64C55.1133 72.6381 55.1174 72.6361 55.1215 72.6341C56.6353 71.1204 59.0915 70.9795 60.5564 72.4395C62.0164 73.9044 61.882 76.3668 60.3681 77.8807C60.366 77.8827 60.3639 77.8846 60.3618 77.8866C59.0204 79.2673 58.3249 80.6219 58.256 81.9224C58.187 83.223 58.7823 84.3802 59.691 85.2453C61.5084 86.9754 64.5468 87.8102 67.4979 87.8102C79.8113 87.8103 89.8089 77.8112 89.8088 65.4977C89.8089 59.341 87.313 53.7617 83.2797 49.7221C79.3099 45.7584 73.8275 43.3287 67.7967 43.2444C67.7017 43.2061 67.6003 43.1865 67.4979 43.1866L67.4977 43.1855ZM67.4977 44.7809C73.2238 44.7808 78.398 47.0971 82.1512 50.8446C85.8986 54.5979 88.215 59.772 88.2149 65.498C88.215 76.9502 78.9498 86.2169 67.4977 86.2168C64.8707 86.2168 62.1189 85.3562 60.7912 84.0923C60.1274 83.4604 59.8076 82.7966 59.8496 82.0052C59.8914 81.2155 60.3342 80.2048 61.4978 79.0045L61.5026 78.9984C63.5924 76.9028 63.8009 73.4377 61.6863 71.3161C59.5661 69.203 56.1 69.4124 54.0039 71.4983C52.7998 72.668 51.7822 73.1092 50.9907 73.1512C50.1992 73.193 49.5402 72.875 48.9082 72.2112C47.6444 70.8835 46.7791 68.1254 46.7791 65.4984C46.779 54.0462 56.0457 44.781 67.4979 44.7812L67.4977 44.7809ZM68.8907 49.5637C66.2595 49.5637 64.1094 51.7137 64.1094 54.3449C64.1094 56.9761 66.2595 59.1215 68.8907 59.1215C71.5218 59.1215 73.6735 56.9761 73.6735 54.3449C73.6735 51.7137 71.5218 49.5637 68.8907 49.5637ZM68.8907 51.1575C70.6605 51.1575 72.0798 52.575 72.0798 54.3449C72.0798 56.1147 70.6605 57.534 68.8907 57.534C67.1208 57.534 65.7032 56.1147 65.7032 54.3449C65.7032 52.575 67.1208 51.1575 68.8907 51.1575ZM56.1438 55.9402C53.5127 55.9402 51.361 58.0841 51.361 60.7152C51.361 63.3464 53.5127 65.498 56.1438 65.498C58.775 65.498 60.9204 63.3464 60.9204 60.7152C60.9204 58.0841 58.775 55.9402 56.1438 55.9402ZM56.1438 57.534C57.9137 57.534 59.3266 58.9454 59.3266 60.7152C59.3266 62.4851 57.9137 63.9043 56.1438 63.9043C54.374 63.9043 52.9563 62.4851 52.9563 60.7152C52.9563 58.9454 54.374 57.534 56.1438 57.534ZM78.4563 59.1215C75.8251 59.1215 73.6735 61.2732 73.6735 63.9043C73.6735 66.5355 75.8251 68.6871 78.4563 68.6871C81.0875 68.6871 83.2329 66.5355 83.2329 63.9043C83.2329 61.2732 81.0875 59.1215 78.4563 59.1215ZM78.4563 60.7152C80.2261 60.7152 81.6438 62.1345 81.6438 63.9043C81.6438 65.6742 80.2261 67.0918 78.4563 67.0918C76.6864 67.0918 75.2672 65.6742 75.2672 63.9043C75.2672 62.1345 76.6864 60.7152 78.4563 60.7152ZM72.0798 71.8746C69.4486 71.8746 67.2969 74.0262 67.2969 76.6574C67.2969 79.2886 69.4486 81.4403 72.0798 81.4403C74.7109 81.4403 76.8626 79.2886 76.8626 76.6574C76.8626 74.0262 74.7109 71.8746 72.0798 71.8746ZM72.0798 73.4699C73.8496 73.4699 75.2672 74.8876 75.2672 76.6574C75.2672 78.4272 73.8496 79.8465 72.0798 79.8465C70.3099 79.8465 68.8907 78.4272 68.8907 76.6574C68.8907 74.8876 70.3099 73.4699 72.0798 73.4699Z" fill="#94A4BC"/>
</g>
<defs>
<filter id="filter0_d_1930_7996" x="0" y="0" width="134.614" height="130.396" filterUnits="userSpaceOnUse" color-interpolation-filters="sRGB">
<feFlood flood-opacity="0" result="BackgroundImageFix"/>
<feColorMatrix in="SourceAlpha" type="matrix" values="0 0 0 0 0 0 0 0 0 0 0 0 0 0 0 0 0 0 127 0" result="hardAlpha"/>
<feMorphology radius="5" operator="dilate" in="SourceAlpha" result="effect1_dropShadow_1930_7996"/>
<feOffset/>
<feGaussianBlur stdDeviation="7.5"/>
<feComposite in2="hardAlpha" operator="out"/>
<feColorMatrix type="matrix" values="0 0 0 0 0.0313726 0 0 0 0 0.509804 0 0 0 0 0.85098 0 0 0 1 0"/>
<feBlend mode="normal" in2="BackgroundImageFix" result="effect1_dropShadow_1930_7996"/>
<feBlend mode="normal" in="SourceGraphic" in2="effect1_dropShadow_1930_7996" result="shape"/>
</filter>
<filter id="filter1_d_1930_7996" x="29.1621" y="33.2663" width="76.6699" height="76.6718" filterUnits="userSpaceOnUse" color-interpolation-filters="sRGB">
<feFlood flood-opacity="0" result="BackgroundImageFix"/>
<feColorMatrix in="SourceAlpha" type="matrix" values="0 0 0 0 0 0 0 0 0 0 0 0 0 0 0 0 0 0 127 0" result="hardAlpha"/>
<feOffset dy="6.10416"/>
<feGaussianBlur stdDeviation="8.0117"/>
<feComposite in2="hardAlpha" operator="out"/>
<feColorMatrix type="matrix" values="0 0 0 0 0.00392157 0 0 0 0 0.859765 0 0 0 0 0.976471 0 0 0 1 0"/>
<feBlend mode="normal" in2="BackgroundImageFix" result="effect1_dropShadow_1930_7996"/>
<feBlend mode="normal" in="SourceGraphic" in2="effect1_dropShadow_1930_7996" result="shape"/>
</filter>
<linearGradient id="paint0_linear_1930_7996" x1="67.3072" y1="20" x2="67.3072" y2="110.396" gradientUnits="userSpaceOnUse">
<stop stop-color="#07081E"/>
<stop offset="1" stop-color="#0E0E1A"/>
</linearGradient>
</defs>
</svg>
