<svg width="135" height="135" viewBox="0 0 135 135" fill="none" xmlns="http://www.w3.org/2000/svg">
<g filter="url(#filter0_d_1930_8225)">
<ellipse cx="67.3072" cy="67.5944" rx="47.3072" ry="45.198" fill="url(#paint0_linear_1930_8225)"/>
<path d="M67.3072 113.555C93.8225 113.555 115.377 93.0104 115.377 67.5944C115.377 42.1785 93.8225 21.6335 67.3072 21.6335C40.7919 21.6335 19.237 42.1785 19.237 67.5944C19.237 93.0104 40.7919 113.555 67.3072 113.555Z" stroke="url(#paint1_linear_1930_8225)" stroke-width="1.52604"/>
</g>
<g filter="url(#filter1_d_1930_8225)">
<path d="M67.4977 45.582C67.4706 45.582 67.4489 45.6001 67.4215 45.6001V45.5881C67.3467 45.5954 67.2733 45.6133 67.2035 45.6411C67.1994 45.6431 67.1954 45.6451 67.1914 45.6471C55.0278 45.8215 45.1854 55.6895 45.1855 67.8942C45.1855 70.8453 46.0251 73.8899 47.7552 75.7073C48.6202 76.616 49.7791 77.2051 51.0796 77.1361C52.3801 77.0671 53.7284 76.3779 55.1091 75.0365C55.1133 75.0346 55.1174 75.0326 55.1215 75.0306C56.6353 73.5168 59.0915 73.376 60.5564 74.836C62.0164 76.3009 61.882 78.7633 60.3681 80.2771C60.366 80.2791 60.3639 80.2811 60.3618 80.2831C59.0204 81.6638 58.3249 83.0184 58.256 84.3189C58.187 85.6195 58.7823 86.7767 59.691 87.6418C61.5084 89.3719 64.5468 90.2067 67.4979 90.2067C79.8113 90.2068 89.8089 80.2077 89.8088 67.8942C89.8089 61.7375 87.313 56.1582 83.2797 52.1186C79.3099 48.1549 73.8275 45.7252 67.7967 45.6409C67.7017 45.6026 67.6003 45.5829 67.4979 45.583L67.4977 45.582ZM67.4977 47.1774C73.2238 47.1773 78.398 49.4936 82.1512 53.2411C85.8986 56.9944 88.215 62.1685 88.2149 67.8945C88.215 79.3466 78.9498 88.6134 67.4977 88.6133C64.8707 88.6133 62.1189 87.7527 60.7912 86.4888C60.1274 85.8569 59.8076 85.1931 59.8496 84.4017C59.8914 83.612 60.3342 82.6013 61.4978 81.401L61.5026 81.3949C63.5924 79.2992 63.8009 75.8342 61.6863 73.7126C59.5661 71.5995 56.1 71.8089 54.0039 73.8948C52.7998 75.0645 51.7822 75.5057 50.9907 75.5477C50.1992 75.5895 49.5402 75.2715 48.9082 74.6077C47.6444 73.28 46.7791 70.5219 46.7791 67.8949C46.779 56.4427 56.0457 47.1775 67.4979 47.1776L67.4977 47.1774ZM68.8907 51.9602C66.2595 51.9602 64.1094 54.1102 64.1094 56.7414C64.1094 59.3726 66.2595 61.518 68.8907 61.518C71.5218 61.518 73.6735 59.3726 73.6735 56.7414C73.6735 54.1102 71.5218 51.9602 68.8907 51.9602ZM68.8907 53.5539C70.6605 53.5539 72.0798 54.9715 72.0798 56.7414C72.0798 58.5112 70.6605 59.9305 68.8907 59.9305C67.1208 59.9305 65.7032 58.5112 65.7032 56.7414C65.7032 54.9715 67.1208 53.5539 68.8907 53.5539ZM56.1438 58.3367C53.5127 58.3367 51.361 60.4806 51.361 63.1117C51.361 65.7429 53.5127 67.8945 56.1438 67.8945C58.775 67.8945 60.9204 65.7429 60.9204 63.1117C60.9204 60.4806 58.775 58.3367 56.1438 58.3367ZM56.1438 59.9305C57.9137 59.9305 59.3266 61.3419 59.3266 63.1117C59.3266 64.8816 57.9137 66.3008 56.1438 66.3008C54.374 66.3008 52.9563 64.8816 52.9563 63.1117C52.9563 61.3419 54.374 59.9305 56.1438 59.9305ZM78.4563 61.518C75.8251 61.518 73.6735 63.6696 73.6735 66.3008C73.6735 68.932 75.8251 71.0836 78.4563 71.0836C81.0875 71.0836 83.2329 68.932 83.2329 66.3008C83.2329 63.6696 81.0875 61.518 78.4563 61.518ZM78.4563 63.1117C80.2261 63.1117 81.6438 64.531 81.6438 66.3008C81.6438 68.0707 80.2261 69.4883 78.4563 69.4883C76.6864 69.4883 75.2672 68.0707 75.2672 66.3008C75.2672 64.531 76.6864 63.1117 78.4563 63.1117ZM72.0798 74.2711C69.4486 74.2711 67.2969 76.4227 67.2969 79.0539C67.2969 81.685 69.4486 83.8368 72.0798 83.8368C74.7109 83.8368 76.8626 81.685 76.8626 79.0539C76.8626 76.4227 74.7109 74.2711 72.0798 74.2711ZM72.0798 75.8664C73.8496 75.8664 75.2672 77.284 75.2672 79.0539C75.2672 80.8237 73.8496 82.243 72.0798 82.243C70.3099 82.243 68.8907 80.8237 68.8907 79.0539C68.8907 77.284 70.3099 75.8664 72.0798 75.8664Z" fill="#94A4BC"/>
</g>
<defs>
<filter id="filter0_d_1930_8225" x="-1.52588" y="0.871094" width="137.667" height="133.447" filterUnits="userSpaceOnUse" color-interpolation-filters="sRGB">
<feFlood flood-opacity="0" result="BackgroundImageFix"/>
<feColorMatrix in="SourceAlpha" type="matrix" values="0 0 0 0 0 0 0 0 0 0 0 0 0 0 0 0 0 0 127 0" result="hardAlpha"/>
<feMorphology radius="5" operator="dilate" in="SourceAlpha" result="effect1_dropShadow_1930_8225"/>
<feOffset/>
<feGaussianBlur stdDeviation="7.5"/>
<feComposite in2="hardAlpha" operator="out"/>
<feColorMatrix type="matrix" values="0 0 0 0 0.0313726 0 0 0 0 0.509804 0 0 0 0 0.85098 0 0 0 1 0"/>
<feBlend mode="normal" in2="BackgroundImageFix" result="effect1_dropShadow_1930_8225"/>
<feBlend mode="normal" in="SourceGraphic" in2="effect1_dropShadow_1930_8225" result="shape"/>
</filter>
<filter id="filter1_d_1930_8225" x="29.1621" y="35.6628" width="76.6699" height="76.6718" filterUnits="userSpaceOnUse" color-interpolation-filters="sRGB">
<feFlood flood-opacity="0" result="BackgroundImageFix"/>
<feColorMatrix in="SourceAlpha" type="matrix" values="0 0 0 0 0 0 0 0 0 0 0 0 0 0 0 0 0 0 127 0" result="hardAlpha"/>
<feOffset dy="6.10416"/>
<feGaussianBlur stdDeviation="8.0117"/>
<feComposite in2="hardAlpha" operator="out"/>
<feColorMatrix type="matrix" values="0 0 0 0 0.00392157 0 0 0 0 0.859765 0 0 0 0 0.976471 0 0 0 1 0"/>
<feBlend mode="normal" in2="BackgroundImageFix" result="effect1_dropShadow_1930_8225"/>
<feBlend mode="normal" in="SourceGraphic" in2="effect1_dropShadow_1930_8225" result="shape"/>
</filter>
<linearGradient id="paint0_linear_1930_8225" x1="67.3072" y1="22.3965" x2="67.3072" y2="112.792" gradientUnits="userSpaceOnUse">
<stop stop-color="#07081E"/>
<stop offset="1" stop-color="#0E0E1A"/>
</linearGradient>
<linearGradient id="paint1_linear_1930_8225" x1="67.3072" y1="22.3965" x2="67.3072" y2="112.792" gradientUnits="userSpaceOnUse">
<stop stop-color="#2F73DA"/>
<stop offset="1" stop-color="#00D1FF"/>
</linearGradient>
</defs>
</svg>
