<svg width="135" height="135" viewBox="0 0 135 135" fill="none" xmlns="http://www.w3.org/2000/svg">
<g filter="url(#filter0_d_1930_7978)">
<ellipse cx="67.3072" cy="66.9909" rx="47.3072" ry="45.198" fill="url(#paint0_linear_1930_7978)"/>
<path d="M67.3072 112.952C93.8225 112.952 115.377 92.4069 115.377 66.9909C115.377 41.575 93.8225 21.0299 67.3072 21.0299C40.7919 21.0299 19.237 41.575 19.237 66.9909C19.237 92.4069 40.7919 112.952 67.3072 112.952Z" stroke="url(#paint1_linear_1930_7978)" stroke-width="1.52604"/>
</g>
<g filter="url(#filter1_d_1930_7978)">
<path d="M67.4977 44.9785C67.4706 44.9785 67.4489 44.9966 67.4215 44.9966V44.9846C67.3467 44.9919 67.2733 45.0098 67.2035 45.0376C67.1994 45.0396 67.1954 45.0415 67.1914 45.0436C55.0278 45.218 45.1854 55.086 45.1855 67.2907C45.1855 70.2418 46.0251 73.2864 47.7552 75.1038C48.6202 76.0125 49.7791 76.6016 51.0796 76.5326C52.3801 76.4636 53.7284 75.7744 55.1091 74.433C55.1133 74.431 55.1174 74.4291 55.1215 74.427C56.6353 72.9133 59.0915 72.7725 60.5564 74.2325C62.0164 75.6973 61.882 78.1598 60.3681 79.6736C60.366 79.6756 60.3639 79.6776 60.3618 79.6796C59.0204 81.0603 58.3249 82.4149 58.256 83.7154C58.187 85.0159 58.7823 86.1732 59.691 87.0383C61.5084 88.7683 64.5468 89.6032 67.4979 89.6032C79.8113 89.6033 89.8089 79.6042 89.8088 67.2907C89.8089 61.134 87.313 55.5547 83.2797 51.5151C79.3099 47.5514 73.8275 45.1217 67.7967 45.0373C67.7017 44.9991 67.6003 44.9794 67.4979 44.9795L67.4977 44.9785ZM67.4977 46.5739C73.2238 46.5738 78.398 48.89 82.1512 52.6375C85.8986 56.3908 88.215 61.5649 88.2149 67.291C88.215 78.7431 78.9498 88.0099 67.4977 88.0098C64.8707 88.0098 62.1189 87.1492 60.7912 85.8853C60.1274 85.2534 59.8076 84.5896 59.8496 83.7981C59.8914 83.0085 60.3342 81.9978 61.4978 80.7974L61.5026 80.7914C63.5924 78.6957 63.8009 75.2307 61.6863 73.1091C59.5661 70.9959 56.1 71.2054 54.0039 73.2913C52.7998 74.461 51.7822 74.9022 50.9907 74.9441C50.1992 74.986 49.5402 74.668 48.9082 74.0041C47.6444 72.6764 46.7791 69.9184 46.7791 67.2914C46.779 55.8392 56.0457 46.574 67.4979 46.5741L67.4977 46.5739ZM68.8907 51.3566C66.2595 51.3566 64.1094 53.5067 64.1094 56.1379C64.1094 58.7691 66.2595 60.9145 68.8907 60.9145C71.5218 60.9145 73.6735 58.7691 73.6735 56.1379C73.6735 53.5067 71.5218 51.3566 68.8907 51.3566ZM68.8907 52.9504C70.6605 52.9504 72.0798 54.368 72.0798 56.1379C72.0798 57.9077 70.6605 59.327 68.8907 59.327C67.1208 59.327 65.7032 57.9077 65.7032 56.1379C65.7032 54.368 67.1208 52.9504 68.8907 52.9504ZM56.1438 57.7332C53.5127 57.7332 51.361 59.877 51.361 62.5082C51.361 65.1394 53.5127 67.291 56.1438 67.291C58.775 67.291 60.9204 65.1394 60.9204 62.5082C60.9204 59.877 58.775 57.7332 56.1438 57.7332ZM56.1438 59.327C57.9137 59.327 59.3266 60.7384 59.3266 62.5082C59.3266 64.2781 57.9137 65.6973 56.1438 65.6973C54.374 65.6973 52.9563 64.2781 52.9563 62.5082C52.9563 60.7384 54.374 59.327 56.1438 59.327ZM78.4563 60.9145C75.8251 60.9145 73.6735 63.0661 73.6735 65.6973C73.6735 68.3285 75.8251 70.4801 78.4563 70.4801C81.0875 70.4801 83.2329 68.3285 83.2329 65.6973C83.2329 63.0661 81.0875 60.9145 78.4563 60.9145ZM78.4563 62.5082C80.2261 62.5082 81.6438 63.9275 81.6438 65.6973C81.6438 67.4672 80.2261 68.8848 78.4563 68.8848C76.6864 68.8848 75.2672 67.4672 75.2672 65.6973C75.2672 63.9275 76.6864 62.5082 78.4563 62.5082ZM72.0798 73.6676C69.4486 73.6676 67.2969 75.8192 67.2969 78.4504C67.2969 81.0815 69.4486 83.2332 72.0798 83.2332C74.7109 83.2332 76.8626 81.0815 76.8626 78.4504C76.8626 75.8192 74.7109 73.6676 72.0798 73.6676ZM72.0798 75.2629C73.8496 75.2629 75.2672 76.6805 75.2672 78.4504C75.2672 80.2202 73.8496 81.6395 72.0798 81.6395C70.3099 81.6395 68.8907 80.2202 68.8907 78.4504C68.8907 76.6805 70.3099 75.2629 72.0798 75.2629Z" fill="url(#paint2_linear_1930_7978)"/>
</g>
<defs>
<filter id="filter0_d_1930_7978" x="-1.52588" y="0.267578" width="137.667" height="133.447" filterUnits="userSpaceOnUse" color-interpolation-filters="sRGB">
<feFlood flood-opacity="0" result="BackgroundImageFix"/>
<feColorMatrix in="SourceAlpha" type="matrix" values="0 0 0 0 0 0 0 0 0 0 0 0 0 0 0 0 0 0 127 0" result="hardAlpha"/>
<feMorphology radius="5" operator="dilate" in="SourceAlpha" result="effect1_dropShadow_1930_7978"/>
<feOffset/>
<feGaussianBlur stdDeviation="7.5"/>
<feComposite in2="hardAlpha" operator="out"/>
<feColorMatrix type="matrix" values="0 0 0 0 0.0313726 0 0 0 0 0.509804 0 0 0 0 0.85098 0 0 0 1 0"/>
<feBlend mode="normal" in2="BackgroundImageFix" result="effect1_dropShadow_1930_7978"/>
<feBlend mode="normal" in="SourceGraphic" in2="effect1_dropShadow_1930_7978" result="shape"/>
</filter>
<filter id="filter1_d_1930_7978" x="29.1621" y="35.0593" width="76.6699" height="76.6718" filterUnits="userSpaceOnUse" color-interpolation-filters="sRGB">
<feFlood flood-opacity="0" result="BackgroundImageFix"/>
<feColorMatrix in="SourceAlpha" type="matrix" values="0 0 0 0 0 0 0 0 0 0 0 0 0 0 0 0 0 0 127 0" result="hardAlpha"/>
<feOffset dy="6.10416"/>
<feGaussianBlur stdDeviation="8.0117"/>
<feComposite in2="hardAlpha" operator="out"/>
<feColorMatrix type="matrix" values="0 0 0 0 0.00392157 0 0 0 0 0.859765 0 0 0 0 0.976471 0 0 0 1 0"/>
<feBlend mode="normal" in2="BackgroundImageFix" result="effect1_dropShadow_1930_7978"/>
<feBlend mode="normal" in="SourceGraphic" in2="effect1_dropShadow_1930_7978" result="shape"/>
</filter>
<linearGradient id="paint0_linear_1930_7978" x1="67.3072" y1="21.793" x2="67.3072" y2="112.189" gradientUnits="userSpaceOnUse">
<stop stop-color="#07081E"/>
<stop offset="1" stop-color="#0E0E1A"/>
</linearGradient>
<linearGradient id="paint1_linear_1930_7978" x1="67.3072" y1="21.793" x2="67.3072" y2="112.189" gradientUnits="userSpaceOnUse">
<stop stop-color="#2F73DA"/>
<stop offset="1" stop-color="#00D1FF"/>
</linearGradient>
<linearGradient id="paint2_linear_1930_7978" x1="67.4972" y1="-12.8636" x2="67.4972" y2="91.5802" gradientUnits="userSpaceOnUse">
<stop stop-color="#0882D9"/>
<stop offset="1" stop-color="#00ACEA"/>
</linearGradient>
</defs>
</svg>
