<svg width="135" height="135" viewBox="0 0 135 135" fill="none" xmlns="http://www.w3.org/2000/svg">
<g filter="url(#filter0_d_1930_8093)">
<ellipse cx="67.3072" cy="66.9909" rx="47.3072" ry="45.198" fill="url(#paint0_linear_1930_8093)"/>
<path d="M67.3072 112.952C93.8225 112.952 115.377 92.4069 115.377 66.9909C115.377 41.575 93.8225 21.0299 67.3072 21.0299C40.7919 21.0299 19.237 41.575 19.237 66.9909C19.237 92.4069 40.7919 112.952 67.3072 112.952Z" stroke="url(#paint1_linear_1930_8093)" stroke-width="1.52604"/>
</g>
<g filter="url(#filter1_d_1930_8093)">
<path d="M89.0357 58.6337L68.9477 50.1337C68.3304 49.874 67.6674 49.7402 66.9977 49.7402C66.328 49.7402 65.665 49.874 65.0477 50.1337L44.9597 58.6337C44.4168 58.8633 43.9535 59.2479 43.6278 59.7393C43.3021 60.2307 43.1284 60.8071 43.1284 61.3967C43.1284 61.9862 43.3021 62.5627 43.6278 63.0541C43.9535 63.5455 44.4168 63.93 44.9597 64.1597L51.9997 67.1367V76.7097C51.9943 77.5693 52.2128 78.4155 52.6336 79.165C53.0544 79.9146 53.6631 80.5417 54.3997 80.9847C58.2227 83.2198 62.5713 84.3978 66.9997 84.3978C71.4281 84.3978 75.7768 83.2198 79.5997 80.9847C80.3364 80.5417 80.9451 79.9146 81.3659 79.165C81.7867 78.4155 82.0051 77.5693 81.9997 76.7097V67.1367L84.9997 65.8667V70.6087C84.598 70.7826 84.2493 71.0594 83.9888 71.4112C83.7282 71.763 83.5651 72.1773 83.5159 72.6123C83.4667 73.0473 83.5332 73.4875 83.7085 73.8886C83.8839 74.2897 84.162 74.6374 84.5147 74.8967C84.201 75.1275 83.9457 75.4286 83.7694 75.776C83.5931 76.1233 83.5008 76.5072 83.4997 76.8967V79.3967C83.4997 79.6619 83.6051 79.9163 83.7926 80.1038C83.9802 80.2913 84.2345 80.3967 84.4997 80.3967H87.4997C87.7649 80.3967 88.0193 80.2913 88.2068 80.1038C88.3944 79.9163 88.4997 79.6619 88.4997 79.3967V76.8967C88.4987 76.5072 88.4063 76.1233 88.2301 75.776C88.0538 75.4286 87.7985 75.1275 87.4847 74.8967C87.8375 74.6374 88.1155 74.2897 88.2909 73.8886C88.4663 73.4875 88.5327 73.0473 88.4835 72.6123C88.4343 72.1773 88.2712 71.763 88.0107 71.4112C87.7502 71.0594 87.4015 70.7826 86.9997 70.6087V65.0207L89.0357 64.1597C89.5787 63.93 90.042 63.5455 90.3676 63.0541C90.6933 62.5627 90.867 61.9862 90.867 61.3967C90.867 60.8071 90.6933 60.2307 90.3676 59.7393C90.042 59.2479 89.5787 58.8633 89.0357 58.6337ZM86.4997 72.8967C86.4997 72.9956 86.4704 73.0922 86.4155 73.1745C86.3605 73.2567 86.2824 73.3208 86.1911 73.3586C86.0997 73.3965 85.9992 73.4064 85.9022 73.3871C85.8052 73.3678 85.7161 73.3202 85.6462 73.2502C85.5762 73.1803 85.5286 73.0912 85.5093 72.9942C85.49 72.8972 85.4999 72.7967 85.5378 72.7053C85.5756 72.614 85.6397 72.5359 85.7219 72.4809C85.8042 72.426 85.9008 72.3967 85.9997 72.3967C86.1323 72.3967 86.2595 72.4494 86.3533 72.5431C86.4471 72.6369 86.4997 72.7641 86.4997 72.8967ZM86.4997 78.3967H85.4997V76.8967C85.4997 76.7641 85.5524 76.6369 85.6462 76.5431C85.7399 76.4494 85.8671 76.3967 85.9997 76.3967C86.1323 76.3967 86.2595 76.4494 86.3533 76.5431C86.4471 76.6369 86.4997 76.7641 86.4997 76.8967V78.3967ZM79.9997 76.7097C80.0055 77.2211 79.8781 77.7253 79.63 78.1725C79.3819 78.6198 79.0217 78.9948 78.5847 79.2607C75.0693 81.3144 71.0711 82.3966 66.9997 82.3966C62.9284 82.3966 58.9302 81.3144 55.4147 79.2607C54.9778 78.9948 54.6175 78.6198 54.3694 78.1725C54.1214 77.7253 53.9939 77.2211 53.9997 76.7097V67.9827L65.0517 72.6587C65.669 72.9186 66.332 73.0526 67.0017 73.0526C67.6715 73.0526 68.3345 72.9186 68.9517 72.6587L79.9997 67.9827V76.7097ZM88.2567 62.3177L68.1687 70.8177C67.7986 70.9731 67.4012 71.0532 66.9997 71.0532C66.5983 71.0532 66.2009 70.9731 65.8307 70.8177L45.7427 62.3177C45.5617 62.2411 45.4073 62.1129 45.2988 61.9491C45.1902 61.7853 45.1323 61.5932 45.1323 61.3967C45.1323 61.2002 45.1902 61.008 45.2988 60.8442C45.4073 60.6804 45.5617 60.5522 45.7427 60.4757L65.8307 51.9757C66.2008 51.8199 66.5982 51.7397 66.9997 51.7397C67.4012 51.7397 67.7987 51.8199 68.1687 51.9757L88.2567 60.4757C88.4377 60.5522 88.5921 60.6804 88.7007 60.8442C88.8093 61.008 88.8672 61.2002 88.8672 61.3967C88.8672 61.5932 88.8093 61.7853 88.7007 61.9491C88.5921 62.1129 88.4377 62.2411 88.2567 62.3177Z" fill="#94A4BC"/>
<path d="M89.0357 58.6337L68.9477 50.1337C68.3304 49.874 67.6674 49.7402 66.9977 49.7402C66.328 49.7402 65.665 49.874 65.0477 50.1337L44.9597 58.6337C44.4168 58.8633 43.9535 59.2479 43.6278 59.7393C43.3021 60.2307 43.1284 60.8071 43.1284 61.3967C43.1284 61.9862 43.3021 62.5627 43.6278 63.0541C43.9535 63.5455 44.4168 63.93 44.9597 64.1597L51.9997 67.1367V76.7097C51.9943 77.5693 52.2128 78.4155 52.6336 79.165C53.0544 79.9146 53.6631 80.5417 54.3997 80.9847C58.2227 83.2198 62.5713 84.3978 66.9997 84.3978C71.4281 84.3978 75.7768 83.2198 79.5997 80.9847C80.3364 80.5417 80.9451 79.9146 81.3659 79.165C81.7867 78.4155 82.0051 77.5693 81.9997 76.7097V67.1367L84.9997 65.8667V70.6087C84.598 70.7826 84.2493 71.0594 83.9888 71.4112C83.7282 71.763 83.5651 72.1773 83.5159 72.6123C83.4667 73.0473 83.5332 73.4875 83.7085 73.8886C83.8839 74.2897 84.162 74.6374 84.5147 74.8967C84.201 75.1275 83.9457 75.4286 83.7694 75.776C83.5931 76.1233 83.5008 76.5072 83.4997 76.8967V79.3967C83.4997 79.6619 83.6051 79.9163 83.7926 80.1038C83.9802 80.2913 84.2345 80.3967 84.4997 80.3967H87.4997C87.7649 80.3967 88.0193 80.2913 88.2068 80.1038C88.3944 79.9163 88.4997 79.6619 88.4997 79.3967V76.8967C88.4987 76.5072 88.4063 76.1233 88.2301 75.776C88.0538 75.4286 87.7985 75.1275 87.4847 74.8967C87.8375 74.6374 88.1155 74.2897 88.2909 73.8886C88.4663 73.4875 88.5327 73.0473 88.4835 72.6123C88.4343 72.1773 88.2712 71.763 88.0107 71.4112C87.7502 71.0594 87.4015 70.7826 86.9997 70.6087V65.0207L89.0357 64.1597C89.5787 63.93 90.042 63.5455 90.3676 63.0541C90.6933 62.5627 90.867 61.9862 90.867 61.3967C90.867 60.8071 90.6933 60.2307 90.3676 59.7393C90.042 59.2479 89.5787 58.8633 89.0357 58.6337ZM86.4997 72.8967C86.4997 72.9956 86.4704 73.0922 86.4155 73.1745C86.3605 73.2567 86.2824 73.3208 86.1911 73.3586C86.0997 73.3965 85.9992 73.4064 85.9022 73.3871C85.8052 73.3678 85.7161 73.3202 85.6462 73.2502C85.5762 73.1803 85.5286 73.0912 85.5093 72.9942C85.49 72.8972 85.4999 72.7967 85.5378 72.7053C85.5756 72.614 85.6397 72.5359 85.7219 72.4809C85.8042 72.426 85.9008 72.3967 85.9997 72.3967C86.1323 72.3967 86.2595 72.4494 86.3533 72.5431C86.4471 72.6369 86.4997 72.7641 86.4997 72.8967ZM86.4997 78.3967H85.4997V76.8967C85.4997 76.7641 85.5524 76.6369 85.6462 76.5431C85.7399 76.4494 85.8671 76.3967 85.9997 76.3967C86.1323 76.3967 86.2595 76.4494 86.3533 76.5431C86.4471 76.6369 86.4997 76.7641 86.4997 76.8967V78.3967ZM79.9997 76.7097C80.0055 77.2211 79.8781 77.7253 79.63 78.1725C79.3819 78.6198 79.0217 78.9948 78.5847 79.2607C75.0693 81.3144 71.0711 82.3966 66.9997 82.3966C62.9284 82.3966 58.9302 81.3144 55.4147 79.2607C54.9778 78.9948 54.6175 78.6198 54.3694 78.1725C54.1214 77.7253 53.9939 77.2211 53.9997 76.7097V67.9827L65.0517 72.6587C65.669 72.9186 66.332 73.0526 67.0017 73.0526C67.6715 73.0526 68.3345 72.9186 68.9517 72.6587L79.9997 67.9827V76.7097ZM88.2567 62.3177L68.1687 70.8177C67.7986 70.9731 67.4012 71.0532 66.9997 71.0532C66.5983 71.0532 66.2009 70.9731 65.8307 70.8177L45.7427 62.3177C45.5617 62.2411 45.4073 62.1129 45.2988 61.9491C45.1902 61.7853 45.1323 61.5932 45.1323 61.3967C45.1323 61.2002 45.1902 61.008 45.2988 60.8442C45.4073 60.6804 45.5617 60.5522 45.7427 60.4757L65.8307 51.9757C66.2008 51.8199 66.5982 51.7397 66.9997 51.7397C67.4012 51.7397 67.7987 51.8199 68.1687 51.9757L88.2567 60.4757C88.4377 60.5522 88.5921 60.6804 88.7007 60.8442C88.8093 61.008 88.8672 61.2002 88.8672 61.3967C88.8672 61.5932 88.8093 61.7853 88.7007 61.9491C88.5921 62.1129 88.4377 62.2411 88.2567 62.3177Z" fill="url(#paint2_linear_1930_8093)"/>
</g>
<defs>
<filter id="filter0_d_1930_8093" x="-1.52588" y="0.267578" width="137.667" height="133.447" filterUnits="userSpaceOnUse" color-interpolation-filters="sRGB">
<feFlood flood-opacity="0" result="BackgroundImageFix"/>
<feColorMatrix in="SourceAlpha" type="matrix" values="0 0 0 0 0 0 0 0 0 0 0 0 0 0 0 0 0 0 127 0" result="hardAlpha"/>
<feMorphology radius="5" operator="dilate" in="SourceAlpha" result="effect1_dropShadow_1930_8093"/>
<feOffset/>
<feGaussianBlur stdDeviation="7.5"/>
<feComposite in2="hardAlpha" operator="out"/>
<feColorMatrix type="matrix" values="0 0 0 0 0.0313726 0 0 0 0 0.509804 0 0 0 0 0.85098 0 0 0 1 0"/>
<feBlend mode="normal" in2="BackgroundImageFix" result="effect1_dropShadow_1930_8093"/>
<feBlend mode="normal" in="SourceGraphic" in2="effect1_dropShadow_1930_8093" result="shape"/>
</filter>
<filter id="filter1_d_1930_8093" x="27.105" y="39.821" width="79.7856" height="66.705" filterUnits="userSpaceOnUse" color-interpolation-filters="sRGB">
<feFlood flood-opacity="0" result="BackgroundImageFix"/>
<feColorMatrix in="SourceAlpha" type="matrix" values="0 0 0 0 0 0 0 0 0 0 0 0 0 0 0 0 0 0 127 0" result="hardAlpha"/>
<feOffset dy="6.10416"/>
<feGaussianBlur stdDeviation="8.0117"/>
<feComposite in2="hardAlpha" operator="out"/>
<feColorMatrix type="matrix" values="0 0 0 0 0.00392157 0 0 0 0 0.859765 0 0 0 0 0.976471 0 0 0 1 0"/>
<feBlend mode="normal" in2="BackgroundImageFix" result="effect1_dropShadow_1930_8093"/>
<feBlend mode="normal" in="SourceGraphic" in2="effect1_dropShadow_1930_8093" result="shape"/>
</filter>
<linearGradient id="paint0_linear_1930_8093" x1="67.3072" y1="21.793" x2="67.3072" y2="112.189" gradientUnits="userSpaceOnUse">
<stop stop-color="#07081E"/>
<stop offset="1" stop-color="#0E0E1A"/>
</linearGradient>
<linearGradient id="paint1_linear_1930_8093" x1="67.3072" y1="21.793" x2="67.3072" y2="112.189" gradientUnits="userSpaceOnUse">
<stop stop-color="#2F73DA"/>
<stop offset="1" stop-color="#00D1FF"/>
</linearGradient>
<linearGradient id="paint2_linear_1930_8093" x1="66.9977" y1="4.81739" x2="66.9977" y2="85.9332" gradientUnits="userSpaceOnUse">
<stop stop-color="#0882D9"/>
<stop offset="1" stop-color="#00ACEA"/>
</linearGradient>
</defs>
</svg>
