<svg width="135" height="135" viewBox="0 0 135 135" fill="none" xmlns="http://www.w3.org/2000/svg">
<g filter="url(#filter0_d_1930_8079)">
<ellipse cx="67.3072" cy="65.198" rx="47.3072" ry="45.198" fill="url(#paint0_linear_1930_8079)"/>
</g>
<g filter="url(#filter1_d_1930_8079)">
<path d="M89.0357 56.2372L68.9477 47.7372C68.3304 47.4775 67.6674 47.3438 66.9977 47.3438C66.328 47.3438 65.665 47.4775 65.0477 47.7372L44.9597 56.2372C44.4168 56.4669 43.9535 56.8514 43.6278 57.3428C43.3021 57.8342 43.1284 58.4107 43.1284 59.0002C43.1284 59.5897 43.3021 60.1662 43.6278 60.6576C43.9535 61.149 44.4168 61.5335 44.9597 61.7632L51.9997 64.7402V74.3132C51.9943 75.1728 52.2128 76.019 52.6336 76.7685C53.0544 77.5181 53.6631 78.1452 54.3997 78.5882C58.2227 80.8233 62.5713 82.0013 66.9997 82.0013C71.4281 82.0013 75.7768 80.8233 79.5997 78.5882C80.3364 78.1452 80.9451 77.5181 81.3659 76.7685C81.7867 76.019 82.0051 75.1728 81.9997 74.3132V64.7402L84.9997 63.4702V68.2122C84.598 68.3861 84.2493 68.6629 83.9888 69.0147C83.7282 69.3665 83.5651 69.7808 83.5159 70.2158C83.4667 70.6508 83.5332 71.091 83.7085 71.4921C83.8839 71.8932 84.162 72.241 84.5147 72.5002C84.201 72.731 83.9457 73.0322 83.7694 73.3795C83.5931 73.7268 83.5008 74.1107 83.4997 74.5002V77.0002C83.4997 77.2654 83.6051 77.5198 83.7926 77.7073C83.9802 77.8948 84.2345 78.0002 84.4997 78.0002H87.4997C87.7649 78.0002 88.0193 77.8948 88.2068 77.7073C88.3944 77.5198 88.4997 77.2654 88.4997 77.0002V74.5002C88.4987 74.1107 88.4063 73.7268 88.2301 73.3795C88.0538 73.0322 87.7985 72.731 87.4847 72.5002C87.8375 72.241 88.1155 71.8932 88.2909 71.4921C88.4663 71.091 88.5327 70.6508 88.4835 70.2158C88.4343 69.7808 88.2712 69.3665 88.0107 69.0147C87.7502 68.6629 87.4015 68.3861 86.9997 68.2122V62.6242L89.0357 61.7632C89.5787 61.5335 90.042 61.149 90.3676 60.6576C90.6933 60.1662 90.867 59.5897 90.867 59.0002C90.867 58.4107 90.6933 57.8342 90.3676 57.3428C90.042 56.8514 89.5787 56.4669 89.0357 56.2372ZM86.4997 70.5002C86.4997 70.5991 86.4704 70.6958 86.4155 70.778C86.3605 70.8602 86.2824 70.9243 86.1911 70.9621C86.0997 71 85.9992 71.0099 85.9022 70.9906C85.8052 70.9713 85.7161 70.9237 85.6462 70.8538C85.5762 70.7838 85.5286 70.6947 85.5093 70.5977C85.49 70.5008 85.4999 70.4002 85.5378 70.3089C85.5756 70.2175 85.6397 70.1394 85.7219 70.0845C85.8042 70.0295 85.9008 70.0002 85.9997 70.0002C86.1323 70.0002 86.2595 70.0529 86.3533 70.1466C86.4471 70.2404 86.4997 70.3676 86.4997 70.5002ZM86.4997 76.0002H85.4997V74.5002C85.4997 74.3676 85.5524 74.2404 85.6462 74.1466C85.7399 74.0529 85.8671 74.0002 85.9997 74.0002C86.1323 74.0002 86.2595 74.0529 86.3533 74.1466C86.4471 74.2404 86.4997 74.3676 86.4997 74.5002V76.0002ZM79.9997 74.3132C80.0055 74.8246 79.8781 75.3288 79.63 75.7761C79.3819 76.2233 79.0217 76.5983 78.5847 76.8642C75.0693 78.9179 71.0711 80.0001 66.9997 80.0001C62.9284 80.0001 58.9302 78.9179 55.4147 76.8642C54.9778 76.5983 54.6175 76.2233 54.3694 75.7761C54.1214 75.3288 53.9939 74.8246 53.9997 74.3132V65.5862L65.0517 70.2622C65.669 70.5222 66.332 70.6561 67.0017 70.6561C67.6715 70.6561 68.3345 70.5222 68.9517 70.2622L79.9997 65.5862V74.3132ZM88.2567 59.9212L68.1687 68.4212C67.7986 68.5766 67.4012 68.6567 66.9997 68.6567C66.5983 68.6567 66.2009 68.5766 65.8307 68.4212L45.7427 59.9212C45.5617 59.8446 45.4073 59.7165 45.2988 59.5527C45.1902 59.3889 45.1323 59.1967 45.1323 59.0002C45.1323 58.8037 45.1902 58.6115 45.2988 58.4477C45.4073 58.2839 45.5617 58.1558 45.7427 58.0792L65.8307 49.5792C66.2008 49.4234 66.5982 49.3432 66.9997 49.3432C67.4012 49.3432 67.7987 49.4234 68.1687 49.5792L88.2567 58.0792C88.4377 58.1558 88.5921 58.2839 88.7007 58.4477C88.8093 58.6115 88.8672 58.8037 88.8672 59.0002C88.8672 59.1967 88.8093 59.3889 88.7007 59.5527C88.5921 59.7165 88.4377 59.8446 88.2567 59.9212Z" fill="#94A4BC"/>
</g>
<defs>
<filter id="filter0_d_1930_8079" x="0" y="0" width="134.614" height="130.396" filterUnits="userSpaceOnUse" color-interpolation-filters="sRGB">
<feFlood flood-opacity="0" result="BackgroundImageFix"/>
<feColorMatrix in="SourceAlpha" type="matrix" values="0 0 0 0 0 0 0 0 0 0 0 0 0 0 0 0 0 0 127 0" result="hardAlpha"/>
<feMorphology radius="5" operator="dilate" in="SourceAlpha" result="effect1_dropShadow_1930_8079"/>
<feOffset/>
<feGaussianBlur stdDeviation="7.5"/>
<feComposite in2="hardAlpha" operator="out"/>
<feColorMatrix type="matrix" values="0 0 0 0 0.0313726 0 0 0 0 0.509804 0 0 0 0 0.85098 0 0 0 1 0"/>
<feBlend mode="normal" in2="BackgroundImageFix" result="effect1_dropShadow_1930_8079"/>
<feBlend mode="normal" in="SourceGraphic" in2="effect1_dropShadow_1930_8079" result="shape"/>
</filter>
<filter id="filter1_d_1930_8079" x="27.105" y="37.4245" width="79.7856" height="66.705" filterUnits="userSpaceOnUse" color-interpolation-filters="sRGB">
<feFlood flood-opacity="0" result="BackgroundImageFix"/>
<feColorMatrix in="SourceAlpha" type="matrix" values="0 0 0 0 0 0 0 0 0 0 0 0 0 0 0 0 0 0 127 0" result="hardAlpha"/>
<feOffset dy="6.10416"/>
<feGaussianBlur stdDeviation="8.0117"/>
<feComposite in2="hardAlpha" operator="out"/>
<feColorMatrix type="matrix" values="0 0 0 0 0.00392157 0 0 0 0 0.859765 0 0 0 0 0.976471 0 0 0 1 0"/>
<feBlend mode="normal" in2="BackgroundImageFix" result="effect1_dropShadow_1930_8079"/>
<feBlend mode="normal" in="SourceGraphic" in2="effect1_dropShadow_1930_8079" result="shape"/>
</filter>
<linearGradient id="paint0_linear_1930_8079" x1="67.3072" y1="20" x2="67.3072" y2="110.396" gradientUnits="userSpaceOnUse">
<stop stop-color="#07081E"/>
<stop offset="1" stop-color="#0E0E1A"/>
</linearGradient>
</defs>
</svg>
