<svg width="135" height="135" viewBox="0 0 135 135" fill="none" xmlns="http://www.w3.org/2000/svg">
<g filter="url(#filter0_d_1930_8249)">
<ellipse cx="67.3072" cy="67.5944" rx="47.3072" ry="45.198" fill="url(#paint0_linear_1930_8249)"/>
<path d="M67.3072 113.555C93.8225 113.555 115.377 93.0104 115.377 67.5944C115.377 42.1785 93.8225 21.6335 67.3072 21.6335C40.7919 21.6335 19.237 42.1785 19.237 67.5944C19.237 93.0104 40.7919 113.555 67.3072 113.555Z" stroke="url(#paint1_linear_1930_8249)" stroke-width="1.52604"/>
</g>
<g filter="url(#filter1_d_1930_8249)">
<path d="M89.0357 59.2372L68.9477 50.7372C68.3304 50.4775 67.6674 50.3438 66.9977 50.3438C66.328 50.3438 65.665 50.4775 65.0477 50.7372L44.9597 59.2372C44.4168 59.4669 43.9535 59.8514 43.6278 60.3428C43.3021 60.8342 43.1284 61.4107 43.1284 62.0002C43.1284 62.5897 43.3021 63.1662 43.6278 63.6576C43.9535 64.149 44.4168 64.5335 44.9597 64.7632L51.9997 67.7402V77.3132C51.9943 78.1728 52.2128 79.019 52.6336 79.7685C53.0544 80.5181 53.6631 81.1452 54.3997 81.5882C58.2227 83.8233 62.5713 85.0013 66.9997 85.0013C71.4281 85.0013 75.7768 83.8233 79.5997 81.5882C80.3364 81.1452 80.9451 80.5181 81.3659 79.7685C81.7867 79.019 82.0051 78.1728 81.9997 77.3132V67.7402L84.9997 66.4702V71.2122C84.598 71.3861 84.2493 71.6629 83.9888 72.0147C83.7282 72.3665 83.5651 72.7808 83.5159 73.2158C83.4667 73.6508 83.5332 74.091 83.7085 74.4921C83.8839 74.8932 84.162 75.241 84.5147 75.5002C84.201 75.731 83.9457 76.0322 83.7694 76.3795C83.5931 76.7268 83.5008 77.1107 83.4997 77.5002V80.0002C83.4997 80.2654 83.6051 80.5198 83.7926 80.7073C83.9802 80.8948 84.2345 81.0002 84.4997 81.0002H87.4997C87.7649 81.0002 88.0193 80.8948 88.2068 80.7073C88.3944 80.5198 88.4997 80.2654 88.4997 80.0002V77.5002C88.4987 77.1107 88.4063 76.7268 88.2301 76.3795C88.0538 76.0322 87.7985 75.731 87.4847 75.5002C87.8375 75.241 88.1155 74.8932 88.2909 74.4921C88.4663 74.091 88.5327 73.6508 88.4835 73.2158C88.4343 72.7808 88.2712 72.3665 88.0107 72.0147C87.7502 71.6629 87.4015 71.3861 86.9997 71.2122V65.6242L89.0357 64.7632C89.5787 64.5335 90.042 64.149 90.3676 63.6576C90.6933 63.1662 90.867 62.5897 90.867 62.0002C90.867 61.4107 90.6933 60.8342 90.3676 60.3428C90.042 59.8514 89.5787 59.4669 89.0357 59.2372ZM86.4997 73.5002C86.4997 73.5991 86.4704 73.6958 86.4155 73.778C86.3605 73.8602 86.2824 73.9243 86.1911 73.9621C86.0997 74 85.9992 74.0099 85.9022 73.9906C85.8052 73.9713 85.7161 73.9237 85.6462 73.8538C85.5762 73.7838 85.5286 73.6947 85.5093 73.5977C85.49 73.5008 85.4999 73.4002 85.5378 73.3089C85.5756 73.2175 85.6397 73.1394 85.7219 73.0845C85.8042 73.0295 85.9008 73.0002 85.9997 73.0002C86.1323 73.0002 86.2595 73.0529 86.3533 73.1466C86.4471 73.2404 86.4997 73.3676 86.4997 73.5002ZM86.4997 79.0002H85.4997V77.5002C85.4997 77.3676 85.5524 77.2404 85.6462 77.1466C85.7399 77.0529 85.8671 77.0002 85.9997 77.0002C86.1323 77.0002 86.2595 77.0529 86.3533 77.1466C86.4471 77.2404 86.4997 77.3676 86.4997 77.5002V79.0002ZM79.9997 77.3132C80.0055 77.8246 79.8781 78.3288 79.63 78.7761C79.3819 79.2233 79.0217 79.5983 78.5847 79.8642C75.0693 81.9179 71.0711 83.0001 66.9997 83.0001C62.9284 83.0001 58.9302 81.9179 55.4147 79.8642C54.9778 79.5983 54.6175 79.2233 54.3694 78.7761C54.1214 78.3288 53.9939 77.8246 53.9997 77.3132V68.5862L65.0517 73.2622C65.669 73.5222 66.332 73.6561 67.0017 73.6561C67.6715 73.6561 68.3345 73.5222 68.9517 73.2622L79.9997 68.5862V77.3132ZM88.2567 62.9212L68.1687 71.4212C67.7986 71.5766 67.4012 71.6567 66.9997 71.6567C66.5983 71.6567 66.2009 71.5766 65.8307 71.4212L45.7427 62.9212C45.5617 62.8446 45.4073 62.7165 45.2988 62.5527C45.1902 62.3889 45.1323 62.1967 45.1323 62.0002C45.1323 61.8037 45.1902 61.6115 45.2988 61.4477C45.4073 61.2839 45.5617 61.1558 45.7427 61.0792L65.8307 52.5792C66.2008 52.4234 66.5982 52.3432 66.9997 52.3432C67.4012 52.3432 67.7987 52.4234 68.1687 52.5792L88.2567 61.0792C88.4377 61.1558 88.5921 61.2839 88.7007 61.4477C88.8093 61.6115 88.8672 61.8037 88.8672 62.0002C88.8672 62.1967 88.8093 62.3889 88.7007 62.5527C88.5921 62.7165 88.4377 62.8446 88.2567 62.9212Z" fill="#94A4BC"/>
</g>
<defs>
<filter id="filter0_d_1930_8249" x="-1.52588" y="0.871094" width="137.667" height="133.447" filterUnits="userSpaceOnUse" color-interpolation-filters="sRGB">
<feFlood flood-opacity="0" result="BackgroundImageFix"/>
<feColorMatrix in="SourceAlpha" type="matrix" values="0 0 0 0 0 0 0 0 0 0 0 0 0 0 0 0 0 0 127 0" result="hardAlpha"/>
<feMorphology radius="5" operator="dilate" in="SourceAlpha" result="effect1_dropShadow_1930_8249"/>
<feOffset/>
<feGaussianBlur stdDeviation="7.5"/>
<feComposite in2="hardAlpha" operator="out"/>
<feColorMatrix type="matrix" values="0 0 0 0 0.0313726 0 0 0 0 0.509804 0 0 0 0 0.85098 0 0 0 1 0"/>
<feBlend mode="normal" in2="BackgroundImageFix" result="effect1_dropShadow_1930_8249"/>
<feBlend mode="normal" in="SourceGraphic" in2="effect1_dropShadow_1930_8249" result="shape"/>
</filter>
<filter id="filter1_d_1930_8249" x="27.105" y="40.4245" width="79.7856" height="66.705" filterUnits="userSpaceOnUse" color-interpolation-filters="sRGB">
<feFlood flood-opacity="0" result="BackgroundImageFix"/>
<feColorMatrix in="SourceAlpha" type="matrix" values="0 0 0 0 0 0 0 0 0 0 0 0 0 0 0 0 0 0 127 0" result="hardAlpha"/>
<feOffset dy="6.10416"/>
<feGaussianBlur stdDeviation="8.0117"/>
<feComposite in2="hardAlpha" operator="out"/>
<feColorMatrix type="matrix" values="0 0 0 0 0.00392157 0 0 0 0 0.859765 0 0 0 0 0.976471 0 0 0 1 0"/>
<feBlend mode="normal" in2="BackgroundImageFix" result="effect1_dropShadow_1930_8249"/>
<feBlend mode="normal" in="SourceGraphic" in2="effect1_dropShadow_1930_8249" result="shape"/>
</filter>
<linearGradient id="paint0_linear_1930_8249" x1="67.3072" y1="22.3965" x2="67.3072" y2="112.792" gradientUnits="userSpaceOnUse">
<stop stop-color="#07081E"/>
<stop offset="1" stop-color="#0E0E1A"/>
</linearGradient>
<linearGradient id="paint1_linear_1930_8249" x1="67.3072" y1="22.3965" x2="67.3072" y2="112.792" gradientUnits="userSpaceOnUse">
<stop stop-color="#2F73DA"/>
<stop offset="1" stop-color="#00D1FF"/>
</linearGradient>
</defs>
</svg>
