<svg width="187" height="94" viewBox="0 0 187 94" fill="none" xmlns="http://www.w3.org/2000/svg">
<path d="M0.874984 0.499992C0.874981 12.6637 3.27079 24.7083 7.92563 35.946C12.5805 47.1838 19.4032 57.3947 28.0042 65.9958C36.6052 74.5968 46.8161 81.4195 58.0539 86.0743C69.2917 90.7292 81.3363 93.125 93.5 93.125C105.664 93.125 117.708 90.7292 128.946 86.0744C140.184 81.4195 150.395 74.5968 158.996 65.9958C167.597 57.3948 174.419 47.1839 179.074 35.9461C183.729 24.7083 186.125 12.6637 186.125 0.500032L167.6 0.500029C167.6 10.231 165.683 19.8666 161.959 28.8569C158.236 37.8471 152.777 46.0158 145.897 52.8966C139.016 59.7775 130.847 65.2356 121.857 68.9595C112.867 72.6834 103.231 74.6 93.5 74.6C83.769 74.6 74.1334 72.6834 65.1431 68.9595C56.1529 65.2356 47.9842 59.7774 41.1034 52.8966C34.2225 46.0158 28.7644 37.8471 25.0405 28.8568C21.3166 19.8666 19.4 10.2309 19.4 0.499997L0.874984 0.499992Z" fill="url(#paint0_linear_2402_1248)"/>
<defs>
<linearGradient id="paint0_linear_2402_1248" x1="179.332" y1="36.315" x2="9.51998" y2="18.4075" gradientUnits="userSpaceOnUse">
<stop stop-color="#0882D9"/>
<stop offset="1" stop-color="#00ACEA"/>
</linearGradient>
</defs>
</svg>
