<svg width="187" height="94" viewBox="0 0 187 94" fill="none" xmlns="http://www.w3.org/2000/svg">
<path d="M186.125 93.5C186.125 81.3363 183.729 69.2917 179.074 58.0539C174.419 46.8162 167.597 36.6053 158.996 28.0042C150.395 19.4032 140.184 12.5805 128.946 7.92566C117.708 3.27082 105.664 0.874999 93.5 0.875C81.3363 0.875001 69.2917 3.27082 58.0539 7.92566C46.8162 12.5805 36.6053 19.4032 28.0042 28.0042C19.4032 36.6053 12.5805 46.8162 7.92566 58.054C3.27081 69.2917 0.874999 81.3363 0.875 93.5L19.4 93.5C19.4 83.7691 21.3167 74.1334 25.0405 65.1432C28.7644 56.1529 34.2226 47.9842 41.1034 41.1034C47.9842 34.2226 56.1529 28.7644 65.1432 25.0405C74.1334 21.3167 83.769 19.4 93.5 19.4C103.231 19.4 112.867 21.3167 121.857 25.0405C130.847 28.7644 139.016 34.2226 145.897 41.1034C152.777 47.9842 158.236 56.1529 161.959 65.1432C165.683 74.1334 167.6 83.769 167.6 93.5H186.125Z" fill="url(#paint0_linear_2402_4940)"/>
<defs>
<linearGradient id="paint0_linear_2402_4940" x1="186.125" y1="93.5" x2="10.1375" y2="85.4725" gradientUnits="userSpaceOnUse">
<stop stop-color="#011BA3"/>
<stop offset="1" stop-color="#64D6FF"/>
</linearGradient>
</defs>
</svg>
