<svg width="103" height="99" viewBox="0 0 103 99" fill="none" xmlns="http://www.w3.org/2000/svg">
<g filter="url(#filter0_dd_1618_4325)">
<ellipse cx="51.6699" cy="50.5" rx="39.25" ry="37.5" fill="url(#paint0_linear_1618_4325)"/>
<path d="M51.6699 89C73.8559 89 91.9199 71.8054 91.9199 50.5C91.9199 29.1945 73.8559 12 51.6699 12C29.4839 12 11.4199 29.1945 11.4199 50.5C11.4199 71.8054 29.4839 89 51.6699 89Z" stroke="url(#paint1_linear_1618_4325)" stroke-width="2"/>
</g>
<path d="M81.0929 50C81.0929 65.0816 68.2627 77.5 52.193 77.5C36.1233 77.5 23.293 65.0816 23.293 50C23.293 34.9184 36.1233 22.5 52.193 22.5C68.2627 22.5 81.0929 34.9184 81.0929 50Z" fill="url(#paint2_linear_1618_4325)" stroke="url(#paint3_linear_1618_4325)" stroke-width="5"/>
<g clip-path="url(#clip0_1618_4325)">
<g filter="url(#filter1_d_1618_4325)">
<path d="M69.5984 48.9354C69.5646 48.9621 69.5281 48.9862 69.4975 49.016C68.2324 50.2533 66.9679 51.4911 65.7032 52.7287C65.6613 52.7697 65.6183 52.8093 65.5869 52.839C64.2433 51.5239 62.906 50.2151 61.583 48.9201C62.9032 47.6281 64.2399 46.32 65.5886 45C65.6029 45.0122 65.6408 45.0412 65.6746 45.0742C66.9707 46.3432 68.2663 47.6125 69.5624 48.8815C69.5726 48.8915 69.5865 48.898 69.5986 48.9061C69.5984 48.9158 69.5984 48.9256 69.5984 48.9354Z" fill="black"/>
</g>
<g filter="url(#filter2_d_1618_4325)">
<path d="M44.7219 46.0735C43.3751 44.7555 42.04 43.4489 40.7021 42.1397C40.7474 42.0605 51.5027 31.5174 51.6622 31.3984C55.3242 34.9821 58.9845 38.5643 62.6483 42.1497C62.6033 42.229 58.8374 45.9317 58.6399 46.0813C56.3249 43.8155 54.0081 41.5481 51.6771 39.2667C49.3485 41.5456 47.0319 43.8128 44.7219 46.0735Z" fill="black"/>
</g>
<g filter="url(#filter3_d_1618_4325)">
<path d="M44.7075 51.738C47.0321 54.013 49.3459 56.2776 51.6705 58.5526C51.9466 58.3064 52.1946 58.048 52.4517 57.7992C52.7104 57.5488 52.9665 57.296 53.2238 57.0442C53.481 56.7925 53.7382 56.5407 53.9955 56.2889C54.2527 56.0372 54.51 55.7854 54.7672 55.5336C55.028 55.2785 55.2887 55.0232 55.5495 54.7681C55.8068 54.5163 56.064 54.2645 56.3213 54.0128C56.5785 53.761 56.8358 53.5092 57.093 53.2575C57.3502 53.0057 57.6075 52.7539 57.8647 52.5022C58.1215 52.2509 58.3784 51.9997 58.6494 51.7344C59.9966 53.0512 61.3347 54.3593 62.6603 55.6548C58.9902 59.2467 55.3276 62.831 51.6791 66.4017C48.032 62.8322 44.3694 59.2475 40.6963 55.6525C42.0183 54.3622 43.3575 53.0553 44.7075 51.738Z" fill="black"/>
</g>
<g filter="url(#filter4_d_1618_4325)">
<path d="M51.6787 52.8782C50.3302 51.5583 48.9717 50.2289 47.624 48.91C48.9708 47.5919 50.329 46.2626 51.675 44.9453L55.7296 48.9136C54.3823 50.2322 53.024 51.5617 51.6787 52.8782Z" fill="black"/>
</g>
<g filter="url(#filter5_d_1618_4325)">
<path d="M33.7959 48.9012L37.782 45L41.7723 48.9054C40.449 50.2008 39.1117 51.51 37.7867 52.807C36.4692 51.5176 35.1317 50.2086 33.7959 48.9012Z" fill="black"/>
</g>
<g filter="url(#filter6_d_1618_4325)">
<path d="M62.8745 70.5992H40.4642C40.0692 70.5992 39.749 70.2859 39.749 69.8992C39.749 69.5126 40.0692 69.1992 40.4642 69.1992H62.8745C63.2696 69.1992 63.5898 69.5126 63.5898 69.8992C63.5898 70.2859 63.2696 70.5992 62.8745 70.5992Z" fill="black"/>
</g>
</g>
<defs>
<filter id="filter0_dd_1618_4325" x="0.419922" y="0" width="102.5" height="99" filterUnits="userSpaceOnUse" color-interpolation-filters="sRGB">
<feFlood flood-opacity="0" result="BackgroundImageFix"/>
<feColorMatrix in="SourceAlpha" type="matrix" values="0 0 0 0 0 0 0 0 0 0 0 0 0 0 0 0 0 0 127 0" result="hardAlpha"/>
<feMorphology radius="2" operator="dilate" in="SourceAlpha" result="effect1_dropShadow_1618_4325"/>
<feOffset dx="1" dy="1"/>
<feGaussianBlur stdDeviation="2"/>
<feComposite in2="hardAlpha" operator="out"/>
<feColorMatrix type="matrix" values="0 0 0 0 0 0 0 0 0 0.34 0 0 0 0 1 0 0 0 0.25 0"/>
<feBlend mode="normal" in2="BackgroundImageFix" result="effect1_dropShadow_1618_4325"/>
<feColorMatrix in="SourceAlpha" type="matrix" values="0 0 0 0 0 0 0 0 0 0 0 0 0 0 0 0 0 0 127 0" result="hardAlpha"/>
<feMorphology radius="4" operator="dilate" in="SourceAlpha" result="effect2_dropShadow_1618_4325"/>
<feOffset dy="-1"/>
<feGaussianBlur stdDeviation="3"/>
<feComposite in2="hardAlpha" operator="out"/>
<feColorMatrix type="matrix" values="0 0 0 0 0 0 0 0 0 0.82 0 0 0 0 1 0 0 0 0.45 0"/>
<feBlend mode="normal" in2="effect1_dropShadow_1618_4325" result="effect2_dropShadow_1618_4325"/>
<feBlend mode="normal" in="SourceGraphic" in2="effect2_dropShadow_1618_4325" result="shape"/>
</filter>
<filter id="filter1_d_1618_4325" x="57.583" y="45" width="16.0156" height="15.8398" filterUnits="userSpaceOnUse" color-interpolation-filters="sRGB">
<feFlood flood-opacity="0" result="BackgroundImageFix"/>
<feColorMatrix in="SourceAlpha" type="matrix" values="0 0 0 0 0 0 0 0 0 0 0 0 0 0 0 0 0 0 127 0" result="hardAlpha"/>
<feOffset dy="4"/>
<feGaussianBlur stdDeviation="2"/>
<feComposite in2="hardAlpha" operator="out"/>
<feColorMatrix type="matrix" values="0 0 0 0 0.00392157 0 0 0 0 0.859765 0 0 0 0 0.976471 0 0 0 0.8 0"/>
<feBlend mode="normal" in2="BackgroundImageFix" result="effect1_dropShadow_1618_4325"/>
<feBlend mode="normal" in="SourceGraphic" in2="effect1_dropShadow_1618_4325" result="shape"/>
</filter>
<filter id="filter2_d_1618_4325" x="36.7021" y="31.3984" width="29.9463" height="22.6836" filterUnits="userSpaceOnUse" color-interpolation-filters="sRGB">
<feFlood flood-opacity="0" result="BackgroundImageFix"/>
<feColorMatrix in="SourceAlpha" type="matrix" values="0 0 0 0 0 0 0 0 0 0 0 0 0 0 0 0 0 0 127 0" result="hardAlpha"/>
<feOffset dy="4"/>
<feGaussianBlur stdDeviation="2"/>
<feComposite in2="hardAlpha" operator="out"/>
<feColorMatrix type="matrix" values="0 0 0 0 0.00392157 0 0 0 0 0.859765 0 0 0 0 0.976471 0 0 0 0.8 0"/>
<feBlend mode="normal" in2="BackgroundImageFix" result="effect1_dropShadow_1618_4325"/>
<feBlend mode="normal" in="SourceGraphic" in2="effect1_dropShadow_1618_4325" result="shape"/>
</filter>
<filter id="filter3_d_1618_4325" x="36.6963" y="51.7344" width="29.9639" height="22.668" filterUnits="userSpaceOnUse" color-interpolation-filters="sRGB">
<feFlood flood-opacity="0" result="BackgroundImageFix"/>
<feColorMatrix in="SourceAlpha" type="matrix" values="0 0 0 0 0 0 0 0 0 0 0 0 0 0 0 0 0 0 127 0" result="hardAlpha"/>
<feOffset dy="4"/>
<feGaussianBlur stdDeviation="2"/>
<feComposite in2="hardAlpha" operator="out"/>
<feColorMatrix type="matrix" values="0 0 0 0 0.00392157 0 0 0 0 0.859765 0 0 0 0 0.976471 0 0 0 0.8 0"/>
<feBlend mode="normal" in2="BackgroundImageFix" result="effect1_dropShadow_1618_4325"/>
<feBlend mode="normal" in="SourceGraphic" in2="effect1_dropShadow_1618_4325" result="shape"/>
</filter>
<filter id="filter4_d_1618_4325" x="43.624" y="44.9453" width="16.1055" height="15.9336" filterUnits="userSpaceOnUse" color-interpolation-filters="sRGB">
<feFlood flood-opacity="0" result="BackgroundImageFix"/>
<feColorMatrix in="SourceAlpha" type="matrix" values="0 0 0 0 0 0 0 0 0 0 0 0 0 0 0 0 0 0 127 0" result="hardAlpha"/>
<feOffset dy="4"/>
<feGaussianBlur stdDeviation="2"/>
<feComposite in2="hardAlpha" operator="out"/>
<feColorMatrix type="matrix" values="0 0 0 0 0.00392157 0 0 0 0 0.859765 0 0 0 0 0.976471 0 0 0 0.8 0"/>
<feBlend mode="normal" in2="BackgroundImageFix" result="effect1_dropShadow_1618_4325"/>
<feBlend mode="normal" in="SourceGraphic" in2="effect1_dropShadow_1618_4325" result="shape"/>
</filter>
<filter id="filter5_d_1618_4325" x="29.7959" y="45" width="15.9766" height="15.8066" filterUnits="userSpaceOnUse" color-interpolation-filters="sRGB">
<feFlood flood-opacity="0" result="BackgroundImageFix"/>
<feColorMatrix in="SourceAlpha" type="matrix" values="0 0 0 0 0 0 0 0 0 0 0 0 0 0 0 0 0 0 127 0" result="hardAlpha"/>
<feOffset dy="4"/>
<feGaussianBlur stdDeviation="2"/>
<feComposite in2="hardAlpha" operator="out"/>
<feColorMatrix type="matrix" values="0 0 0 0 0.00392157 0 0 0 0 0.859765 0 0 0 0 0.976471 0 0 0 0.8 0"/>
<feBlend mode="normal" in2="BackgroundImageFix" result="effect1_dropShadow_1618_4325"/>
<feBlend mode="normal" in="SourceGraphic" in2="effect1_dropShadow_1618_4325" result="shape"/>
</filter>
<filter id="filter6_d_1618_4325" x="35.749" y="69.1992" width="31.8408" height="9.40039" filterUnits="userSpaceOnUse" color-interpolation-filters="sRGB">
<feFlood flood-opacity="0" result="BackgroundImageFix"/>
<feColorMatrix in="SourceAlpha" type="matrix" values="0 0 0 0 0 0 0 0 0 0 0 0 0 0 0 0 0 0 127 0" result="hardAlpha"/>
<feOffset dy="4"/>
<feGaussianBlur stdDeviation="2"/>
<feComposite in2="hardAlpha" operator="out"/>
<feColorMatrix type="matrix" values="0 0 0 0 0.00392157 0 0 0 0 0.859765 0 0 0 0 0.976471 0 0 0 0.8 0"/>
<feBlend mode="normal" in2="BackgroundImageFix" result="effect1_dropShadow_1618_4325"/>
<feBlend mode="normal" in="SourceGraphic" in2="effect1_dropShadow_1618_4325" result="shape"/>
</filter>
<linearGradient id="paint0_linear_1618_4325" x1="51.6699" y1="13" x2="51.6699" y2="88" gradientUnits="userSpaceOnUse">
<stop stop-color="#151749"/>
<stop offset="1" stop-color="#0E0E1A"/>
</linearGradient>
<linearGradient id="paint1_linear_1618_4325" x1="51.6699" y1="13" x2="51.6699" y2="88" gradientUnits="userSpaceOnUse">
<stop stop-color="#2F73DA"/>
<stop offset="1" stop-color="#00D1FF"/>
</linearGradient>
<linearGradient id="paint2_linear_1618_4325" x1="52.193" y1="20" x2="52.193" y2="80" gradientUnits="userSpaceOnUse">
<stop stop-color="#01032E"/>
<stop offset="1" stop-color="#093C61"/>
</linearGradient>
<linearGradient id="paint3_linear_1618_4325" x1="52.193" y1="20" x2="52.193" y2="80" gradientUnits="userSpaceOnUse">
<stop stop-color="#030029"/>
<stop offset="1" stop-color="#002177"/>
</linearGradient>
<clipPath id="clip0_1618_4325">
<rect width="42.9133" height="42" fill="white" transform="translate(30.2129 30)"/>
</clipPath>
</defs>
</svg>
