<svg width="103" height="99" viewBox="0 0 103 99" fill="none" xmlns="http://www.w3.org/2000/svg">
<g filter="url(#filter0_dd_1618_4327)">
<ellipse cx="51.6699" cy="50.5" rx="39.25" ry="37.5" fill="url(#paint0_linear_1618_4327)"/>
<path d="M51.6699 89C73.8559 89 91.9199 71.8054 91.9199 50.5C91.9199 29.1945 73.8559 12 51.6699 12C29.4839 12 11.4199 29.1945 11.4199 50.5C11.4199 71.8054 29.4839 89 51.6699 89Z" stroke="url(#paint1_linear_1618_4327)" stroke-width="2"/>
</g>
<path d="M81.0929 50C81.0929 65.0816 68.2627 77.5 52.193 77.5C36.1233 77.5 23.293 65.0816 23.293 50C23.293 34.9184 36.1233 22.5 52.193 22.5C68.2627 22.5 81.0929 34.9184 81.0929 50Z" fill="url(#paint2_linear_1618_4327)" stroke="url(#paint3_linear_1618_4327)" stroke-width="5"/>
<g filter="url(#filter1_d_1618_4327)">
<path d="M52 33.5C42.3351 33.5 34.5 41.3351 34.5 51C34.5 60.6649 42.3351 68.5 52 68.5C61.6649 68.5 69.5 60.6649 69.5 51C69.5 41.3351 61.6649 33.5 52 33.5ZM63.8466 58.8205L58.5013 61.9229C57.9733 62.1874 57.3793 62.1874 56.9166 61.9229L51.5712 58.8205C51.0433 58.4909 50.7789 57.963 50.7789 57.4351V55.2573L53.2872 53.8048V55.9165C53.2872 56.5105 53.6168 57.0384 54.0785 57.3028L56.9165 58.9527C57.4453 59.2172 58.0384 59.2172 58.5011 58.9527L61.2729 57.3028C61.8008 56.9732 62.0643 56.4453 62.0643 55.9165V52.6168C62.0643 52.0227 61.7347 51.4948 61.2729 51.2314L58.435 49.5805C57.9071 49.3171 57.313 49.3171 56.8512 49.5805L53.2209 51.6931L50.7126 53.1447L47.0833 55.2573C46.5545 55.5207 45.9613 55.5207 45.4986 55.2573L40.1534 52.155C39.6255 51.8254 39.361 51.2966 39.361 50.7686V44.5649C39.361 44.037 39.6255 43.5091 40.1534 43.2446L45.5648 40.0771C46.0927 39.8126 46.6868 39.8126 47.1485 40.0771L52.4286 43.1795C52.9565 43.5091 53.221 44.037 53.221 44.5649V46.8087L50.7127 48.2612V46.0834C50.7127 45.4894 50.3831 44.9614 49.9213 44.6971L47.0834 42.9811C46.5546 42.7167 45.9615 42.7167 45.4988 42.9811L42.6608 44.6309C42.1329 44.9614 41.8695 45.4894 41.8695 46.0173V49.317C41.8695 49.911 42.1991 50.439 42.6608 50.7033L45.4988 52.4192C46.0267 52.6827 46.6207 52.6827 47.0834 52.4192L50.7127 50.2405L53.221 48.8551L56.9165 46.6773C57.4453 46.4128 58.0384 46.4128 58.5011 46.6773L63.8464 49.7786C64.3744 50.1091 64.6389 50.6371 64.6389 51.165V57.4349C64.6389 58.0292 64.3093 58.5571 63.8466 58.8205V58.8205Z" fill="black"/>
</g>
<g filter="url(#filter2_d_1618_4327)">
<path d="M52.7017 71.4039C52.3888 71.4039 52.13 71.156 52.119 70.8409C52.1078 70.5189 52.3597 70.2489 52.6817 70.2376C53.1281 70.2221 53.5789 70.1908 54.0219 70.1446C54.3425 70.1102 54.6291 70.3439 54.6625 70.6642C54.696 70.9847 54.4632 71.2715 54.1428 71.3049C53.6734 71.3539 53.1954 71.387 52.7222 71.4036C52.7154 71.4038 52.7084 71.4039 52.7017 71.4039V71.4039ZM49.9379 71.3101C49.9179 71.3101 49.8977 71.3091 49.8773 71.3071C49.407 71.2584 48.9323 71.1926 48.4664 71.1114C48.1491 71.0561 47.9365 70.7541 47.9919 70.4366C48.0472 70.1193 48.3498 69.9071 48.6667 69.9621C49.1061 70.0387 49.5538 70.1007 49.9972 70.1466C50.3177 70.1797 50.5506 70.4664 50.5174 70.7867C50.4865 71.0868 50.2331 71.3101 49.9379 71.3101V71.3101ZM56.8063 70.8297C56.5448 70.8297 56.3069 70.6525 56.2407 70.3872C56.1628 70.0745 56.3532 69.758 56.6659 69.6802C57.0991 69.5722 57.5335 69.4478 57.9568 69.3101C58.2634 69.2103 58.5923 69.3781 58.6919 69.6845C58.7915 69.9908 58.6239 70.32 58.3175 70.4196C57.8681 70.5657 57.4073 70.6978 56.9477 70.8122C56.9005 70.8241 56.8531 70.8297 56.8063 70.8297V70.8297ZM45.8818 70.4546C45.8223 70.4546 45.7617 70.4455 45.7019 70.4261C45.2506 70.2799 44.7994 70.116 44.3606 69.9387C44.0619 69.8181 43.9176 69.4781 44.0382 69.1793C44.1589 68.8805 44.4992 68.7363 44.7976 68.857C45.2108 69.0239 45.6361 69.1784 46.0613 69.3162C46.3678 69.4154 46.5358 69.7443 46.4365 70.0509C46.3566 70.2976 46.1278 70.4546 45.8818 70.4546V70.4546ZM60.702 69.4104C60.4861 69.4104 60.2788 69.2903 60.1775 69.0833C60.0359 68.794 60.1557 68.4445 60.4452 68.303C60.8458 68.1069 61.2443 67.8945 61.6296 67.6715C61.9088 67.5097 62.2654 67.6054 62.4266 67.8841C62.5881 68.1629 62.4928 68.5198 62.2141 68.6811C61.8054 68.9176 61.3827 69.143 60.9578 69.3509C60.8753 69.3913 60.7879 69.4104 60.702 69.4104V69.4104ZM42.0911 68.7677C41.992 68.7677 41.8918 68.7424 41.7997 68.6893C41.39 68.4526 40.9834 68.1983 40.5911 67.9334C40.324 67.7532 40.2537 67.3906 40.4339 67.1235C40.6141 66.8566 40.9767 66.786 41.2437 66.9664C41.6137 67.2162 41.9971 67.4559 42.3834 67.6791C42.6624 67.8403 42.7578 68.197 42.5967 68.476C42.4887 68.6631 42.2925 68.7677 42.0911 68.7677V68.7677ZM64.2133 67.2107C64.0401 67.2107 63.8686 67.1339 63.7536 66.9869C63.555 66.7332 63.5997 66.3666 63.8534 66.1679C64.205 65.8928 64.5509 65.602 64.8818 65.3039C65.1213 65.088 65.49 65.1072 65.7057 65.3466C65.9214 65.586 65.9023 65.9548 65.663 66.1705C65.3122 66.4866 64.9452 66.795 64.5725 67.0868C64.4657 67.1702 64.339 67.2107 64.2133 67.2107V67.2107ZM38.737 66.3296C38.5979 66.3296 38.4584 66.2801 38.347 66.1799C37.9959 65.864 37.651 65.5311 37.3217 65.1908C37.0977 64.9592 37.1039 64.59 37.3354 64.366C37.567 64.1421 37.9362 64.1483 38.1602 64.3796C38.4708 64.7007 38.7962 65.0145 39.1274 65.3126C39.3669 65.5282 39.3863 65.897 39.1708 66.1365C39.0556 66.2645 38.8966 66.3296 38.737 66.3296ZM67.1939 64.3305C67.0615 64.3305 66.9285 64.2857 66.8191 64.1939C66.5724 63.9868 66.5403 63.6187 66.7475 63.3721C67.035 63.0296 67.3137 62.6735 67.5756 62.3136C67.7652 62.0532 68.1301 61.9954 68.3904 62.185C68.6509 62.3746 68.7086 62.7394 68.519 62.9998C68.2412 63.3816 67.9458 63.7593 67.6411 64.1222C67.5256 64.2596 67.3604 64.3305 67.1939 64.3305V64.3305ZM35.9612 63.2517C35.7811 63.2517 35.6035 63.1686 35.4892 63.0118C35.211 62.6301 34.9424 62.2333 34.6911 61.8328C34.5199 61.5599 34.6023 61.1999 34.8752 61.0286C35.1481 60.8572 35.508 60.9397 35.6794 61.2127C35.9165 61.5905 36.1698 61.9646 36.4321 62.3248C36.6218 62.5851 36.5646 62.9499 36.3043 63.1397C36.2006 63.2153 36.0803 63.2517 35.9612 63.2517ZM69.5152 60.8945C69.4226 60.8945 69.3288 60.8724 69.2414 60.8259C68.9569 60.6744 68.8494 60.3212 69.0007 60.0367C69.2106 59.6427 69.4091 59.2363 69.5909 58.8288C69.722 58.5345 70.0669 58.4025 70.3613 58.5336C70.6556 58.6647 70.7877 59.0096 70.6564 59.3039C70.4637 59.7363 70.2531 60.1674 70.0305 60.5853C69.9255 60.7823 69.7238 60.8945 69.5152 60.8945V60.8945ZM33.8837 59.6671C33.6606 59.6671 33.4477 59.5384 33.3507 59.3217C33.1577 58.8897 32.9778 58.4459 32.8161 58.0028C32.7056 57.7 32.8613 57.3652 33.164 57.2547C33.4664 57.1444 33.8014 57.3 33.9119 57.6026C34.0644 58.0201 34.2339 58.4384 34.4159 58.8456C34.5473 59.1397 34.4154 59.4848 34.1213 59.616C34.0441 59.6508 33.9632 59.6671 33.8837 59.6671V59.6671ZM71.0707 57.0485C71.0176 57.0485 70.9636 57.0412 70.9101 57.026C70.6003 56.9375 70.421 56.6147 70.5094 56.3048C70.6322 55.8757 70.741 55.4371 70.8332 55.0014C70.8997 54.6862 71.2094 54.4843 71.5245 54.5514C71.8398 54.618 72.0413 54.9277 71.9745 55.2428C71.8768 55.7052 71.7613 56.1704 71.6312 56.6255C71.558 56.8816 71.3245 57.0485 71.0707 57.0485ZM32.5995 55.7275C32.3299 55.7275 32.0878 55.5397 32.0295 55.2654C31.9311 54.8025 31.848 54.3304 31.7823 53.8623C31.7376 53.5433 31.9598 53.2482 32.2789 53.2036C32.5977 53.1584 32.8928 53.3811 32.9376 53.7002C32.9995 54.1416 33.0779 54.5865 33.1706 55.0227C33.2376 55.3379 33.0364 55.6476 32.7213 55.7147C32.6805 55.7233 32.6397 55.7275 32.5995 55.7275V55.7275ZM71.7862 52.9657C71.7728 52.9657 71.7593 52.9652 71.7455 52.9643C71.4241 52.9422 71.1815 52.6636 71.2036 52.3422C71.2342 51.8985 71.2497 51.4468 71.2497 50.9994L71.2496 50.9545C71.2496 50.6323 71.5107 50.3711 71.8329 50.3711C72.1551 50.3711 72.4162 50.6323 72.4162 50.9545L72.4163 50.9949C72.4163 51.4734 72.3999 51.9522 72.3676 52.4224C72.3463 52.7301 72.0901 52.9657 71.7862 52.9657V52.9657ZM32.1663 51.6051C31.8442 51.6051 31.583 51.344 31.583 51.0218V51.0038C31.583 50.5338 31.5989 50.0628 31.6303 49.5994C31.6521 49.2781 31.9309 49.0355 32.2516 49.0568C32.573 49.0786 32.8159 49.3567 32.7942 49.6781C32.7646 50.1154 32.7497 50.5599 32.7497 50.9994V51.0218C32.7497 51.344 32.4886 51.6051 32.1663 51.6051V51.6051ZM71.6356 48.7787C71.3497 48.7787 71.0999 48.5683 71.0587 48.277C70.9964 47.8357 70.9174 47.3909 70.8242 46.9548C70.7569 46.6397 70.9578 46.3297 71.2728 46.2624C71.5879 46.195 71.8978 46.3958 71.9652 46.7109C72.0641 47.1736 72.1478 47.6457 72.214 48.1137C72.2591 48.4327 72.0369 48.7279 71.7181 48.7729C71.6902 48.7769 71.6627 48.7787 71.6356 48.7787V48.7787ZM32.5914 47.4822C32.5516 47.4822 32.5112 47.4781 32.4708 47.4696C32.1555 47.4034 31.9537 47.0941 32.0199 46.7788C32.1172 46.3159 32.2323 45.8504 32.3619 45.3955C32.4501 45.0857 32.7729 44.9061 33.0828 44.9944C33.3926 45.0826 33.5722 45.4054 33.4839 45.7153C33.3617 46.1441 33.2533 46.5826 33.1616 47.0189C33.1039 47.2935 32.8614 47.4822 32.5914 47.4822V47.4822ZM70.6276 44.7585C70.3898 44.7585 70.1664 44.612 70.08 44.3757C69.9269 43.9582 69.7568 43.5402 69.5745 43.1335C69.4426 42.8395 69.5741 42.4943 69.8681 42.3625C70.1621 42.2307 70.5073 42.3622 70.639 42.6562C70.8326 43.0879 71.013 43.5313 71.1754 43.9744C71.2862 44.2769 71.1309 44.612 70.8283 44.7228C70.762 44.747 70.6942 44.7585 70.6276 44.7585V44.7585ZM33.8662 43.5364C33.7871 43.5364 33.7066 43.5202 33.6297 43.486C33.3352 43.3551 33.2027 43.0105 33.3335 42.716C33.5255 42.284 33.7356 41.8526 33.9581 41.4339C34.1092 41.1494 34.4625 41.0411 34.7469 41.1924C35.0314 41.3435 35.1396 41.6966 34.9884 41.9812C34.7787 42.376 34.5806 42.7827 34.3997 43.1898C34.303 43.4072 34.0897 43.5364 33.8662 43.5364V43.5364ZM68.8027 41.0405C68.6087 41.0405 68.4191 40.9438 68.3083 40.7675C68.0714 40.3906 67.8178 40.0167 67.5546 39.6563C67.3646 39.3962 67.4214 39.0312 67.6815 38.8412C67.9416 38.6513 68.3065 38.708 68.4966 38.9681C68.7759 39.3503 69.0448 39.7469 69.2961 40.1466C69.4676 40.4193 69.3855 40.7794 69.1126 40.9509C69.0161 41.0117 68.9089 41.0405 68.8027 41.0405V41.0405ZM35.9385 39.9436C35.8196 39.9436 35.6998 39.9074 35.5962 39.8322C35.3355 39.6429 35.2776 39.2781 35.467 39.0175C35.7449 38.6347 36.0398 38.2567 36.3437 37.8941C36.5506 37.6471 36.9186 37.6147 37.1655 37.8216C37.4125 38.0285 37.4449 38.3965 37.238 38.6434C36.9513 38.9855 36.6731 39.342 36.411 39.703C36.2968 39.8602 36.1189 39.9436 35.9385 39.9436V39.9436ZM66.2427 37.7807C66.0903 37.7807 65.9382 37.7213 65.8237 37.6032C65.5136 37.2832 65.188 36.9697 64.8558 36.6715C64.616 36.4563 64.5961 36.0875 64.8113 35.8478C65.0266 35.608 65.3953 35.5881 65.6351 35.8033C65.9874 36.1195 66.3328 36.452 66.6616 36.7915C66.8859 37.0228 66.88 37.3921 66.6487 37.6163C66.5353 37.7261 66.389 37.7807 66.2427 37.7807V37.7807ZM38.7105 36.86C38.5513 36.86 38.3926 36.7951 38.2775 36.6676C38.0615 36.4285 38.0804 36.0596 38.3195 35.8437C38.6702 35.5269 39.0367 35.2182 39.4089 34.9262C39.6624 34.7275 40.029 34.7717 40.2279 35.0251C40.4267 35.2785 40.3825 35.6452 40.129 35.8441C39.7779 36.1196 39.4321 36.4107 39.1014 36.7095C38.9898 36.8103 38.8499 36.86 38.7105 36.86ZM63.0628 35.1196C62.9507 35.1196 62.8374 35.0874 62.7376 35.0201C62.3675 34.7708 61.9838 34.5315 61.5971 34.3087C61.318 34.1478 61.2222 33.7912 61.3831 33.512C61.5439 33.2328 61.9002 33.1367 62.1798 33.2979C62.5899 33.5343 62.9967 33.7881 63.3893 34.0524C63.6564 34.2323 63.7271 34.5949 63.5472 34.862C63.4346 35.0293 63.2504 35.1196 63.0628 35.1196V35.1196ZM42.0587 34.4172C41.8576 34.4172 41.662 34.313 41.5537 34.1266C41.392 33.8479 41.4867 33.491 41.7653 33.3293C42.1745 33.0917 42.5968 32.866 43.0209 32.6581C43.3101 32.5161 43.6596 32.6357 43.8015 32.925C43.9434 33.2142 43.8238 33.5638 43.5346 33.7056C43.1349 33.9016 42.7367 34.1144 42.351 34.3383C42.2589 34.3918 42.1581 34.4172 42.0587 34.4172V34.4172ZM59.3995 33.176C59.327 33.176 59.2534 33.1623 59.182 33.1336C58.7674 32.9668 58.342 32.8128 57.9175 32.6758C57.6109 32.5769 57.4425 32.2481 57.5413 31.9416C57.6402 31.6352 57.9695 31.4666 58.2756 31.5656C58.7261 31.711 59.1775 31.8743 59.6174 32.0513C59.9163 32.1715 60.0611 32.5113 59.9408 32.8102C59.8494 33.0377 59.6306 33.176 59.3995 33.176V33.176ZM45.8407 32.7245C45.5951 32.7245 45.3667 32.5681 45.2863 32.322C45.1865 32.0157 45.3536 31.6864 45.6599 31.5864C46.1098 31.4395 46.5706 31.3069 47.0293 31.1922C47.3415 31.1137 47.6585 31.3039 47.7367 31.6166C47.8148 31.9292 47.6249 32.2459 47.3124 32.324C46.88 32.4321 46.4459 32.5571 46.0219 32.6954C45.9618 32.7151 45.9008 32.7245 45.8407 32.7245V32.7245ZM55.4112 32.0416C55.3781 32.0416 55.3446 32.0388 55.3109 32.0329C54.8721 31.9568 54.4245 31.8952 53.9806 31.8499C53.6601 31.8172 53.4267 31.5309 53.4594 31.2104C53.4922 30.8899 53.7785 30.6563 54.099 30.6893C54.5698 30.7374 55.0447 30.8027 55.5103 30.8835C55.8277 30.9385 56.0404 31.2405 55.9854 31.5578C55.9361 31.8417 55.6897 32.0416 55.4112 32.0416ZM49.894 31.8599C49.5993 31.8599 49.3462 31.6373 49.3146 31.3377C49.2808 31.0173 49.5132 30.7302 49.8335 30.6963C50.3028 30.6469 50.7807 30.6132 51.2542 30.5961C51.5748 30.584 51.8465 30.8361 51.858 31.1581C51.8696 31.4801 51.6181 31.7504 51.2961 31.762C50.8493 31.7781 50.3985 31.8099 49.9559 31.8566C49.9351 31.8588 49.9144 31.8599 49.894 31.8599V31.8599Z" fill="black"/>
</g>
<defs>
<filter id="filter0_dd_1618_4327" x="0.419922" y="0" width="102.5" height="99" filterUnits="userSpaceOnUse" color-interpolation-filters="sRGB">
<feFlood flood-opacity="0" result="BackgroundImageFix"/>
<feColorMatrix in="SourceAlpha" type="matrix" values="0 0 0 0 0 0 0 0 0 0 0 0 0 0 0 0 0 0 127 0" result="hardAlpha"/>
<feMorphology radius="2" operator="dilate" in="SourceAlpha" result="effect1_dropShadow_1618_4327"/>
<feOffset dx="1" dy="1"/>
<feGaussianBlur stdDeviation="2"/>
<feComposite in2="hardAlpha" operator="out"/>
<feColorMatrix type="matrix" values="0 0 0 0 0 0 0 0 0 0.34 0 0 0 0 1 0 0 0 0.25 0"/>
<feBlend mode="normal" in2="BackgroundImageFix" result="effect1_dropShadow_1618_4327"/>
<feColorMatrix in="SourceAlpha" type="matrix" values="0 0 0 0 0 0 0 0 0 0 0 0 0 0 0 0 0 0 127 0" result="hardAlpha"/>
<feMorphology radius="4" operator="dilate" in="SourceAlpha" result="effect2_dropShadow_1618_4327"/>
<feOffset dy="-1"/>
<feGaussianBlur stdDeviation="3"/>
<feComposite in2="hardAlpha" operator="out"/>
<feColorMatrix type="matrix" values="0 0 0 0 0 0 0 0 0 0.82 0 0 0 0 1 0 0 0 0.45 0"/>
<feBlend mode="normal" in2="effect1_dropShadow_1618_4327" result="effect2_dropShadow_1618_4327"/>
<feBlend mode="normal" in="SourceGraphic" in2="effect2_dropShadow_1618_4327" result="shape"/>
</filter>
<filter id="filter1_d_1618_4327" x="30.5" y="33.5" width="43" height="43" filterUnits="userSpaceOnUse" color-interpolation-filters="sRGB">
<feFlood flood-opacity="0" result="BackgroundImageFix"/>
<feColorMatrix in="SourceAlpha" type="matrix" values="0 0 0 0 0 0 0 0 0 0 0 0 0 0 0 0 0 0 127 0" result="hardAlpha"/>
<feOffset dy="4"/>
<feGaussianBlur stdDeviation="2"/>
<feComposite in2="hardAlpha" operator="out"/>
<feColorMatrix type="matrix" values="0 0 0 0 0.00392157 0 0 0 0 0.859765 0 0 0 0 0.976471 0 0 0 0.8 0"/>
<feBlend mode="normal" in2="BackgroundImageFix" result="effect1_dropShadow_1618_4327"/>
<feBlend mode="normal" in="SourceGraphic" in2="effect1_dropShadow_1618_4327" result="shape"/>
</filter>
<filter id="filter2_d_1618_4327" x="27.583" y="30.5957" width="48.833" height="48.8086" filterUnits="userSpaceOnUse" color-interpolation-filters="sRGB">
<feFlood flood-opacity="0" result="BackgroundImageFix"/>
<feColorMatrix in="SourceAlpha" type="matrix" values="0 0 0 0 0 0 0 0 0 0 0 0 0 0 0 0 0 0 127 0" result="hardAlpha"/>
<feOffset dy="4"/>
<feGaussianBlur stdDeviation="2"/>
<feComposite in2="hardAlpha" operator="out"/>
<feColorMatrix type="matrix" values="0 0 0 0 0.00392157 0 0 0 0 0.859765 0 0 0 0 0.976471 0 0 0 0.8 0"/>
<feBlend mode="normal" in2="BackgroundImageFix" result="effect1_dropShadow_1618_4327"/>
<feBlend mode="normal" in="SourceGraphic" in2="effect1_dropShadow_1618_4327" result="shape"/>
</filter>
<linearGradient id="paint0_linear_1618_4327" x1="51.6699" y1="13" x2="51.6699" y2="88" gradientUnits="userSpaceOnUse">
<stop stop-color="#151749"/>
<stop offset="1" stop-color="#0E0E1A"/>
</linearGradient>
<linearGradient id="paint1_linear_1618_4327" x1="51.6699" y1="13" x2="51.6699" y2="88" gradientUnits="userSpaceOnUse">
<stop stop-color="#2F73DA"/>
<stop offset="1" stop-color="#00D1FF"/>
</linearGradient>
<linearGradient id="paint2_linear_1618_4327" x1="52.193" y1="20" x2="52.193" y2="80" gradientUnits="userSpaceOnUse">
<stop stop-color="#01032E"/>
<stop offset="1" stop-color="#093C61"/>
</linearGradient>
<linearGradient id="paint3_linear_1618_4327" x1="52.193" y1="20" x2="52.193" y2="80" gradientUnits="userSpaceOnUse">
<stop stop-color="#030029"/>
<stop offset="1" stop-color="#002177"/>
</linearGradient>
</defs>
</svg>
