<svg width="103" height="99" viewBox="0 0 103 99" fill="none" xmlns="http://www.w3.org/2000/svg">
<g filter="url(#filter0_dd_1618_4328)">
<ellipse cx="51.6699" cy="50.5" rx="39.25" ry="37.5" fill="url(#paint0_linear_1618_4328)"/>
<path d="M51.6699 89C73.8559 89 91.9199 71.8054 91.9199 50.5C91.9199 29.1945 73.8559 12 51.6699 12C29.4839 12 11.4199 29.1945 11.4199 50.5C11.4199 71.8054 29.4839 89 51.6699 89Z" stroke="url(#paint1_linear_1618_4328)" stroke-width="2"/>
</g>
<path d="M81.0929 50C81.0929 65.0816 68.2627 77.5 52.193 77.5C36.1233 77.5 23.293 65.0816 23.293 50C23.293 34.9184 36.1233 22.5 52.193 22.5C68.2627 22.5 81.0929 34.9184 81.0929 50Z" fill="url(#paint2_linear_1618_4328)" stroke="url(#paint3_linear_1618_4328)" stroke-width="5"/>
<g filter="url(#filter1_d_1618_4328)">
<path d="M52 32.5C42.3351 32.5 34.5 40.3351 34.5 50C34.5 59.6649 42.3351 67.5 52 67.5C61.6649 67.5 69.5 59.6649 69.5 50C69.5 40.3351 61.6649 32.5 52 32.5ZM63.0726 55.0234L59.5473 58.5488C59.4122 58.6829 59.2274 58.7617 59.0301 58.7617H41.1859C40.8602 58.7617 40.6969 58.3679 40.9273 58.1375L44.4526 54.6132C44.5877 54.4781 44.7725 54.3994 44.9698 54.3994H62.814C63.1397 54.3993 63.303 54.793 63.0726 55.0234ZM62.8141 52.1389H44.9699C44.7725 52.1389 44.5878 52.0601 44.4527 51.9259L40.9274 48.4006C40.697 48.1702 40.8603 47.7765 41.1861 47.7765H59.0302C59.2276 47.7765 59.4123 47.8552 59.5474 47.9903L63.0727 51.5146C63.303 51.7462 63.1397 52.1389 62.8141 52.1389ZM63.0726 41.8625L59.5473 45.3868C59.4122 45.5219 59.2274 45.6006 59.0301 45.6006H41.1859C40.8602 45.6006 40.6969 45.2069 40.9273 44.9765L44.4526 41.4511C44.5926 41.317 44.7783 41.2382 44.9698 41.2382H62.814C63.1397 41.2383 63.303 41.6321 63.0726 41.8625Z" fill="black"/>
</g>
<g filter="url(#filter2_d_1618_4328)">
<path d="M52.7017 70.4039C52.3888 70.4039 52.13 70.156 52.119 69.8409C52.1078 69.5189 52.3597 69.2489 52.6817 69.2376C53.1281 69.2221 53.5789 69.1908 54.0219 69.1446C54.3425 69.1102 54.6291 69.3439 54.6625 69.6642C54.696 69.9847 54.4632 70.2715 54.1428 70.3049C53.6734 70.3539 53.1954 70.387 52.7222 70.4036C52.7154 70.4038 52.7084 70.4039 52.7017 70.4039ZM49.9379 70.3101C49.9179 70.3101 49.8977 70.3091 49.8773 70.3071C49.407 70.2584 48.9323 70.1926 48.4664 70.1114C48.1491 70.0561 47.9365 69.7541 47.9919 69.4366C48.0472 69.1193 48.3498 68.9071 48.6667 68.9621C49.1061 69.0387 49.5538 69.1007 49.9972 69.1466C50.3177 69.1797 50.5506 69.4664 50.5174 69.7867C50.4865 70.0868 50.2331 70.3101 49.9379 70.3101ZM56.8063 69.8297C56.5448 69.8297 56.3069 69.6525 56.2407 69.3872C56.1628 69.0745 56.3532 68.758 56.6659 68.6802C57.0991 68.5722 57.5335 68.4478 57.9568 68.3101C58.2634 68.2103 58.5923 68.3781 58.6919 68.6845C58.7915 68.9908 58.6239 69.32 58.3175 69.4196C57.8681 69.5657 57.4073 69.6978 56.9477 69.8122C56.9005 69.8241 56.8531 69.8297 56.8063 69.8297ZM45.8818 69.4546C45.8223 69.4546 45.7617 69.4455 45.7019 69.4261C45.2506 69.2799 44.7994 69.116 44.3606 68.9387C44.0619 68.8181 43.9176 68.4781 44.0382 68.1793C44.1589 67.8805 44.4992 67.7363 44.7976 67.857C45.2108 68.0239 45.6361 68.1784 46.0613 68.3162C46.3678 68.4154 46.5358 68.7443 46.4365 69.0509C46.3566 69.2976 46.1278 69.4546 45.8818 69.4546ZM60.702 68.4104C60.4861 68.4104 60.2788 68.2903 60.1775 68.0833C60.0359 67.794 60.1557 67.4445 60.4452 67.303C60.8458 67.1069 61.2443 66.8945 61.6296 66.6715C61.9088 66.5097 62.2654 66.6054 62.4266 66.8841C62.5881 67.1629 62.4928 67.5198 62.2141 67.6811C61.8054 67.9176 61.3827 68.143 60.9578 68.3509C60.8753 68.3913 60.7879 68.4104 60.702 68.4104ZM42.0911 67.7677C41.992 67.7677 41.8918 67.7424 41.7997 67.6893C41.39 67.4526 40.9834 67.1983 40.5911 66.9334C40.324 66.7532 40.2537 66.3906 40.4339 66.1235C40.6141 65.8566 40.9767 65.786 41.2437 65.9664C41.6137 66.2162 41.9971 66.4559 42.3834 66.6791C42.6624 66.8403 42.7578 67.197 42.5967 67.476C42.4887 67.6631 42.2925 67.7677 42.0911 67.7677ZM64.2133 66.2107C64.0401 66.2107 63.8686 66.1339 63.7536 65.9869C63.555 65.7332 63.5997 65.3666 63.8534 65.1679C64.205 64.8928 64.5509 64.602 64.8818 64.3039C65.1213 64.088 65.49 64.1072 65.7057 64.3466C65.9214 64.586 65.9023 64.9548 65.663 65.1705C65.3122 65.4866 64.9452 65.795 64.5725 66.0868C64.4657 66.1702 64.339 66.2107 64.2133 66.2107ZM38.737 65.3296C38.5979 65.3296 38.4584 65.2801 38.347 65.1799C37.9959 64.864 37.651 64.5311 37.3217 64.1908C37.0977 63.9592 37.1039 63.59 37.3354 63.366C37.567 63.1421 37.9362 63.1483 38.1602 63.3796C38.4708 63.7007 38.7962 64.0145 39.1274 64.3126C39.3669 64.5282 39.3863 64.897 39.1708 65.1365C39.0556 65.2645 38.8966 65.3296 38.737 65.3296ZM67.1939 63.3305C67.0615 63.3305 66.9285 63.2857 66.8191 63.1939C66.5724 62.9868 66.5403 62.6187 66.7475 62.3721C67.035 62.0296 67.3137 61.6735 67.5756 61.3136C67.7652 61.0532 68.1301 60.9954 68.3904 61.185C68.6509 61.3746 68.7086 61.7394 68.519 61.9998C68.2412 62.3816 67.9458 62.7593 67.6411 63.1222C67.5256 63.2596 67.3604 63.3305 67.1939 63.3305ZM35.9612 62.2517C35.7811 62.2517 35.6035 62.1686 35.4892 62.0118C35.211 61.6301 34.9424 61.2333 34.6911 60.8328C34.5199 60.5599 34.6023 60.1999 34.8752 60.0286C35.1481 59.8572 35.508 59.9397 35.6794 60.2127C35.9165 60.5905 36.1698 60.9646 36.4321 61.3248C36.6218 61.5851 36.5646 61.9499 36.3043 62.1397C36.2006 62.2153 36.0803 62.2517 35.9612 62.2517ZM69.5152 59.8945C69.4226 59.8945 69.3288 59.8724 69.2414 59.8259C68.9569 59.6744 68.8494 59.3212 69.0007 59.0367C69.2106 58.6427 69.4091 58.2363 69.5909 57.8288C69.722 57.5345 70.0669 57.4025 70.3613 57.5336C70.6556 57.6647 70.7877 58.0096 70.6564 58.3039C70.4637 58.7363 70.2531 59.1674 70.0305 59.5853C69.9255 59.7823 69.7238 59.8945 69.5152 59.8945ZM33.8837 58.6671C33.6606 58.6671 33.4477 58.5384 33.3507 58.3217C33.1577 57.8897 32.9778 57.4459 32.8161 57.0028C32.7056 56.7 32.8613 56.3652 33.164 56.2547C33.4664 56.1444 33.8014 56.3 33.9119 56.6026C34.0644 57.0201 34.2339 57.4384 34.4159 57.8456C34.5473 58.1397 34.4154 58.4848 34.1213 58.616C34.0441 58.6508 33.9632 58.6671 33.8837 58.6671ZM71.0707 56.0485C71.0176 56.0485 70.9636 56.0412 70.9101 56.026C70.6003 55.9375 70.421 55.6147 70.5094 55.3048C70.6322 54.8757 70.741 54.4371 70.8332 54.0014C70.8997 53.6862 71.2094 53.4843 71.5245 53.5514C71.8398 53.618 72.0413 53.9277 71.9745 54.2428C71.8768 54.7052 71.7613 55.1704 71.6312 55.6255C71.558 55.8816 71.3245 56.0485 71.0707 56.0485ZM32.5995 54.7275C32.3299 54.7275 32.0878 54.5397 32.0295 54.2654C31.9311 53.8025 31.848 53.3304 31.7823 52.8623C31.7376 52.5433 31.9598 52.2482 32.2789 52.2036C32.5977 52.1584 32.8928 52.3811 32.9376 52.7002C32.9995 53.1416 33.0779 53.5865 33.1706 54.0227C33.2376 54.3379 33.0364 54.6476 32.7213 54.7147C32.6805 54.7233 32.6397 54.7275 32.5995 54.7275ZM71.7862 51.9657C71.7728 51.9657 71.7593 51.9652 71.7455 51.9643C71.4241 51.9422 71.1815 51.6636 71.2036 51.3422C71.2342 50.8985 71.2497 50.4468 71.2497 49.9994L71.2496 49.9545C71.2496 49.6323 71.5107 49.3711 71.8329 49.3711C72.1551 49.3711 72.4162 49.6323 72.4162 49.9545L72.4163 49.9949C72.4163 50.4734 72.3999 50.9522 72.3676 51.4224C72.3463 51.7301 72.0901 51.9657 71.7862 51.9657ZM32.1663 50.6051C31.8442 50.6051 31.583 50.344 31.583 50.0218V50.0038C31.583 49.5338 31.5989 49.0628 31.6303 48.5994C31.6521 48.2781 31.9309 48.0355 32.2516 48.0568C32.573 48.0786 32.8159 48.3567 32.7942 48.6781C32.7646 49.1154 32.7497 49.5599 32.7497 49.9994V50.0218C32.7497 50.344 32.4886 50.6051 32.1663 50.6051ZM71.6356 47.7787C71.3497 47.7787 71.0999 47.5683 71.0587 47.277C70.9964 46.8357 70.9174 46.3909 70.8242 45.9548C70.7569 45.6397 70.9578 45.3297 71.2728 45.2624C71.5879 45.195 71.8978 45.3958 71.9652 45.7109C72.0641 46.1736 72.1478 46.6457 72.214 47.1137C72.2591 47.4327 72.0369 47.7279 71.7181 47.7729C71.6902 47.7769 71.6627 47.7787 71.6356 47.7787ZM32.5914 46.4822C32.5516 46.4822 32.5112 46.4781 32.4708 46.4696C32.1555 46.4034 31.9537 46.0941 32.0199 45.7788C32.1172 45.3159 32.2323 44.8504 32.3619 44.3955C32.4501 44.0857 32.7729 43.9061 33.0828 43.9944C33.3926 44.0826 33.5722 44.4054 33.4839 44.7153C33.3617 45.1441 33.2533 45.5826 33.1616 46.0189C33.1039 46.2935 32.8614 46.4822 32.5914 46.4822ZM70.6276 43.7585C70.3898 43.7585 70.1664 43.612 70.08 43.3757C69.9269 42.9582 69.7568 42.5402 69.5745 42.1335C69.4426 41.8395 69.5741 41.4943 69.8681 41.3625C70.1621 41.2307 70.5073 41.3622 70.639 41.6562C70.8326 42.0879 71.013 42.5313 71.1754 42.9744C71.2862 43.2769 71.1309 43.612 70.8283 43.7228C70.762 43.747 70.6942 43.7585 70.6276 43.7585ZM33.8662 42.5364C33.7871 42.5364 33.7066 42.5202 33.6297 42.486C33.3352 42.3551 33.2027 42.0105 33.3335 41.716C33.5255 41.284 33.7356 40.8526 33.9581 40.4339C34.1092 40.1494 34.4625 40.0411 34.7469 40.1924C35.0314 40.3435 35.1396 40.6966 34.9884 40.9812C34.7787 41.376 34.5806 41.7827 34.3997 42.1898C34.303 42.4072 34.0897 42.5364 33.8662 42.5364ZM68.8027 40.0405C68.6087 40.0405 68.4191 39.9438 68.3083 39.7675C68.0714 39.3906 67.8178 39.0167 67.5546 38.6563C67.3646 38.3962 67.4214 38.0312 67.6815 37.8412C67.9416 37.6513 68.3065 37.708 68.4966 37.9681C68.7759 38.3503 69.0448 38.7469 69.2961 39.1466C69.4676 39.4193 69.3855 39.7794 69.1126 39.9509C69.0161 40.0117 68.9089 40.0405 68.8027 40.0405ZM35.9385 38.9436C35.8196 38.9436 35.6998 38.9074 35.5962 38.8322C35.3355 38.6429 35.2776 38.2781 35.467 38.0175C35.7449 37.6347 36.0398 37.2567 36.3437 36.8941C36.5506 36.6471 36.9186 36.6147 37.1655 36.8216C37.4125 37.0285 37.4449 37.3965 37.238 37.6434C36.9513 37.9855 36.6731 38.342 36.411 38.703C36.2968 38.8602 36.1189 38.9436 35.9385 38.9436ZM66.2427 36.7807C66.0903 36.7807 65.9382 36.7213 65.8237 36.6032C65.5136 36.2832 65.188 35.9697 64.8558 35.6715C64.616 35.4563 64.5961 35.0875 64.8113 34.8478C65.0266 34.608 65.3953 34.5881 65.6351 34.8033C65.9874 35.1195 66.3328 35.452 66.6616 35.7915C66.8859 36.0228 66.88 36.3921 66.6487 36.6163C66.5353 36.7261 66.389 36.7807 66.2427 36.7807ZM38.7105 35.86C38.5513 35.86 38.3926 35.7951 38.2775 35.6676C38.0615 35.4285 38.0804 35.0596 38.3195 34.8437C38.6702 34.5269 39.0367 34.2182 39.4089 33.9262C39.6624 33.7275 40.029 33.7717 40.2279 34.0251C40.4267 34.2785 40.3825 34.6452 40.129 34.8441C39.7779 35.1196 39.4321 35.4107 39.1014 35.7095C38.9898 35.8103 38.8499 35.86 38.7105 35.86ZM63.0628 34.1196C62.9507 34.1196 62.8374 34.0874 62.7376 34.0201C62.3675 33.7708 61.9838 33.5315 61.5971 33.3087C61.318 33.1478 61.2222 32.7912 61.3831 32.512C61.5439 32.2328 61.9002 32.1367 62.1798 32.2979C62.5899 32.5343 62.9967 32.7881 63.3893 33.0524C63.6564 33.2323 63.7271 33.5949 63.5472 33.862C63.4346 34.0293 63.2504 34.1196 63.0628 34.1196ZM42.0587 33.4172C41.8576 33.4172 41.662 33.313 41.5537 33.1266C41.392 32.8479 41.4867 32.491 41.7653 32.3293C42.1745 32.0917 42.5968 31.866 43.0209 31.6581C43.3101 31.5161 43.6596 31.6357 43.8015 31.925C43.9434 32.2142 43.8238 32.5638 43.5346 32.7056C43.1349 32.9016 42.7367 33.1144 42.351 33.3383C42.2589 33.3918 42.1581 33.4172 42.0587 33.4172ZM59.3995 32.176C59.327 32.176 59.2534 32.1623 59.182 32.1336C58.7674 31.9668 58.342 31.8128 57.9175 31.6758C57.6109 31.5769 57.4425 31.2481 57.5413 30.9416C57.6402 30.6352 57.9695 30.4666 58.2756 30.5656C58.7261 30.711 59.1775 30.8743 59.6174 31.0513C59.9163 31.1715 60.0611 31.5113 59.9408 31.8102C59.8494 32.0377 59.6306 32.176 59.3995 32.176ZM45.8407 31.7245C45.5951 31.7245 45.3667 31.5681 45.2863 31.322C45.1865 31.0157 45.3536 30.6864 45.6599 30.5864C46.1098 30.4395 46.5706 30.3069 47.0293 30.1922C47.3415 30.1137 47.6585 30.3039 47.7367 30.6166C47.8148 30.9292 47.6249 31.2459 47.3124 31.324C46.88 31.4321 46.4459 31.5571 46.0219 31.6954C45.9618 31.7151 45.9008 31.7245 45.8407 31.7245ZM55.4112 31.0416C55.3781 31.0416 55.3446 31.0388 55.3109 31.0329C54.8721 30.9568 54.4245 30.8952 53.9806 30.8499C53.6601 30.8172 53.4267 30.5309 53.4594 30.2104C53.4922 29.8899 53.7785 29.6563 54.099 29.6893C54.5698 29.7374 55.0447 29.8027 55.5103 29.8835C55.8277 29.9385 56.0404 30.2405 55.9854 30.5578C55.9361 30.8417 55.6897 31.0416 55.4112 31.0416ZM49.894 30.8599C49.5993 30.8599 49.3462 30.6373 49.3146 30.3377C49.2808 30.0173 49.5132 29.7302 49.8335 29.6963C50.3028 29.6469 50.7807 29.6132 51.2542 29.5961C51.5748 29.584 51.8465 29.8361 51.858 30.1581C51.8696 30.4801 51.6181 30.7504 51.2961 30.762C50.8493 30.7781 50.3985 30.8099 49.9559 30.8566C49.9351 30.8588 49.9144 30.8599 49.894 30.8599Z" fill="black"/>
</g>
<defs>
<filter id="filter0_dd_1618_4328" x="0.419922" y="0" width="102.5" height="99" filterUnits="userSpaceOnUse" color-interpolation-filters="sRGB">
<feFlood flood-opacity="0" result="BackgroundImageFix"/>
<feColorMatrix in="SourceAlpha" type="matrix" values="0 0 0 0 0 0 0 0 0 0 0 0 0 0 0 0 0 0 127 0" result="hardAlpha"/>
<feMorphology radius="2" operator="dilate" in="SourceAlpha" result="effect1_dropShadow_1618_4328"/>
<feOffset dx="1" dy="1"/>
<feGaussianBlur stdDeviation="2"/>
<feComposite in2="hardAlpha" operator="out"/>
<feColorMatrix type="matrix" values="0 0 0 0 0 0 0 0 0 0.34 0 0 0 0 1 0 0 0 0.25 0"/>
<feBlend mode="normal" in2="BackgroundImageFix" result="effect1_dropShadow_1618_4328"/>
<feColorMatrix in="SourceAlpha" type="matrix" values="0 0 0 0 0 0 0 0 0 0 0 0 0 0 0 0 0 0 127 0" result="hardAlpha"/>
<feMorphology radius="4" operator="dilate" in="SourceAlpha" result="effect2_dropShadow_1618_4328"/>
<feOffset dy="-1"/>
<feGaussianBlur stdDeviation="3"/>
<feComposite in2="hardAlpha" operator="out"/>
<feColorMatrix type="matrix" values="0 0 0 0 0 0 0 0 0 0.82 0 0 0 0 1 0 0 0 0.45 0"/>
<feBlend mode="normal" in2="effect1_dropShadow_1618_4328" result="effect2_dropShadow_1618_4328"/>
<feBlend mode="normal" in="SourceGraphic" in2="effect2_dropShadow_1618_4328" result="shape"/>
</filter>
<filter id="filter1_d_1618_4328" x="30.5" y="32.5" width="43" height="43" filterUnits="userSpaceOnUse" color-interpolation-filters="sRGB">
<feFlood flood-opacity="0" result="BackgroundImageFix"/>
<feColorMatrix in="SourceAlpha" type="matrix" values="0 0 0 0 0 0 0 0 0 0 0 0 0 0 0 0 0 0 127 0" result="hardAlpha"/>
<feOffset dy="4"/>
<feGaussianBlur stdDeviation="2"/>
<feComposite in2="hardAlpha" operator="out"/>
<feColorMatrix type="matrix" values="0 0 0 0 0.00392157 0 0 0 0 0.859765 0 0 0 0 0.976471 0 0 0 0.8 0"/>
<feBlend mode="normal" in2="BackgroundImageFix" result="effect1_dropShadow_1618_4328"/>
<feBlend mode="normal" in="SourceGraphic" in2="effect1_dropShadow_1618_4328" result="shape"/>
</filter>
<filter id="filter2_d_1618_4328" x="27.583" y="29.5957" width="48.833" height="48.8086" filterUnits="userSpaceOnUse" color-interpolation-filters="sRGB">
<feFlood flood-opacity="0" result="BackgroundImageFix"/>
<feColorMatrix in="SourceAlpha" type="matrix" values="0 0 0 0 0 0 0 0 0 0 0 0 0 0 0 0 0 0 127 0" result="hardAlpha"/>
<feOffset dy="4"/>
<feGaussianBlur stdDeviation="2"/>
<feComposite in2="hardAlpha" operator="out"/>
<feColorMatrix type="matrix" values="0 0 0 0 0.00392157 0 0 0 0 0.859765 0 0 0 0 0.976471 0 0 0 0.8 0"/>
<feBlend mode="normal" in2="BackgroundImageFix" result="effect1_dropShadow_1618_4328"/>
<feBlend mode="normal" in="SourceGraphic" in2="effect1_dropShadow_1618_4328" result="shape"/>
</filter>
<linearGradient id="paint0_linear_1618_4328" x1="51.6699" y1="13" x2="51.6699" y2="88" gradientUnits="userSpaceOnUse">
<stop stop-color="#151749"/>
<stop offset="1" stop-color="#0E0E1A"/>
</linearGradient>
<linearGradient id="paint1_linear_1618_4328" x1="51.6699" y1="13" x2="51.6699" y2="88" gradientUnits="userSpaceOnUse">
<stop stop-color="#2F73DA"/>
<stop offset="1" stop-color="#00D1FF"/>
</linearGradient>
<linearGradient id="paint2_linear_1618_4328" x1="52.193" y1="20" x2="52.193" y2="80" gradientUnits="userSpaceOnUse">
<stop stop-color="#01032E"/>
<stop offset="1" stop-color="#093C61"/>
</linearGradient>
<linearGradient id="paint3_linear_1618_4328" x1="52.193" y1="20" x2="52.193" y2="80" gradientUnits="userSpaceOnUse">
<stop stop-color="#030029"/>
<stop offset="1" stop-color="#002177"/>
</linearGradient>
</defs>
</svg>
