<svg width="158" height="158" viewBox="0 0 158 158" fill="none" xmlns="http://www.w3.org/2000/svg">
<g clip-path="url(#clip0_288_2153)">
<path d="M149.892 29.626C139.089 18.8164 121.502 18.8135 110.688 29.6171C110.667 29.6383 110.649 29.6619 110.628 29.6836L91.4236 48.8904C89.6998 50.6142 89.7004 53.4091 91.4242 55.1323C92.2858 55.9939 93.4152 56.4247 94.5451 56.4247C95.6745 56.4247 96.8045 55.9939 97.6667 55.1317L116.939 35.8573C116.952 35.8444 116.962 35.8297 116.976 35.8167C124.352 28.4989 136.302 28.5148 143.65 35.8673C151.018 43.2334 151.019 55.22 143.655 62.5878L116.635 89.6067C113.067 93.1756 108.321 95.1413 103.274 95.1413C98.227 95.1413 93.4817 93.1761 89.9122 89.6067C88.1884 87.8829 85.3935 87.8829 83.6697 89.6067C81.9459 91.3305 81.9459 94.1254 83.6697 95.8487C88.9064 101.085 95.8682 103.969 103.274 103.969C110.679 103.969 117.641 101.085 122.877 95.8487L149.896 68.8292C160.704 58.0197 160.701 40.432 149.892 29.626Z" fill="#BFC8D7"/>
<path d="M35.1212 62.1475L8.10171 89.1664C-2.70019 99.976 -2.7002 117.564 8.10288 128.374C13.508 133.779 20.6074 136.482 27.708 136.481C34.8034 136.481 41.9011 133.781 47.3044 128.382C47.3055 128.38 47.3073 128.379 47.3091 128.377L66.5811 109.1C68.3043 107.376 68.3043 104.581 66.5799 102.857C64.8555 101.134 62.0618 101.134 60.3374 102.858L41.0653 122.135C41.0647 122.136 41.0647 122.137 41.0642 122.137C33.6958 129.5 21.7109 129.497 14.346 122.132C6.98232 114.763 6.98232 102.774 14.3448 95.4072L41.3637 68.3889C48.7315 61.0205 60.7193 61.0199 68.0872 68.3866C69.811 70.1104 72.6059 70.1104 74.3291 68.386C76.0529 66.6622 76.0523 63.8672 74.3285 62.144C63.5184 51.3362 45.9295 51.3374 35.1212 62.1475Z" fill="#BFC8D7"/>
<path d="M73.2209 31.266C73.9248 32.9662 75.5685 33.9926 77.3012 33.9926C77.8638 33.9926 78.4359 33.8843 78.9879 33.656C81.2402 32.7238 82.3108 30.1419 81.3779 27.8896L76.3937 15.8488C75.462 13.5965 72.8796 12.5265 70.6272 13.4588C68.3749 14.391 67.3044 16.9729 68.2372 19.2252L73.2209 31.266Z" fill="#BFC8D7"/>
<path d="M90.5649 33.6556C91.1176 33.8845 91.6896 33.9928 92.2528 33.9928C93.9843 33.9928 95.6281 32.967 96.3325 31.2673L101.322 19.2289C102.254 16.9766 101.186 14.3947 98.9332 13.4613C96.6815 12.5285 94.0996 13.5967 93.1656 15.8496L88.1767 27.888C87.2438 30.1397 88.3132 32.7222 90.5649 33.6556Z" fill="#BFC8D7"/>
<path d="M52.9949 39.2443L65.0309 44.2339C65.5835 44.4634 66.1562 44.5717 66.7194 44.5717C68.4509 44.5717 70.094 43.5459 70.7985 41.8468C71.7319 39.5951 70.6637 37.0126 68.4114 36.0792L56.3754 31.089C54.1237 30.1544 51.5412 31.2244 50.6078 33.4761C49.6744 35.7284 50.7431 38.3109 52.9949 39.2443Z" fill="#BFC8D7"/>
<path d="M84.7802 126.736C83.8474 124.484 81.2661 123.413 79.0138 124.345C76.7615 125.278 75.691 127.86 76.6232 130.112L81.6063 142.152C82.3102 143.852 83.9539 144.879 85.6866 144.879C86.2492 144.879 86.8207 144.771 87.3727 144.543C89.625 143.61 90.6956 141.028 89.7633 138.776L84.7802 126.736Z" fill="#BFC8D7"/>
<path d="M67.4321 124.346C65.1792 123.412 62.5979 124.48 61.6639 126.732L56.6732 138.768C55.7392 141.02 56.8074 143.602 59.0597 144.536C59.6129 144.766 60.1855 144.874 60.7488 144.874C62.4802 144.874 64.1234 143.849 64.8279 142.15L69.8186 130.114C70.752 127.861 69.6838 125.28 67.4321 124.346Z" fill="#BFC8D7"/>
<path d="M105.001 118.756L92.9614 113.766C90.7091 112.832 88.1272 113.901 87.1938 116.153C86.2604 118.405 87.3292 120.987 89.5809 121.92L101.62 126.911C102.173 127.141 102.746 127.249 103.309 127.249C105.04 127.249 106.684 126.223 107.388 124.524C108.322 122.271 107.253 119.689 105.001 118.756Z" fill="#BFC8D7"/>
</g>
<defs>
<clipPath id="clip0_288_2153">
<rect width="158" height="158" fill="white"/>
</clipPath>
</defs>
</svg>
