<svg width="16" height="17" viewBox="0 0 16 17" fill="none" xmlns="http://www.w3.org/2000/svg">
<rect x="0.5" y="0.765625" width="15" height="15" rx="1.5" fill="#0882D9" stroke="#0882D9"/>
<path d="M3.91308 7.30078H3.91326C3.99256 7.30088 4.07081 7.31894 4.14213 7.3536C4.21341 7.38825 4.27591 7.43858 4.32497 7.50082L3.91308 7.30078ZM3.91308 7.30078H3.09394C2.89031 7.30078 2.7766 7.53538 2.90232 7.69483L2.90237 7.69489L6.11214 11.7613L6.11218 11.7614C6.32247 12.0275 6.72568 12.0268 6.93667 11.7618L6.93708 11.7613L12.6597 4.50961C12.6598 4.50941 12.66 4.5092 12.6602 4.509C12.7884 4.34857 12.6699 4.11562 12.4689 4.11562H11.6498C11.4894 4.11562 11.3367 4.18913 11.2376 4.31607C11.2375 4.31618 11.2374 4.31629 11.2373 4.3164L6.52403 10.2872M3.91308 7.30078L6.52403 10.2872M6.52403 10.2872L4.32506 7.50094L6.52403 10.2872Z" fill="white" stroke="white" stroke-width="0.3"/>
</svg>
