<svg width="20" height="20" viewBox="0 0 20 20" fill="none" xmlns="http://www.w3.org/2000/svg">
<path d="M7.08366 5.83333C7.52569 5.83333 7.94961 5.65774 8.26217 5.34518C8.57473 5.03262 8.75033 4.60869 8.75033 4.16667C8.75033 3.72464 8.57473 3.30072 8.26217 2.98816C7.94961 2.67559 7.52569 2.5 7.08366 2.5C6.64163 2.5 6.21771 2.67559 5.90515 2.98816C5.59259 3.30072 5.41699 3.72464 5.41699 4.16667C5.41699 4.60869 5.59259 5.03262 5.90515 5.34518C6.21771 5.65774 6.64163 5.83333 7.08366 5.83333ZM7.08366 11.6667C7.52569 11.6667 7.94961 11.4911 8.26217 11.1785C8.57473 10.866 8.75033 10.442 8.75033 10C8.75033 9.55797 8.57473 9.13405 8.26217 8.82149C7.94961 8.50893 7.52569 8.33333 7.08366 8.33333C6.64163 8.33333 6.21771 8.50893 5.90515 8.82149C5.59259 9.13405 5.41699 9.55797 5.41699 10C5.41699 10.442 5.59259 10.866 5.90515 11.1785C6.21771 11.4911 6.64163 11.6667 7.08366 11.6667ZM8.75033 15.8333C8.75033 16.2754 8.57473 16.6993 8.26217 17.0118C7.94961 17.3244 7.52569 17.5 7.08366 17.5C6.64163 17.5 6.21771 17.3244 5.90515 17.0118C5.59259 16.6993 5.41699 16.2754 5.41699 15.8333C5.41699 15.3913 5.59259 14.9674 5.90515 14.6548C6.21771 14.3423 6.64163 14.1667 7.08366 14.1667C7.52569 14.1667 7.94961 14.3423 8.26217 14.6548C8.57473 14.9674 8.75033 15.3913 8.75033 15.8333ZM12.917 5.83333C13.359 5.83333 13.7829 5.65774 14.0955 5.34518C14.4081 5.03262 14.5837 4.60869 14.5837 4.16667C14.5837 3.72464 14.4081 3.30072 14.0955 2.98816C13.7829 2.67559 13.359 2.5 12.917 2.5C12.475 2.5 12.051 2.67559 11.7385 2.98816C11.4259 3.30072 11.2503 3.72464 11.2503 4.16667C11.2503 4.60869 11.4259 5.03262 11.7385 5.34518C12.051 5.65774 12.475 5.83333 12.917 5.83333ZM14.5837 10C14.5837 10.442 14.4081 10.866 14.0955 11.1785C13.7829 11.4911 13.359 11.6667 12.917 11.6667C12.475 11.6667 12.051 11.4911 11.7385 11.1785C11.4259 10.866 11.2503 10.442 11.2503 10C11.2503 9.55797 11.4259 9.13405 11.7385 8.82149C12.051 8.50893 12.475 8.33333 12.917 8.33333C13.359 8.33333 13.7829 8.50893 14.0955 8.82149C14.4081 9.13405 14.5837 9.55797 14.5837 10ZM12.917 17.5C13.359 17.5 13.7829 17.3244 14.0955 17.0118C14.4081 16.6993 14.5837 16.2754 14.5837 15.8333C14.5837 15.3913 14.4081 14.9674 14.0955 14.6548C13.7829 14.3423 13.359 14.1667 12.917 14.1667C12.475 14.1667 12.051 14.3423 11.7385 14.6548C11.4259 14.9674 11.2503 15.3913 11.2503 15.8333C11.2503 16.2754 11.4259 16.6993 11.7385 17.0118C12.051 17.3244 12.475 17.5 12.917 17.5Z" fill="#546072"/>
</svg>
