<svg width="24" height="24" viewBox="0 0 24 24" fill="none" xmlns="http://www.w3.org/2000/svg">
<path d="M2.99994 3L20.9999 21" stroke="#94A4BC" stroke-linecap="round" stroke-linejoin="round"/>
<path d="M10.584 10.5879C10.2088 10.9629 9.99782 11.4716 9.99764 12.0022C9.99745 12.5327 10.208 13.0416 10.583 13.4169C10.9581 13.7922 11.4668 14.0031 11.9973 14.0033C12.5279 14.0035 13.0368 13.7929 13.412 13.4179" stroke="#94A4BC" stroke-linecap="round" stroke-linejoin="round"/>
<path d="M9.36305 5.36506C10.2205 5.11978 11.1082 4.9969 12 5.00006C16 5.00006 19.333 7.33306 22 12.0001C21.222 13.3611 20.388 14.5241 19.497 15.4881M17.357 17.3491C15.726 18.4491 13.942 19.0001 12 19.0001C8.00005 19.0001 4.66705 16.6671 2.00005 12.0001C3.36905 9.60506 4.91305 7.82506 6.63205 6.65906" stroke="#94A4BC" stroke-linecap="round" stroke-linejoin="round"/>
</svg>
