<svg width="24" height="25" viewBox="0 0 24 25" fill="none" xmlns="http://www.w3.org/2000/svg">
<path d="M0 12.0025C0 18.6302 5.37281 24.003 12.0005 24.003C18.6282 24.003 24.001 18.6302 24.001 12.0025C24.001 5.37477 18.6282 0.00195312 12.0005 0.00195312C5.37281 0.00195312 0 5.37477 0 12.0025Z" fill="#1877F2"/>
<path d="M18.0005 12.0022C18.0005 8.70207 15.3004 6.00195 12.0003 6.00195C8.70012 6.00195 6 8.70207 6 12.0022C6 15.0023 8.17509 17.4774 11.0252 17.9275V13.7273H9.52515V12.0022H11.0252V10.6522C11.0252 9.15209 11.9253 8.32705 13.2753 8.32705C13.9503 8.32705 14.6254 8.47706 14.6254 8.47706V9.97712H13.8753C13.1253 9.97712 12.9003 10.4271 12.9003 10.8772V12.0022H14.5504L14.2504 13.7273H12.8253V18.0025C15.8254 17.5524 18.0005 15.0023 18.0005 12.0022Z" fill="white"/>
</svg>
