<svg width="26" height="26" viewBox="0 0 26 26" fill="none" xmlns="http://www.w3.org/2000/svg">
<g clip-path="url(#clip0_273_1650)">
<path d="M25.0765 13.2839C25.0765 12.4467 25.0086 11.6049 24.8638 10.7812H13.2466V15.5241H19.8992C19.6231 17.0537 18.7361 18.4069 17.4373 19.2667V22.3441H21.4062C23.7369 20.199 25.0765 17.0311 25.0765 13.2839Z" fill="#4285F4"/>
<path d="M13.2465 25.3176C16.5682 25.3176 19.3696 24.2269 21.4106 22.3443L17.4417 19.2669C16.3374 20.0182 14.9119 20.4436 13.251 20.4436C10.0378 20.4436 7.31341 18.2758 6.33589 15.3613H2.24023V18.5338C4.33105 22.6928 8.58963 25.3176 13.2465 25.3176Z" fill="#34A853"/>
<path d="M6.33146 15.3617C5.81554 13.8321 5.81554 12.1757 6.33146 10.6461V7.47363H2.24033C0.493457 10.9538 0.493457 15.054 2.24033 18.5342L6.33146 15.3617Z" fill="#FBBC04"/>
<path d="M13.2465 5.55848C15.0024 5.53132 16.6995 6.19206 17.9712 7.40491L21.4875 3.88854C19.2609 1.79772 16.3057 0.648219 13.2465 0.684424C8.58963 0.684424 4.33105 3.30926 2.24023 7.4728L6.33136 10.6452C7.30436 7.72623 10.0333 5.55848 13.2465 5.55848Z" fill="#EA4335"/>
</g>
<defs>
<clipPath id="clip0_273_1650">
<rect width="24.6327" height="24.6327" fill="white" transform="translate(0.683594 0.683594)"/>
</clipPath>
</defs>
</svg>
