<svg width="24" height="25" viewBox="0 0 24 25" fill="none" xmlns="http://www.w3.org/2000/svg">
<path d="M0 12.0025C0 18.6302 5.37281 24.003 12.0005 24.003C18.6282 24.003 24.001 18.6302 24.001 12.0025C24.001 5.37477 18.6282 0.00195312 12.0005 0.00195312C5.37281 0.00195312 0 5.37477 0 12.0025Z" fill="#F00073"/>
<path d="M12.0007 6.90239C13.6507 6.90239 13.8757 6.90239 14.5508 6.90239C15.1508 6.90239 15.4508 7.0524 15.6758 7.1274C15.9758 7.27741 16.2008 7.35241 16.4258 7.57742C16.6509 7.80243 16.8009 8.02744 16.8759 8.32745C16.9509 8.55246 17.0259 8.85248 17.1009 9.4525C17.1009 10.1275 17.1009 10.2775 17.1009 12.0026C17.1009 13.7277 17.1009 13.8777 17.1009 14.5527C17.1009 15.1527 16.9509 15.4528 16.8759 15.6778C16.7259 15.9778 16.6509 16.2028 16.4258 16.4278C16.2008 16.6528 15.9758 16.8028 15.6758 16.8778C15.4508 16.9528 15.1508 17.0278 14.5508 17.1028C13.8757 17.1028 13.7257 17.1028 12.0007 17.1028C10.2756 17.1028 10.1256 17.1028 9.45055 17.1028C8.85052 17.1028 8.55051 16.9528 8.3255 16.8778C8.02549 16.7278 7.80048 16.6528 7.57547 16.4278C7.35046 16.2028 7.20045 15.9778 7.12545 15.6778C7.05045 15.4528 6.97544 15.1527 6.90044 14.5527C6.90044 13.8777 6.90044 13.7277 6.90044 12.0026C6.90044 10.2775 6.90044 10.1275 6.90044 9.4525C6.90044 8.85248 7.05045 8.55246 7.12545 8.32745C7.27546 8.02744 7.35046 7.80243 7.57547 7.57742C7.80048 7.35241 8.02549 7.20241 8.3255 7.1274C8.55051 7.0524 8.85052 6.9774 9.45055 6.90239C10.1256 6.90239 10.3506 6.90239 12.0007 6.90239ZM12.0007 5.77734C10.2756 5.77734 10.1256 5.77734 9.45055 5.77734C8.77552 5.77734 8.3255 5.92735 7.95048 6.07736C7.57547 6.22736 7.20045 6.45237 6.82544 6.82739C6.45042 7.20241 6.30041 7.50242 6.0754 7.95244C5.9254 8.32745 5.85039 8.77747 5.77539 9.4525C5.77539 10.1275 5.77539 10.3525 5.77539 12.0026C5.77539 13.7277 5.77539 13.8777 5.77539 14.5527C5.77539 15.2277 5.9254 15.6778 6.0754 16.0528C6.22541 16.4278 6.45042 16.8028 6.82544 17.1778C7.20045 17.5528 7.50047 17.7029 7.95048 17.9279C8.3255 18.0779 8.77552 18.1529 9.45055 18.2279C10.1256 18.2279 10.3506 18.2279 12.0007 18.2279C13.6507 18.2279 13.8757 18.2279 14.5508 18.2279C15.2258 18.2279 15.6758 18.0779 16.0508 17.9279C16.4258 17.7779 16.8009 17.5528 17.1759 17.1778C17.5509 16.8028 17.7009 16.5028 17.9259 16.0528C18.0759 15.6778 18.1509 15.2277 18.2259 14.5527C18.2259 13.8777 18.2259 13.6527 18.2259 12.0026C18.2259 10.3525 18.2259 10.1275 18.2259 9.4525C18.2259 8.77747 18.0759 8.32745 17.9259 7.95244C17.7759 7.57742 17.5509 7.20241 17.1759 6.82739C16.8009 6.45237 16.5009 6.30237 16.0508 6.07736C15.6758 5.92735 15.2258 5.85235 14.5508 5.77734C13.8757 5.77734 13.7257 5.77734 12.0007 5.77734Z" fill="white"/>
<path d="M12.0007 8.77747C10.2006 8.77747 8.77552 10.2025 8.77552 12.0026C8.77552 13.8027 10.2006 15.2277 12.0007 15.2277C13.8007 15.2277 15.2258 13.8027 15.2258 12.0026C15.2258 10.2025 13.8007 8.77747 12.0007 8.77747ZM12.0007 14.1027C10.8756 14.1027 9.90057 13.2027 9.90057 12.0026C9.90057 10.8776 10.8006 9.90252 12.0007 9.90252C13.1257 9.90252 14.1007 10.8026 14.1007 12.0026C14.1007 13.1277 13.1257 14.1027 12.0007 14.1027Z" fill="white"/>
<path d="M15.3008 9.4525C15.715 9.4525 16.0508 9.1167 16.0508 8.70247C16.0508 8.28824 15.715 7.95244 15.3008 7.95244C14.8866 7.95244 14.5508 8.28824 14.5508 8.70247C14.5508 9.1167 14.8866 9.4525 15.3008 9.4525Z" fill="white"/>
</svg>
