<svg width="24" height="25" viewBox="0 0 24 25" fill="none" xmlns="http://www.w3.org/2000/svg">
<path d="M0 12.0005C0 18.6282 5.37281 24.001 12.0005 24.001C18.6282 24.001 24.001 18.6282 24.001 12.0005C24.001 5.37281 18.6282 0 12.0005 0C5.37281 0 0 5.37281 0 12.0005Z" fill="#2867B2"/>
<path d="M8.70012 18.0005H6.15V9.97517H8.70012V18.0005ZM7.42506 8.85012C6.60003 8.85012 6 8.2501 6 7.42506C6 6.60003 6.67503 6 7.42506 6C8.2501 6 8.85012 6.60003 8.85012 7.42506C8.85012 8.2501 8.2501 8.85012 7.42506 8.85012ZM18.0005 18.0005H15.4504V13.6503C15.4504 12.3753 14.9254 12.0003 14.1753 12.0003C13.4253 12.0003 12.6753 12.6003 12.6753 13.7253V18.0005H10.1252V9.97517H12.5253V11.1002C12.7503 10.5752 13.6503 9.75016 14.9254 9.75016C16.3504 9.75016 17.8505 10.5752 17.8505 13.0503V18.0005H18.0005Z" fill="white"/>
</svg>
