<svg width="24" height="24" viewBox="0 0 24 24" fill="none" xmlns="http://www.w3.org/2000/svg">
<path d="M10 14.0004C10.3259 14.333 10.7148 14.5972 11.1441 14.7776C11.5734 14.958 12.0344 15.0509 12.5 15.0509C12.9656 15.0509 13.4266 14.958 13.8559 14.7776C14.2852 14.5972 14.6741 14.333 15 14.0004L19 10.0004C19.663 9.33734 20.0355 8.43806 20.0355 7.50038C20.0355 6.5627 19.663 5.66342 19 5.00038C18.337 4.33734 17.4377 3.96484 16.5 3.96484C15.5623 3.96484 14.663 4.33734 14 5.00038L13.5 5.50038" stroke="#D4DBE4" stroke-width="2" stroke-linecap="round" stroke-linejoin="round"/>
<path d="M14.0004 10.0017C13.6745 9.66908 13.2855 9.40485 12.8563 9.22447C12.427 9.04409 11.966 8.95117 11.5004 8.95117C11.0347 8.95117 10.5738 9.04409 10.1445 9.22447C9.71523 9.40485 9.32626 9.66908 9.00038 10.0017L5.00038 14.0017C4.33734 14.6647 3.96484 15.564 3.96484 16.5017C3.96484 17.4394 4.33734 18.3386 5.00038 19.0017C5.66342 19.6647 6.5627 20.0372 7.50038 20.0372C8.43806 20.0372 9.33734 19.6647 10.0004 19.0017L10.5004 18.5017" stroke="#D4DBE4" stroke-width="2" stroke-linecap="round" stroke-linejoin="round"/>
</svg>
