<svg width="17" height="17" viewBox="0 0 17 17" fill="none" xmlns="http://www.w3.org/2000/svg">
<path d="M6.83008 3.83301H5.49674C5.12855 3.83301 4.83008 4.13148 4.83008 4.49967V12.4997C4.83008 12.8679 5.12855 13.1663 5.49674 13.1663H6.83008C7.19827 13.1663 7.49674 12.8679 7.49674 12.4997V4.49967C7.49674 4.13148 7.19827 3.83301 6.83008 3.83301Z" stroke="#94A4BC" stroke-linecap="round" stroke-linejoin="round"/>
<path d="M12.1631 3.83301H10.8298C10.4616 3.83301 10.1631 4.13148 10.1631 4.49967V12.4997C10.1631 12.8679 10.4616 13.1663 10.8298 13.1663H12.1631C12.5313 13.1663 12.8298 12.8679 12.8298 12.4997V4.49967C12.8298 4.13148 12.5313 3.83301 12.1631 3.83301Z" stroke="#94A4BC" stroke-linecap="round" stroke-linejoin="round"/>
</svg>
