<svg width="16" height="14" viewBox="0 0 16 14" fill="none" xmlns="http://www.w3.org/2000/svg">
<path d="M11.6825 4.45758C11.421 4.30814 11.0847 4.30814 10.7859 4.45758L8.69366 5.69047L7.27393 6.47505L5.21906 7.70795C4.95753 7.85739 4.62127 7.85739 4.32239 7.70795L2.71588 6.73658C2.45435 6.58714 2.26756 6.28827 2.26756 5.952L2.26756 4.08396C2.26756 3.78508 2.417 3.48616 2.71588 3.29938L4.32239 2.36536C4.58392 2.21592 4.92019 2.21592 5.21906 2.36536L6.82557 3.33673C7.0871 3.48616 7.27389 3.78504 7.27389 4.12131L7.27389 5.3542L8.69361 4.53227L8.69361 3.26203C8.69361 2.96315 8.54417 2.66423 8.2453 2.47745L5.25645 0.721454C4.99493 0.572015 4.65866 0.572015 4.35978 0.721454L1.2962 2.5148C0.997277 2.66423 0.847839 2.96311 0.847839 3.26203L0.847839 6.77397C0.847839 7.07285 0.997277 7.37177 1.29615 7.55855L4.32239 9.31451C4.58392 9.46394 4.92019 9.46394 5.21906 9.31451L7.27393 8.11896L8.69366 7.29703L10.7485 6.10148C11.0101 5.95204 11.3463 5.95204 11.6452 6.10148L13.2517 7.0355C13.5132 7.18494 13.7 7.48381 13.7 7.82008L13.7 9.68812C13.7 9.987 13.5506 10.2859 13.2517 10.4727L11.6825 11.4067C11.421 11.5562 11.0847 11.5562 10.7859 11.4067L9.17936 10.4727C8.91783 10.3233 8.73105 10.0244 8.73105 9.68812L8.73105 8.49257L7.31132 9.31451L7.31132 10.5474C7.31132 10.8463 7.46076 11.1452 7.75964 11.332L10.7859 13.0879C11.0474 13.2374 11.3837 13.2374 11.6825 13.0879L14.7088 11.332C14.9703 11.1825 15.1571 10.8837 15.1571 10.5474L15.1571 6.99811C15.1571 6.69923 15.0077 6.40031 14.7088 6.21353L11.6825 4.45758Z" fill="white"/>
</svg>
