<svg width="140" height="140" viewBox="0 0 140 140" fill="none" xmlns="http://www.w3.org/2000/svg">
<path d="M70.8202 75.3306C70.3419 75.2623 69.7269 75.2623 69.1802 75.3306C57.1536 74.9206 47.5869 65.0806 47.5869 52.9856C47.5869 40.6173 57.5636 30.5723 70.0002 30.5723C82.3686 30.5723 92.4136 40.6173 92.4136 52.9856C92.3452 65.0806 82.8469 74.9206 70.8202 75.3306Z" stroke="#94A4BC" stroke-width="1.5" stroke-linecap="round" stroke-linejoin="round"/>
<path d="M116.057 120.43C103.893 131.568 87.7667 138.334 70 138.334C52.2334 138.334 36.1067 131.568 23.9434 120.43C24.6267 114.007 28.7267 107.72 36.0384 102.8C54.7617 90.3635 85.375 90.3635 103.962 102.8C111.273 107.72 115.373 114.007 116.057 120.43Z" stroke="#94A4BC" stroke-width="1.5" stroke-linecap="round" stroke-linejoin="round"/>
<path d="M70.0003 138.334C107.74 138.334 138.334 107.74 138.334 70.0003C138.334 32.2609 107.74 1.66699 70.0003 1.66699C32.2609 1.66699 1.66699 32.2609 1.66699 70.0003C1.66699 107.74 32.2609 138.334 70.0003 138.334Z" stroke="#94A4BC" stroke-width="1.5" stroke-linecap="round" stroke-linejoin="round"/>
</svg>
