<svg width="14" height="13" viewBox="0 0 14 13" fill="none" xmlns="http://www.w3.org/2000/svg">
<path d="M1.63498 7.33403C1.57894 7.32009 1.51924 7.32739 1.469 7.35432C1.41877 7.38125 1.38211 7.42562 1.36709 7.47765C1.35208 7.52968 1.35994 7.58512 1.38895 7.63176C1.41795 7.67841 1.46572 7.71245 1.52176 7.7264L3.40216 8.19426L1.77565 9.06624C1.72543 9.09319 1.68879 9.13756 1.67378 9.18959C1.65878 9.24162 1.66664 9.29705 1.69564 9.3437C1.72464 9.39035 1.7724 9.42439 1.82842 9.43835C1.88445 9.45231 1.94415 9.44504 1.9944 9.41814L3.62095 8.54612L3.11709 10.2922C3.10208 10.3443 3.10994 10.3997 3.13895 10.4463C3.16795 10.493 3.21572 10.527 3.27176 10.541C3.32779 10.5549 3.38749 10.5476 3.43773 10.5207C3.48797 10.4937 3.52463 10.4494 3.53964 10.3974L4.15672 8.25889L6.78126 6.85186V9.66589L5.09536 11.2314C5.05476 11.2695 5.03208 11.3211 5.03226 11.3747C5.03244 11.4284 5.05547 11.4798 5.09632 11.5177C5.13717 11.5556 5.19252 11.577 5.25029 11.5772C5.30807 11.5774 5.36356 11.5563 5.40467 11.5186L6.78126 10.2404V11.9844C6.78126 12.0382 6.80431 12.0899 6.84533 12.128C6.88636 12.1661 6.942 12.1875 7.00001 12.1875C7.05803 12.1875 7.11367 12.1661 7.15469 12.128C7.19572 12.0899 7.21876 12.0382 7.21876 11.9844V10.2404L8.59536 11.5186C8.63647 11.5563 8.69196 11.5774 8.74973 11.5772C8.8075 11.577 8.86286 11.5556 8.90371 11.5177C8.94456 11.4798 8.96759 11.4284 8.96777 11.3747C8.96795 11.3211 8.94526 11.2696 8.90467 11.2314L7.21876 9.66589V6.85186L9.84331 8.2589L10.4604 10.3974C10.4754 10.4494 10.5121 10.4938 10.5623 10.5207C10.6125 10.5476 10.6722 10.5549 10.7283 10.541C10.7843 10.527 10.8321 10.493 10.8611 10.4463C10.8901 10.3997 10.8979 10.3443 10.8829 10.2922L10.3791 8.54612L12.0056 9.41814C12.0305 9.43149 12.058 9.44016 12.0865 9.44366C12.115 9.44715 12.1439 9.44539 12.1717 9.43849C12.1995 9.43158 12.2255 9.41967 12.2483 9.40342C12.2711 9.38718 12.2902 9.36692 12.3046 9.34381C12.319 9.32069 12.3283 9.29518 12.332 9.26872C12.3358 9.24226 12.3339 9.21537 12.3264 9.18959C12.319 9.16382 12.3061 9.13966 12.2886 9.11849C12.2711 9.09733 12.2493 9.07957 12.2244 9.06624L10.5979 8.19426L12.4783 7.72639C12.5343 7.71245 12.5821 7.67841 12.6111 7.63176C12.6401 7.58511 12.6479 7.52967 12.6329 7.47764C12.6179 7.42561 12.5813 7.38125 12.531 7.35432C12.4808 7.32738 12.4211 7.32009 12.365 7.33403L10.0621 7.90702L7.43758 6.5L10.0621 5.09298L12.365 5.66597C12.4211 5.67991 12.4808 5.67261 12.531 5.64568C12.5813 5.61875 12.6179 5.57438 12.6329 5.52235C12.6479 5.47032 12.6401 5.41488 12.6111 5.36824C12.5821 5.32159 12.5343 5.28755 12.4783 5.2736L10.5979 4.80574L12.2244 3.93375C12.2746 3.9068 12.3112 3.86244 12.3262 3.81041C12.3413 3.75838 12.3334 3.70294 12.3044 3.65629C12.2754 3.60964 12.2276 3.5756 12.1716 3.56164C12.1156 3.54768 12.0559 3.55495 12.0056 3.58186L10.3791 4.45387L10.8829 2.70777C10.8979 2.65574 10.8901 2.6003 10.8611 2.55365C10.8321 2.507 10.7843 2.47296 10.7283 2.45902C10.6722 2.44508 10.6125 2.45238 10.5623 2.47931C10.5121 2.50624 10.4754 2.55061 10.4604 2.60264L9.84331 4.7411L7.21876 6.14814V3.33411L8.90467 1.76862C8.92519 1.74981 8.9415 1.72741 8.95266 1.70272C8.96383 1.67802 8.96962 1.65152 8.96971 1.62475C8.9698 1.59797 8.96419 1.57143 8.9532 1.54668C8.9422 1.52192 8.92605 1.49943 8.90565 1.48049C8.88526 1.46155 8.86104 1.44655 8.83438 1.43634C8.80772 1.42613 8.77914 1.42092 8.7503 1.421C8.72146 1.42108 8.69293 1.42646 8.66634 1.43683C8.63974 1.44719 8.61562 1.46234 8.59536 1.48139L7.21876 2.75964V1.01562C7.21876 0.961753 7.19572 0.910087 7.15469 0.871994C7.11367 0.833901 7.05803 0.8125 7.00001 0.8125C6.942 0.8125 6.88636 0.833901 6.84533 0.871994C6.80431 0.910087 6.78126 0.961753 6.78126 1.01562V2.75964L5.40467 1.48139C5.36353 1.44387 5.30809 1.42296 5.25042 1.4232C5.19276 1.42344 5.13753 1.44482 5.09675 1.48269C5.05598 1.52055 5.03295 1.57183 5.03269 1.62538C5.03243 1.67893 5.05495 1.7304 5.09536 1.76861L6.78126 3.33411V6.14814L4.15672 4.7411L3.53964 2.60264C3.52463 2.55061 3.48797 2.50625 3.43773 2.47932C3.38749 2.45238 3.32779 2.44508 3.27176 2.45903C3.21572 2.47297 3.16795 2.50701 3.13895 2.55366C3.10994 2.60031 3.10208 2.65574 3.11709 2.70777L3.62095 4.45388L1.9944 3.58186C1.94415 3.55496 1.88445 3.54768 1.82842 3.56164C1.7724 3.5756 1.72464 3.60965 1.69564 3.6563C1.66664 3.70295 1.65878 3.75838 1.67378 3.81041C1.68879 3.86244 1.72543 3.90681 1.77565 3.93376L3.40216 4.80574L1.52176 5.27361C1.49386 5.28038 1.46767 5.29221 1.44472 5.30841C1.42176 5.32462 1.40247 5.34487 1.38798 5.36802C1.37348 5.39117 1.36406 5.41675 1.36025 5.4433C1.35644 5.46984 1.35833 5.49682 1.36579 5.52268C1.37325 5.54855 1.38615 5.57279 1.40374 5.59401C1.42133 5.61522 1.44327 5.633 1.46829 5.64632C1.4933 5.65964 1.52091 5.66823 1.54952 5.6716C1.57813 5.67497 1.60717 5.67306 1.63498 5.66597L3.93793 5.09297L6.56245 6.5L3.93793 7.90702L1.63498 7.33403Z" fill="white"/>
</svg>
