<svg width="42" height="42" viewBox="0 0 42 42" fill="none" xmlns="http://www.w3.org/2000/svg">
<g filter="url(#filter0_di_726_3647)">
<path d="M34.1276 24.7057C33.6935 24.7057 33.3416 25.0576 33.3416 25.4917V32.4703C33.3401 33.7721 32.2855 34.827 30.9837 34.8283H8.9299C7.62812 34.827 6.57349 33.7721 6.57196 32.4703V11.9885C6.57349 10.687 7.62812 9.63209 8.9299 9.63055H15.9085C16.3427 9.63055 16.6945 9.2787 16.6945 8.84457C16.6945 8.41075 16.3427 8.05859 15.9085 8.05859H8.9299C6.76047 8.06105 5.00246 9.81907 5 11.9885V32.4706C5.00246 34.6401 6.76047 36.3981 8.9299 36.4005H30.9837C33.1531 36.3981 34.9111 34.6401 34.9136 32.4706V25.4917C34.9136 25.0576 34.5617 24.7057 34.1276 24.7057V24.7057Z" fill="#BFC8D7"/>
</g>
<g filter="url(#filter1_di_726_3647)">
<path d="M34.6027 6.03597C33.2214 4.65468 30.9819 4.65468 29.6007 6.03597L15.5783 20.0583C15.4822 20.1544 15.4128 20.2736 15.3766 20.4044L13.5326 27.0615C13.4568 27.3345 13.5338 27.6268 13.734 27.8273C13.9345 28.0274 14.2268 28.1045 14.4997 28.029L21.1569 26.1847C21.2877 26.1485 21.4068 26.0791 21.5029 25.983L35.525 11.9603C36.9041 10.5781 36.9041 8.34049 35.525 6.95827L34.6027 6.03597ZM17.2909 20.5692L28.7671 9.0927L32.4682 12.7939L20.9917 24.2704L17.2909 20.5692ZM16.5515 22.0528L19.5085 25.01L15.4183 26.1432L16.5515 22.0528ZM34.4135 10.8489L33.58 11.6824L29.8785 7.98097L30.7124 7.1474C31.4796 6.38015 32.7237 6.38015 33.4909 7.1474L34.4135 8.0697C35.1796 8.83787 35.1796 10.081 34.4135 10.8489V10.8489Z" fill="#BFC8D7"/>
</g>
<defs>
<filter id="filter0_di_726_3647" x="0" y="3.05859" width="39.9141" height="38.3418" filterUnits="userSpaceOnUse" color-interpolation-filters="sRGB">
<feFlood flood-opacity="0" result="BackgroundImageFix"/>
<feColorMatrix in="SourceAlpha" type="matrix" values="0 0 0 0 0 0 0 0 0 0 0 0 0 0 0 0 0 0 127 0" result="hardAlpha"/>
<feOffset/>
<feGaussianBlur stdDeviation="2.5"/>
<feComposite in2="hardAlpha" operator="out"/>
<feColorMatrix type="matrix" values="0 0 0 0 0 0 0 0 0 0.583732 0 0 0 0 1 0 0 0 1 0"/>
<feBlend mode="normal" in2="BackgroundImageFix" result="effect1_dropShadow_726_3647"/>
<feBlend mode="normal" in="SourceGraphic" in2="effect1_dropShadow_726_3647" result="shape"/>
<feColorMatrix in="SourceAlpha" type="matrix" values="0 0 0 0 0 0 0 0 0 0 0 0 0 0 0 0 0 0 127 0" result="hardAlpha"/>
<feOffset/>
<feGaussianBlur stdDeviation="1"/>
<feComposite in2="hardAlpha" operator="arithmetic" k2="-1" k3="1"/>
<feColorMatrix type="matrix" values="0 0 0 0 0 0 0 0 0 0.583732 0 0 0 0 1 0 0 0 1 0"/>
<feBlend mode="normal" in2="shape" result="effect2_innerShadow_726_3647"/>
</filter>
<filter id="filter1_di_726_3647" x="8.50391" y="0" width="33.0557" height="33.0566" filterUnits="userSpaceOnUse" color-interpolation-filters="sRGB">
<feFlood flood-opacity="0" result="BackgroundImageFix"/>
<feColorMatrix in="SourceAlpha" type="matrix" values="0 0 0 0 0 0 0 0 0 0 0 0 0 0 0 0 0 0 127 0" result="hardAlpha"/>
<feOffset/>
<feGaussianBlur stdDeviation="2.5"/>
<feComposite in2="hardAlpha" operator="out"/>
<feColorMatrix type="matrix" values="0 0 0 0 0 0 0 0 0 0.583732 0 0 0 0 1 0 0 0 1 0"/>
<feBlend mode="normal" in2="BackgroundImageFix" result="effect1_dropShadow_726_3647"/>
<feBlend mode="normal" in="SourceGraphic" in2="effect1_dropShadow_726_3647" result="shape"/>
<feColorMatrix in="SourceAlpha" type="matrix" values="0 0 0 0 0 0 0 0 0 0 0 0 0 0 0 0 0 0 127 0" result="hardAlpha"/>
<feOffset/>
<feGaussianBlur stdDeviation="1"/>
<feComposite in2="hardAlpha" operator="arithmetic" k2="-1" k3="1"/>
<feColorMatrix type="matrix" values="0 0 0 0 0 0 0 0 0 0.583732 0 0 0 0 1 0 0 0 1 0"/>
<feBlend mode="normal" in2="shape" result="effect2_innerShadow_726_3647"/>
</filter>
</defs>
</svg>
