<svg width="33" height="32" viewBox="0 0 33 32" fill="none" xmlns="http://www.w3.org/2000/svg">
<path d="M16.6603 17.04C16.567 17.0266 16.447 17.0266 16.3403 17.04C13.9936 16.96 12.127 15.04 12.127 12.68C12.127 10.2666 14.0736 8.30664 16.5003 8.30664C18.9136 8.30664 20.8736 10.2666 20.8736 12.68C20.8603 15.04 19.007 16.96 16.6603 17.04Z" stroke="#BFC8D7" stroke-width="1.5" stroke-linecap="round" stroke-linejoin="round"/>
<path d="M25.487 25.8401C23.1137 28.0134 19.967 29.3334 16.5003 29.3334C13.0337 29.3334 9.88701 28.0134 7.51367 25.8401C7.64701 24.5867 8.44701 23.3601 9.87367 22.4001C13.527 19.9734 19.5003 19.9734 23.127 22.4001C24.5537 23.3601 25.3537 24.5867 25.487 25.8401Z" stroke="#BFC8D7" stroke-width="1.5" stroke-linecap="round" stroke-linejoin="round"/>
<path d="M16.5003 29.3327C23.8641 29.3327 29.8337 23.3631 29.8337 15.9993C29.8337 8.63555 23.8641 2.66602 16.5003 2.66602C9.13653 2.66602 3.16699 8.63555 3.16699 15.9993C3.16699 23.3631 9.13653 29.3327 16.5003 29.3327Z" stroke="#BFC8D7" stroke-width="1.5" stroke-linecap="round" stroke-linejoin="round"/>
</svg>
