<svg width="32" height="32" viewBox="0 0 32 32" fill="none" xmlns="http://www.w3.org/2000/svg">
<path fill-rule="evenodd" clip-rule="evenodd" d="M16 30.4C23.9529 30.4 30.4 23.9531 30.4 16C30.4 8.04711 23.9531 1.59997 16 1.59997C8.04711 1.59997 1.59997 8.04711 1.59997 16C1.59997 23.9529 8.04711 30.4 16 30.4ZM16 32C24.8365 32 32 24.8365 32 16C32 7.16338 24.8365 0 16 0C7.16338 0 0 7.16338 0 16C0 24.8365 7.16338 32 16 32Z" fill="#BFC8D7"/>
<path fill-rule="evenodd" clip-rule="evenodd" d="M20.1577 16L12.8 11.0949V20.9053L20.1577 16ZM21.6442 15.0682C22.3093 15.5116 22.3093 16.4887 21.6442 16.932L12.9411 22.7342C12.1969 23.2304 11.1998 22.6967 11.1998 21.8022V10.198C11.1998 9.30349 12.1969 8.76995 12.9411 9.26618L21.6442 15.0682Z" fill="#BFC8D7"/>
</svg>
