<svg width="40" height="40" viewBox="0 0 40 40" fill="none" xmlns="http://www.w3.org/2000/svg">
<g filter="url(#filter0_di_726_3579)">
<path d="M25.8202 34.0019H14.1802C12.8638 34.0508 11.5814 33.5783 10.6115 32.687C9.64153 31.7957 9.06251 30.5577 9.00019 29.2419V23.0019C9.00019 22.7367 9.10554 22.4823 9.29308 22.2948C9.48062 22.1072 9.73497 22.0019 10.0002 22.0019C10.2654 22.0019 10.5198 22.1072 10.7073 22.2948C10.8948 22.4823 11.0002 22.7367 11.0002 23.0019V29.2419C11.0616 30.0273 11.4296 30.7571 12.0246 31.2735C12.6196 31.7899 13.3939 32.0516 14.1802 32.0019H25.8202C26.6065 32.0516 27.3807 31.7899 27.9757 31.2735C28.5708 30.7571 28.9387 30.0273 29.0002 29.2419V23.0019C29.0002 22.7367 29.1055 22.4823 29.2931 22.2948C29.4806 22.1072 29.735 22.0019 30.0002 22.0019C30.2654 22.0019 30.5198 22.1072 30.7073 22.2948C30.8948 22.4823 31.0002 22.7367 31.0002 23.0019V29.2419C30.9379 30.5577 30.3588 31.7957 29.3889 32.687C28.419 33.5783 27.1365 34.0508 25.8202 34.0019ZM33.7102 20.7119C33.8039 20.6189 33.8783 20.5083 33.9291 20.3865C33.9798 20.2646 34.006 20.1339 34.006 20.0019C34.006 19.8699 33.9798 19.7392 33.9291 19.6173C33.8783 19.4955 33.8039 19.3849 33.7102 19.2919L20.7102 6.29189C20.6172 6.19816 20.5066 6.12377 20.3848 6.073C20.2629 6.02223 20.1322 5.99609 20.0002 5.99609C19.8682 5.99609 19.7375 6.02223 19.6156 6.073C19.4938 6.12377 19.3831 6.19816 19.2902 6.29189L6.29019 19.2919C6.10188 19.4802 5.99609 19.7356 5.99609 20.0019C5.99609 20.2682 6.10188 20.5236 6.29019 20.7119C6.47849 20.9002 6.73388 21.006 7.00019 21.006C7.26649 21.006 7.52188 20.9002 7.71019 20.7119L20.0002 8.41189L32.2902 20.7119C32.3832 20.8056 32.4938 20.88 32.6156 20.9308C32.7375 20.9816 32.8682 21.0077 33.0002 21.0077C33.1322 21.0077 33.2629 20.9816 33.3848 20.9308C33.5066 20.88 33.6172 20.8056 33.7102 20.7119Z" fill="#BFC8D7"/>
</g>
<defs>
<filter id="filter0_di_726_3579" x="0.996094" y="0.996094" width="38.0098" height="38.0098" filterUnits="userSpaceOnUse" color-interpolation-filters="sRGB">
<feFlood flood-opacity="0" result="BackgroundImageFix"/>
<feColorMatrix in="SourceAlpha" type="matrix" values="0 0 0 0 0 0 0 0 0 0 0 0 0 0 0 0 0 0 127 0" result="hardAlpha"/>
<feOffset/>
<feGaussianBlur stdDeviation="2.5"/>
<feComposite in2="hardAlpha" operator="out"/>
<feColorMatrix type="matrix" values="0 0 0 0 0 0 0 0 0 0.583732 0 0 0 0 1 0 0 0 1 0"/>
<feBlend mode="normal" in2="BackgroundImageFix" result="effect1_dropShadow_726_3579"/>
<feBlend mode="normal" in="SourceGraphic" in2="effect1_dropShadow_726_3579" result="shape"/>
<feColorMatrix in="SourceAlpha" type="matrix" values="0 0 0 0 0 0 0 0 0 0 0 0 0 0 0 0 0 0 127 0" result="hardAlpha"/>
<feOffset/>
<feGaussianBlur stdDeviation="1"/>
<feComposite in2="hardAlpha" operator="arithmetic" k2="-1" k3="1"/>
<feColorMatrix type="matrix" values="0 0 0 0 0 0 0 0 0 0.583732 0 0 0 0 1 0 0 0 1 0"/>
<feBlend mode="normal" in2="shape" result="effect2_innerShadow_726_3579"/>
</filter>
</defs>
</svg>
