<svg width="32" height="32" viewBox="0 0 32 32" fill="none" xmlns="http://www.w3.org/2000/svg">
<path d="M21.8202 30.0019H10.1802C8.86385 30.0508 7.58139 29.5783 6.61146 28.687C5.64153 27.7957 5.06251 26.5577 5.00019 25.2419V19.0019C5.00019 18.7367 5.10554 18.4823 5.29308 18.2948C5.48062 18.1072 5.73497 18.0019 6.00019 18.0019C6.2654 18.0019 6.51976 18.1072 6.70729 18.2948C6.89483 18.4823 7.00019 18.7367 7.00019 19.0019V25.2419C7.06165 26.0273 7.42962 26.7571 8.02463 27.2735C8.61963 27.7899 9.3939 28.0516 10.1802 28.0019H21.8202C22.6065 28.0516 23.3807 27.7899 23.9757 27.2735C24.5708 26.7571 24.9387 26.0273 25.0002 25.2419V19.0019C25.0002 18.7367 25.1055 18.4823 25.2931 18.2948C25.4806 18.1072 25.735 18.0019 26.0002 18.0019C26.2654 18.0019 26.5198 18.1072 26.7073 18.2948C26.8948 18.4823 27.0002 18.7367 27.0002 19.0019V25.2419C26.9379 26.5577 26.3588 27.7957 25.3889 28.687C24.419 29.5783 23.1365 30.0508 21.8202 30.0019ZM29.7102 16.7119C29.8039 16.6189 29.8783 16.5083 29.9291 16.3865C29.9798 16.2646 30.006 16.1339 30.006 16.0019C30.006 15.8699 29.9798 15.7392 29.9291 15.6173C29.8783 15.4955 29.8039 15.3849 29.7102 15.2919L16.7102 2.29189C16.6172 2.19816 16.5066 2.12377 16.3848 2.073C16.2629 2.02223 16.1322 1.99609 16.0002 1.99609C15.8682 1.99609 15.7375 2.02223 15.6156 2.073C15.4938 2.12377 15.3831 2.19816 15.2902 2.29189L2.29019 15.2919C2.10188 15.4802 1.99609 15.7356 1.99609 16.0019C1.99609 16.2682 2.10188 16.5236 2.29019 16.7119C2.47849 16.9002 2.73388 17.006 3.00019 17.006C3.26649 17.006 3.52188 16.9002 3.71019 16.7119L16.0002 4.41189L28.2902 16.7119C28.3832 16.8056 28.4938 16.88 28.6156 16.9308C28.7375 16.9816 28.8682 17.0077 29.0002 17.0077C29.1322 17.0077 29.2629 16.9816 29.3848 16.9308C29.5066 16.88 29.6172 16.8056 29.7102 16.7119Z" fill="#BFC8D7"/>
</svg>
