<svg width="32" height="32" viewBox="0 0 32 32" fill="none" xmlns="http://www.w3.org/2000/svg">
<g clip-path="url(#clip0_726_3614)">
<path d="M29.1276 19.7057C28.6935 19.7057 28.3416 20.0576 28.3416 20.4917V27.4703C28.3401 28.7721 27.2855 29.827 25.9837 29.8283H3.9299C2.62812 29.827 1.57349 28.7721 1.57196 27.4703V6.98849C1.57349 5.68702 2.62812 4.63209 3.9299 4.63055H10.9085C11.3427 4.63055 11.6945 4.2787 11.6945 3.84457C11.6945 3.41075 11.3427 3.05859 10.9085 3.05859H3.9299C1.76047 3.06105 0.00245619 4.81907 0 6.98849V27.4706C0.00245619 29.6401 1.76047 31.3981 3.9299 31.4005H25.9837C28.1531 31.3981 29.9111 29.6401 29.9136 27.4706V20.4917C29.9136 20.0576 29.5617 19.7057 29.1276 19.7057Z" fill="#BFC8D7"/>
<path d="M29.6027 1.03597C28.2214 -0.345324 25.9819 -0.345324 24.6007 1.03597L10.5783 15.0583C10.4822 15.1544 10.4128 15.2736 10.3766 15.4044L8.53259 22.0615C8.45675 22.3345 8.53382 22.6268 8.73399 22.8273C8.93448 23.0274 9.22677 23.1045 9.49971 23.029L16.1569 21.1847C16.2877 21.1485 16.4068 21.0791 16.5029 20.983L30.525 6.96029C31.9041 5.57808 31.9041 3.34049 30.525 1.95827L29.6027 1.03597ZM12.2909 15.5692L23.7671 4.0927L27.4682 7.79386L15.9917 19.2704L12.2909 15.5692ZM11.5515 17.0528L14.5085 20.01L10.4183 21.1432L11.5515 17.0528ZM29.4135 5.84887L28.58 6.68244L24.8785 2.98097L25.7124 2.1474C26.4796 1.38015 27.7237 1.38015 28.4909 2.1474L29.4135 3.0697C30.1796 3.83787 30.1796 5.08101 29.4135 5.84887Z" fill="#BFC8D7"/>
</g>
<defs>
<clipPath id="clip0_726_3614">
<rect width="32" height="32" fill="white"/>
</clipPath>
</defs>
</svg>
