<svg width="716" height="670" viewBox="0 0 716 670" fill="none" xmlns="http://www.w3.org/2000/svg">
<path d="M384.011 160.666C384.389 160.869 384.86 160.729 385.064 160.351C385.267 159.974 385.127 159.502 384.749 159.299C384.372 159.095 383.9 159.236 383.697 159.613C383.493 159.991 383.634 160.462 384.011 160.666Z" fill="#D4BFDD"/>
<path d="M306.924 148.129C307.301 148.332 307.773 148.192 307.976 147.814C308.18 147.437 308.039 146.965 307.662 146.762C307.284 146.558 306.813 146.699 306.609 147.076C306.406 147.454 306.546 147.925 306.924 148.129Z" fill="#D4BFDD"/>
<path d="M226.796 148.783C227.173 148.987 227.645 148.846 227.848 148.468C228.052 148.091 227.911 147.62 227.534 147.416C227.156 147.212 226.685 147.353 226.481 147.73C226.278 148.108 226.418 148.579 226.796 148.783Z" fill="#D4BFDD"/>
<path d="M164.544 158.429C164.921 158.633 165.393 158.492 165.596 158.115C165.8 157.737 165.659 157.266 165.282 157.062C164.904 156.859 164.433 156.999 164.229 157.377C164.026 157.754 164.166 158.226 164.544 158.429Z" fill="#D4BFDD"/>
<path d="M114.935 174.295C115.312 174.498 115.784 174.358 115.987 173.98C116.191 173.603 116.05 173.131 115.673 172.928C115.295 172.724 114.824 172.865 114.62 173.242C114.416 173.62 114.557 174.091 114.935 174.295Z" fill="#D4BFDD"/>
<path d="M58.8381 198.187C59.2156 198.391 59.6868 198.25 59.8906 197.873C60.0944 197.495 59.9536 197.024 59.5761 196.82C59.1986 196.616 58.7274 196.757 58.5236 197.135C58.3198 197.512 58.4606 197.983 58.8381 198.187Z" fill="#D4BFDD"/>
<path d="M6.19358 267.195C6.57107 267.399 7.0423 267.258 7.24608 266.88C7.44987 266.503 7.30904 266.032 6.93155 265.828C6.55406 265.624 6.08285 265.765 5.87907 266.142C5.67528 266.52 5.81609 266.991 6.19358 267.195Z" fill="#D4BFDD"/>
<path d="M143.457 167.957C143.834 168.16 144.305 168.02 144.509 167.642C144.713 167.265 144.572 166.793 144.195 166.59C143.817 166.386 143.346 166.527 143.142 166.904C142.938 167.282 143.079 167.753 143.457 167.957Z" fill="#D4BFDD"/>
<path d="M225.965 175.257C226.342 175.461 226.814 175.32 227.017 174.943C227.221 174.565 227.08 174.094 226.703 173.89C226.325 173.687 225.854 173.828 225.65 174.205C225.447 174.582 225.587 175.054 225.965 175.257Z" fill="#D4BFDD"/>
<path d="M321.175 179.263C321.553 179.467 322.024 179.326 322.228 178.949C322.431 178.571 322.29 178.1 321.913 177.896C321.536 177.693 321.064 177.833 320.861 178.211C320.657 178.588 320.798 179.06 321.175 179.263Z" fill="#D4BFDD"/>
<path d="M255.206 175.15C255.584 175.354 256.055 175.213 256.259 174.836C256.463 174.458 256.322 173.987 255.944 173.783C255.567 173.579 255.096 173.72 254.892 174.098C254.688 174.475 254.829 174.946 255.206 175.15Z" fill="#D4BFDD"/>
<path d="M397.329 186.89C397.707 187.094 398.178 186.953 398.382 186.576C398.586 186.198 398.445 185.727 398.067 185.523C397.69 185.32 397.219 185.46 397.015 185.838C396.811 186.215 396.952 186.687 397.329 186.89Z" fill="#D4BFDD"/>
<path d="M424.481 200.05C424.859 200.254 425.33 200.113 425.534 199.736C425.737 199.358 425.597 198.887 425.219 198.683C424.842 198.48 424.37 198.62 424.167 198.998C423.963 199.375 424.104 199.847 424.481 200.05Z" fill="#D4BFDD"/>
<path d="M567.134 300.843C567.511 301.047 567.983 300.906 568.186 300.529C568.39 300.151 568.249 299.68 567.872 299.476C567.494 299.273 567.023 299.413 566.819 299.791C566.616 300.168 566.756 300.64 567.134 300.843Z" fill="#D4BFDD"/>
<path d="M579.782 289.576C580.159 289.78 580.63 289.639 580.834 289.261C581.038 288.884 580.897 288.413 580.52 288.209C580.142 288.005 579.671 288.146 579.467 288.523C579.263 288.901 579.404 289.372 579.782 289.576Z" fill="#D4BFDD"/>
<path d="M464.674 266.937C465.052 267.141 465.523 267 465.727 266.623C465.93 266.245 465.79 265.774 465.412 265.57C465.035 265.366 464.563 265.507 464.36 265.885C464.156 266.262 464.297 266.733 464.674 266.937Z" fill="#D4BFDD"/>
<path d="M296.546 186.052C296.924 186.256 297.395 186.115 297.599 185.738C297.802 185.36 297.662 184.889 297.284 184.685C296.907 184.482 296.435 184.622 296.232 185C296.028 185.377 296.169 185.849 296.546 186.052Z" fill="#D4BFDD"/>
<path d="M138.582 189.761C138.959 189.965 139.43 189.824 139.634 189.447C139.838 189.069 139.697 188.598 139.319 188.394C138.942 188.191 138.471 188.331 138.267 188.709C138.063 189.086 138.204 189.558 138.582 189.761Z" fill="#D4BFDD"/>
<path d="M87.1416 209.222C87.5191 209.426 87.9903 209.285 88.1941 208.908C88.3979 208.53 88.257 208.059 87.8796 207.855C87.5021 207.652 87.0309 207.792 86.8271 208.17C86.6233 208.547 86.7641 209.019 87.1416 209.222Z" fill="#D4BFDD"/>
<path d="M46.6098 327.632C46.9873 327.836 47.4586 327.695 47.6623 327.318C47.8661 326.94 47.7253 326.469 47.3478 326.265C46.9703 326.062 46.4991 326.202 46.2953 326.58C46.0915 326.957 46.2323 327.429 46.6098 327.632Z" fill="#D4BFDD"/>
<path d="M70.7253 225.734C71.1028 225.938 71.574 225.797 71.7778 225.42C71.9816 225.042 71.8408 224.571 71.4633 224.367C71.0858 224.163 70.6146 224.304 70.4108 224.682C70.207 225.059 70.3478 225.53 70.7253 225.734Z" fill="#D4BFDD"/>
<path d="M65.5034 316.039C65.8809 316.243 66.3521 316.102 66.5559 315.724C66.7597 315.347 66.6189 314.876 66.2414 314.672C65.8639 314.468 65.3927 314.609 65.1889 314.986C64.9851 315.364 65.1259 315.835 65.5034 316.039Z" fill="#D4BFDD"/>
<path d="M78.1894 283.441C78.5669 283.645 79.0381 283.504 79.2419 283.127C79.4457 282.749 79.3049 282.278 78.9274 282.074C78.5499 281.87 78.0787 282.011 77.8749 282.389C77.6711 282.766 77.8119 283.237 78.1894 283.441Z" fill="#D4BFDD"/>
<path d="M165.99 407.968C166.368 408.172 166.839 408.031 167.043 407.654C167.246 407.276 167.106 406.805 166.728 406.601C166.351 406.398 165.879 406.538 165.676 406.916C165.472 407.293 165.613 407.765 165.99 407.968Z" fill="#D4BFDD"/>
<path d="M186.844 410.009C187.222 410.213 187.693 410.072 187.897 409.695C188.101 409.317 187.96 408.846 187.582 408.642C187.205 408.439 186.734 408.579 186.53 408.957C186.326 409.334 186.467 409.806 186.844 410.009Z" fill="#D4BFDD"/>
<path d="M387.254 482.396C387.632 482.6 388.103 482.459 388.307 482.082C388.511 481.704 388.37 481.233 387.992 481.029C387.615 480.825 387.144 480.966 386.94 481.344C386.736 481.721 386.877 482.192 387.254 482.396Z" fill="#D4BFDD"/>
<path d="M262.685 446.32C263.063 446.524 263.534 446.383 263.738 446.005C263.942 445.628 263.801 445.157 263.423 444.953C263.046 444.749 262.575 444.89 262.371 445.267C262.167 445.645 262.308 446.116 262.685 446.32Z" fill="#D4BFDD"/>
<path d="M437.162 490.3C437.539 490.504 438.01 490.363 438.214 489.986C438.418 489.608 438.277 489.137 437.9 488.933C437.522 488.73 437.051 488.87 436.847 489.248C436.643 489.625 436.784 490.097 437.162 490.3Z" fill="#D4BFDD"/>
<path d="M328.973 491.535C329.351 491.739 329.822 491.598 330.025 491.22C330.229 490.843 330.088 490.372 329.711 490.168C329.333 489.964 328.862 490.105 328.658 490.482C328.455 490.86 328.596 491.331 328.973 491.535Z" fill="#D4BFDD"/>
<path d="M528.751 494.07C529.129 494.274 529.6 494.133 529.804 493.755C530.007 493.378 529.867 492.907 529.489 492.703C529.112 492.499 528.64 492.64 528.437 493.017C528.233 493.395 528.374 493.866 528.751 494.07Z" fill="#D4BFDD"/>
<path d="M589.348 466.537C589.726 466.741 590.197 466.6 590.401 466.222C590.604 465.845 590.464 465.374 590.086 465.17C589.709 464.966 589.237 465.107 589.034 465.484C588.83 465.862 588.971 466.333 589.348 466.537Z" fill="#D4BFDD"/>
<path d="M595.969 340.631C596.347 340.834 596.818 340.694 597.022 340.316C597.226 339.939 597.085 339.467 596.707 339.264C596.33 339.06 595.859 339.201 595.655 339.578C595.451 339.956 595.592 340.427 595.969 340.631Z" fill="#D4BFDD"/>
<path d="M581.178 311.517C581.556 311.721 582.027 311.58 582.231 311.203C582.435 310.825 582.294 310.354 581.916 310.15C581.539 309.946 581.068 310.087 580.864 310.465C580.66 310.842 580.801 311.313 581.178 311.517Z" fill="#D4BFDD"/>
<path d="M611.088 463.873C611.466 464.076 611.937 463.936 612.141 463.558C612.345 463.181 612.204 462.709 611.826 462.506C611.449 462.302 610.978 462.443 610.774 462.82C610.57 463.198 610.711 463.669 611.088 463.873Z" fill="#D4BFDD"/>
<path d="M622.932 358.439C623.309 358.643 623.781 358.502 623.984 358.125C624.188 357.747 624.047 357.276 623.67 357.072C623.292 356.868 622.821 357.009 622.617 357.387C622.414 357.764 622.554 358.235 622.932 358.439Z" fill="#D4BFDD"/>
<path d="M615.799 483.353C616.177 483.557 616.648 483.416 616.852 483.039C617.055 482.661 616.915 482.19 616.537 481.986C616.16 481.782 615.688 481.923 615.485 482.301C615.281 482.678 615.422 483.149 615.799 483.353Z" fill="#D4BFDD"/>
<path d="M603.965 359.951C604.343 360.155 604.814 360.014 605.018 359.636C605.222 359.259 605.081 358.788 604.703 358.584C604.326 358.38 603.855 358.521 603.651 358.898C603.447 359.276 603.588 359.747 603.965 359.951Z" fill="#D4BFDD"/>
<path d="M636.072 391.021C636.449 391.225 636.921 391.084 637.125 390.707C637.328 390.329 637.187 389.858 636.81 389.654C636.432 389.45 635.961 389.591 635.757 389.969C635.554 390.346 635.695 390.817 636.072 391.021Z" fill="#D4BFDD"/>
<path d="M605.015 509.357C605.392 509.561 605.863 509.42 606.067 509.043C606.271 508.665 606.13 508.194 605.753 507.99C605.375 507.786 604.904 507.927 604.7 508.305C604.496 508.682 604.637 509.153 605.015 509.357Z" fill="#D4BFDD"/>
<path d="M599.466 348.97C599.844 349.174 600.315 349.033 600.519 348.656C600.723 348.278 600.582 347.807 600.204 347.603C599.827 347.4 599.356 347.54 599.152 347.918C598.948 348.295 599.089 348.767 599.466 348.97Z" fill="#D4BFDD"/>
<path d="M574.085 496.75C574.463 496.953 574.934 496.813 575.138 496.435C575.342 496.058 575.201 495.586 574.823 495.383C574.446 495.179 573.975 495.32 573.771 495.697C573.567 496.075 573.708 496.546 574.085 496.75Z" fill="#D4BFDD"/>
<path d="M612.604 400.365C612.981 400.569 613.452 400.428 613.656 400.05C613.86 399.673 613.719 399.202 613.342 398.998C612.964 398.794 612.493 398.935 612.289 399.312C612.085 399.69 612.226 400.161 612.604 400.365Z" fill="#D4BFDD"/>
<path d="M549.951 491.994C550.328 492.198 550.8 492.057 551.003 491.679C551.207 491.302 551.066 490.831 550.689 490.627C550.311 490.423 549.84 490.564 549.636 490.941C549.433 491.319 549.573 491.79 549.951 491.994Z" fill="#D4BFDD"/>
<path d="M377.894 226.164C378.271 226.368 378.743 226.227 378.946 225.849C379.15 225.472 379.009 225.001 378.632 224.797C378.254 224.593 377.783 224.734 377.579 225.111C377.376 225.489 377.516 225.96 377.894 226.164Z" fill="#D4BFDD"/>
<path d="M200.185 202.879C200.563 203.082 201.034 202.942 201.238 202.564C201.441 202.187 201.301 201.715 200.923 201.512C200.546 201.308 200.074 201.449 199.871 201.826C199.667 202.204 199.808 202.675 200.185 202.879Z" fill="#D4BFDD"/>
<path d="M109.035 224.562C109.413 224.766 109.884 224.625 110.088 224.248C110.292 223.87 110.151 223.399 109.773 223.195C109.396 222.991 108.925 223.132 108.721 223.51C108.517 223.887 108.658 224.358 109.035 224.562Z" fill="#D4BFDD"/>
<path d="M66.7331 285.142C67.1106 285.346 67.5818 285.205 67.7856 284.828C67.9894 284.45 67.8486 283.979 67.4711 283.775C67.0936 283.571 66.6224 283.712 66.4186 284.09C66.2148 284.467 66.3556 284.938 66.7331 285.142Z" fill="#D4BFDD"/>
<path d="M114.102 386.359C114.48 386.563 114.951 386.422 115.155 386.045C115.359 385.667 115.218 385.196 114.84 384.992C114.463 384.788 113.992 384.929 113.788 385.307C113.584 385.684 113.725 386.155 114.102 386.359Z" fill="#D4BFDD"/>
<path d="M101.28 376.894C101.657 377.098 102.128 376.957 102.332 376.58C102.536 376.202 102.395 375.731 102.017 375.527C101.64 375.323 101.169 375.464 100.965 375.842C100.761 376.219 100.902 376.69 101.28 376.894Z" fill="#D4BFDD"/>
<path d="M242.625 470.908C243.002 471.112 243.473 470.971 243.677 470.593C243.881 470.216 243.74 469.745 243.363 469.541C242.985 469.337 242.514 469.478 242.31 469.855C242.106 470.233 242.247 470.704 242.625 470.908Z" fill="#D4BFDD"/>
<path d="M365.113 514.521C365.49 514.725 365.962 514.584 366.165 514.207C366.369 513.829 366.228 513.358 365.851 513.154C365.473 512.95 365.002 513.091 364.798 513.469C364.595 513.846 364.735 514.317 365.113 514.521Z" fill="#D4BFDD"/>
<path d="M350.558 519.408C350.936 519.612 351.407 519.471 351.611 519.093C351.814 518.716 351.674 518.245 351.296 518.041C350.919 517.837 350.447 517.978 350.244 518.355C350.04 518.733 350.181 519.204 350.558 519.408Z" fill="#D4BFDD"/>
<path d="M518.929 542.004C519.306 542.207 519.778 542.067 519.981 541.689C520.185 541.312 520.044 540.84 519.667 540.637C519.289 540.433 518.818 540.574 518.614 540.951C518.411 541.329 518.551 541.8 518.929 542.004Z" fill="#D4BFDD"/>
<path d="M575.576 521.99C575.954 522.194 576.425 522.053 576.629 521.675C576.833 521.298 576.692 520.827 576.314 520.623C575.937 520.419 575.466 520.56 575.262 520.937C575.058 521.315 575.199 521.786 575.576 521.99Z" fill="#D4BFDD"/>
<path d="M579.487 375.148C579.864 375.352 580.335 375.211 580.539 374.834C580.743 374.456 580.602 373.985 580.225 373.781C579.847 373.577 579.376 373.718 579.172 374.096C578.968 374.473 579.109 374.944 579.487 375.148Z" fill="#D4BFDD"/>
<path d="M439.818 247.781C440.196 247.985 440.667 247.844 440.871 247.466C441.074 247.089 440.934 246.618 440.556 246.414C440.179 246.21 439.707 246.351 439.504 246.728C439.3 247.106 439.441 247.577 439.818 247.781Z" fill="#D4BFDD"/>
<path d="M305.769 220.267C306.147 220.471 306.618 220.33 306.822 219.953C307.025 219.575 306.884 219.104 306.507 218.9C306.13 218.696 305.658 218.837 305.455 219.215C305.251 219.592 305.392 220.063 305.769 220.267Z" fill="#D4BFDD"/>
<path d="M391.458 200.931C391.835 201.135 392.306 200.994 392.51 200.617C392.714 200.239 392.573 199.768 392.196 199.564C391.818 199.361 391.347 199.501 391.143 199.879C390.939 200.256 391.08 200.728 391.458 200.931Z" fill="#D4BFDD"/>
<path d="M575.646 298.873C576.024 299.076 576.495 298.936 576.699 298.558C576.902 298.181 576.762 297.709 576.384 297.506C576.007 297.302 575.535 297.443 575.332 297.82C575.128 298.198 575.269 298.669 575.646 298.873Z" fill="#D4BFDD"/>
<path d="M467.605 235.138C467.982 235.342 468.454 235.201 468.657 234.824C468.861 234.446 468.72 233.975 468.343 233.771C467.965 233.568 467.494 233.708 467.29 234.086C467.087 234.463 467.227 234.935 467.605 235.138Z" fill="#D4BFDD"/>
<path d="M587.897 314.808C588.274 315.012 588.746 314.871 588.949 314.494C589.153 314.116 589.012 313.645 588.635 313.441C588.257 313.237 587.786 313.378 587.582 313.756C587.379 314.133 587.52 314.605 587.897 314.808Z" fill="#D4BFDD"/>
<path d="M476.424 221.974C476.802 222.178 477.273 222.037 477.477 221.66C477.68 221.282 477.54 220.811 477.162 220.607C476.785 220.403 476.313 220.544 476.11 220.922C475.906 221.299 476.047 221.771 476.424 221.974Z" fill="#D4BFDD"/>
<path d="M610.991 345.812C611.369 346.016 611.84 345.875 612.044 345.498C612.248 345.12 612.107 344.649 611.729 344.445C611.352 344.241 610.881 344.382 610.677 344.76C610.473 345.137 610.614 345.608 610.991 345.812Z" fill="#D4BFDD"/>
<path d="M614.003 374.365C614.381 374.569 614.852 374.428 615.056 374.05C615.259 373.673 615.119 373.202 614.741 372.998C614.364 372.794 613.892 372.935 613.689 373.312C613.485 373.69 613.626 374.161 614.003 374.365Z" fill="#D4BFDD"/>
<path d="M201.672 219.132C202.05 219.336 202.521 219.195 202.725 218.818C202.928 218.44 202.788 217.969 202.41 217.765C202.033 217.562 201.561 217.703 201.358 218.08C201.154 218.457 201.295 218.929 201.672 219.132Z" fill="#D4BFDD"/>
<path d="M142.464 255.027C142.841 255.231 143.313 255.09 143.516 254.713C143.72 254.335 143.579 253.864 143.202 253.66C142.824 253.456 142.353 253.597 142.149 253.975C141.946 254.352 142.086 254.823 142.464 255.027Z" fill="#D4BFDD"/>
<path d="M129.49 282.228C129.867 282.432 130.338 282.291 130.542 281.914C130.746 281.536 130.605 281.065 130.228 280.861C129.85 280.657 129.379 280.798 129.175 281.176C128.971 281.553 129.112 282.024 129.49 282.228Z" fill="#D4BFDD"/>
<path d="M202.068 366.482C202.445 366.686 202.916 366.545 203.12 366.168C203.324 365.79 203.183 365.319 202.806 365.115C202.428 364.911 201.957 365.052 201.753 365.43C201.549 365.807 201.69 366.278 202.068 366.482Z" fill="#D4BFDD"/>
<path d="M204.393 371.984C204.771 372.188 205.242 372.047 205.446 371.67C205.65 371.292 205.509 370.821 205.131 370.617C204.754 370.413 204.283 370.554 204.079 370.932C203.875 371.309 204.016 371.78 204.393 371.984Z" fill="#D4BFDD"/>
<path d="M383.224 452.359C383.601 452.563 384.072 452.422 384.276 452.045C384.48 451.667 384.339 451.196 383.961 450.992C383.584 450.788 383.113 450.929 382.909 451.307C382.705 451.684 382.846 452.155 383.224 452.359Z" fill="#D4BFDD"/>
<path d="M422.939 454.822C423.316 455.026 423.787 454.885 423.991 454.507C424.195 454.13 424.054 453.659 423.677 453.455C423.299 453.251 422.828 453.392 422.624 453.769C422.42 454.147 422.561 454.618 422.939 454.822Z" fill="#D4BFDD"/>
<path d="M390.188 511.506C390.565 511.709 391.036 511.569 391.24 511.191C391.444 510.814 391.303 510.342 390.926 510.139C390.548 509.935 390.077 510.076 389.873 510.453C389.669 510.831 389.81 511.302 390.188 511.506Z" fill="#D4BFDD"/>
<path d="M511.634 447.699C512.011 447.903 512.482 447.762 512.686 447.384C512.89 447.007 512.749 446.536 512.371 446.332C511.994 446.128 511.523 446.269 511.319 446.646C511.115 447.024 511.256 447.495 511.634 447.699Z" fill="#D4BFDD"/>
<path d="M601.123 398.632C601.501 398.836 601.972 398.695 602.176 398.318C602.379 397.94 602.239 397.469 601.861 397.265C601.484 397.062 601.012 397.203 600.809 397.58C600.605 397.957 600.746 398.429 601.123 398.632Z" fill="#D4BFDD"/>
<path d="M509.199 354.302C509.577 354.506 510.048 354.365 510.252 353.988C510.456 353.61 510.315 353.139 509.937 352.935C509.56 352.732 509.089 352.872 508.885 353.25C508.681 353.627 508.822 354.099 509.199 354.302Z" fill="#D4BFDD"/>
<path d="M317.683 276.683C318.061 276.887 318.532 276.746 318.736 276.369C318.939 275.991 318.799 275.52 318.421 275.316C318.044 275.112 317.572 275.253 317.369 275.631C317.165 276.008 317.306 276.479 317.683 276.683Z" fill="#D4BFDD"/>
<path d="M271.19 263.174C271.567 263.377 272.038 263.236 272.242 262.859C272.446 262.481 272.305 262.01 271.928 261.806C271.55 261.603 271.079 261.744 270.875 262.121C270.671 262.499 270.812 262.97 271.19 263.174Z" fill="#D4BFDD"/>
<path d="M193.959 299.543C194.337 299.746 194.808 299.606 195.012 299.228C195.215 298.851 195.075 298.379 194.697 298.176C194.32 297.972 193.848 298.113 193.645 298.49C193.441 298.868 193.582 299.339 193.959 299.543Z" fill="#D4BFDD"/>
<path d="M230.377 332.33C230.755 332.534 231.226 332.393 231.43 332.015C231.634 331.638 231.493 331.167 231.115 330.963C230.738 330.759 230.267 330.9 230.063 331.277C229.859 331.655 230 332.126 230.377 332.33Z" fill="#D4BFDD"/>
<path d="M377.906 403.754C378.283 403.957 378.754 403.817 378.958 403.439C379.162 403.062 379.021 402.59 378.644 402.387C378.266 402.183 377.795 402.324 377.591 402.701C377.387 403.079 377.528 403.55 377.906 403.754Z" fill="#D4BFDD"/>
<path d="M470.087 470.394C470.464 470.598 470.935 470.457 471.139 470.08C471.343 469.702 471.202 469.231 470.824 469.027C470.447 468.823 469.976 468.964 469.772 469.342C469.568 469.719 469.709 470.19 470.087 470.394Z" fill="#D4BFDD"/>
<path d="M349.591 123.05C349.968 123.254 350.439 123.113 350.643 122.736C350.847 122.358 350.706 121.887 350.329 121.683C349.951 121.48 349.48 121.62 349.276 121.998C349.072 122.375 349.213 122.847 349.591 123.05Z" fill="#D4BFDD"/>
<path d="M541.533 213.371C541.91 213.575 542.381 213.434 542.585 213.056C542.789 212.679 542.648 212.208 542.271 212.004C541.893 211.8 541.422 211.941 541.218 212.318C541.014 212.696 541.155 213.167 541.533 213.371Z" fill="#D4BFDD"/>
<path d="M643.831 284.259C644.209 284.463 644.68 284.322 644.884 283.945C645.088 283.567 644.947 283.096 644.569 282.892C644.192 282.689 643.721 282.829 643.517 283.207C643.313 283.584 643.454 284.056 643.831 284.259Z" fill="#D4BFDD"/>
<path d="M467.003 547.236C467.38 547.44 467.851 547.299 468.055 546.921C468.259 546.544 468.118 546.073 467.741 545.869C467.363 545.665 466.892 545.806 466.688 546.183C466.484 546.561 466.625 547.032 467.003 547.236Z" fill="#D4BFDD"/>
<path d="M296.216 529.629C296.593 529.832 297.065 529.692 297.268 529.314C297.472 528.937 297.331 528.465 296.954 528.262C296.576 528.058 296.105 528.199 295.901 528.576C295.698 528.954 295.838 529.425 296.216 529.629Z" fill="#D4BFDD"/>
<path d="M75.9883 430.49C76.3658 430.694 76.837 430.553 77.0408 430.175C77.2446 429.798 77.1037 429.327 76.7262 429.123C76.3487 428.919 75.8775 429.06 75.6737 429.437C75.47 429.815 75.6108 430.286 75.9883 430.49Z" fill="#D4BFDD"/>
<path d="M117.48 309.175C117.857 309.379 118.329 309.238 118.532 308.861C118.736 308.483 118.595 308.012 118.218 307.808C117.84 307.605 117.369 307.745 117.165 308.123C116.962 308.5 117.102 308.972 117.48 309.175Z" fill="#D4BFDD"/>
<path d="M188.112 380.681C188.489 380.885 188.961 380.744 189.164 380.367C189.368 379.989 189.227 379.518 188.85 379.314C188.472 379.111 188.001 379.251 187.797 379.629C187.593 380.006 187.734 380.478 188.112 380.681Z" fill="#D4BFDD"/>
<path d="M387.266 455.703C387.644 455.907 388.115 455.766 388.319 455.388C388.522 455.011 388.382 454.54 388.004 454.336C387.627 454.132 387.155 454.273 386.952 454.65C386.748 455.028 386.889 455.499 387.266 455.703Z" fill="#D4BFDD"/>
<path d="M512.644 441.843C513.021 442.047 513.493 441.906 513.696 441.529C513.9 441.151 513.759 440.68 513.382 440.476C513.004 440.273 512.533 440.413 512.329 440.791C512.126 441.168 512.266 441.64 512.644 441.843Z" fill="#D4BFDD"/>
<path d="M424.384 417.093C424.761 417.297 425.233 417.156 425.436 416.779C425.64 416.401 425.499 415.93 425.122 415.726C424.744 415.523 424.273 415.663 424.069 416.041C423.866 416.418 424.007 416.89 424.384 417.093Z" fill="#D4BFDD"/>
<path d="M432.8 421.634C433.177 421.838 433.648 421.697 433.852 421.32C434.056 420.942 433.915 420.471 433.538 420.267C433.16 420.064 432.689 420.204 432.485 420.582C432.281 420.959 432.422 421.431 432.8 421.634Z" fill="#D4BFDD"/>
<path d="M482.907 491.715C483.284 491.918 483.755 491.777 483.959 491.4C484.163 491.022 484.022 490.551 483.645 490.347C483.267 490.144 482.796 490.285 482.592 490.662C482.388 491.04 482.529 491.511 482.907 491.715Z" fill="#D4BFDD"/>
<path d="M556.791 373.656C557.169 373.86 557.64 373.719 557.844 373.341C558.048 372.964 557.907 372.493 557.529 372.289C557.152 372.085 556.681 372.226 556.477 372.603C556.273 372.981 556.414 373.452 556.791 373.656Z" fill="#D4BFDD"/>
<path d="M471.996 308.455C472.373 308.659 472.844 308.518 473.048 308.14C473.252 307.763 473.111 307.292 472.734 307.088C472.356 306.884 471.885 307.025 471.681 307.402C471.477 307.78 471.618 308.251 471.996 308.455Z" fill="#D4BFDD"/>
<path d="M440.265 284.048C440.643 284.252 441.114 284.111 441.318 283.734C441.521 283.356 441.381 282.885 441.003 282.681C440.626 282.478 440.154 282.619 439.951 282.996C439.747 283.374 439.888 283.845 440.265 284.048Z" fill="#D4BFDD"/>
<path d="M255.227 259.625C255.605 259.828 256.076 259.688 256.28 259.31C256.484 258.933 256.343 258.461 255.965 258.258C255.588 258.054 255.117 258.195 254.913 258.572C254.709 258.95 254.85 259.421 255.227 259.625Z" fill="#D4BFDD"/>
<path d="M244.11 223.504C244.488 223.707 244.959 223.567 245.163 223.189C245.367 222.812 245.226 222.34 244.848 222.137C244.471 221.933 244 222.074 243.796 222.451C243.592 222.829 243.733 223.3 244.11 223.504Z" fill="#D4BFDD"/>
<path d="M223.083 383.451C223.46 383.655 223.932 383.514 224.135 383.136C224.339 382.759 224.198 382.288 223.821 382.084C223.443 381.88 222.972 382.021 222.768 382.398C222.565 382.776 222.706 383.247 223.083 383.451Z" fill="#D4BFDD"/>
<path d="M240.177 444.371C240.555 444.575 241.026 444.434 241.23 444.056C241.434 443.679 241.293 443.208 240.915 443.004C240.538 442.8 240.067 442.941 239.863 443.318C239.659 443.696 239.8 444.167 240.177 444.371Z" fill="#D4BFDD"/>
<path d="M332.551 200.906C332.928 201.11 333.399 200.969 333.603 200.591C333.807 200.214 333.666 199.743 333.289 199.539C332.911 199.335 332.44 199.476 332.236 199.853C332.032 200.231 332.173 200.702 332.551 200.906Z" fill="#D4BFDD"/>
<path d="M311.131 194.8C311.508 195.004 311.979 194.863 312.183 194.486C312.387 194.108 312.246 193.637 311.869 193.433C311.491 193.23 311.02 193.37 310.816 193.748C310.612 194.125 310.753 194.597 311.131 194.8Z" fill="#D4BFDD"/>
<path d="M273.368 186.777C273.746 186.981 274.217 186.84 274.421 186.462C274.625 186.085 274.484 185.614 274.106 185.41C273.729 185.206 273.258 185.347 273.054 185.725C272.85 186.102 272.991 186.573 273.368 186.777Z" fill="#D4BFDD"/>
<path d="M232.183 173.04C232.466 173.193 232.82 173.088 232.972 172.804C233.125 172.521 233.02 172.168 232.736 172.015C232.453 171.862 232.1 171.968 231.947 172.251C231.794 172.534 231.9 172.887 232.183 173.04Z" fill="#D4BFDD"/>
<path d="M162.815 170.625C162.98 170.714 163.186 170.652 163.275 170.487C163.364 170.322 163.303 170.116 163.137 170.027C162.972 169.938 162.766 169.999 162.677 170.164C162.588 170.329 162.649 170.536 162.815 170.625Z" fill="#D4BFDD"/>
<path d="M147.141 173.804C147.306 173.894 147.512 173.832 147.601 173.667C147.69 173.502 147.629 173.296 147.464 173.206C147.298 173.117 147.092 173.179 147.003 173.344C146.914 173.509 146.976 173.715 147.141 173.804Z" fill="#D4BFDD"/>
<path d="M132.565 183.535C132.707 183.611 132.884 183.558 132.96 183.417C133.037 183.275 132.984 183.098 132.842 183.021C132.7 182.945 132.523 182.998 132.447 183.139C132.37 183.281 132.423 183.458 132.565 183.535Z" fill="#D4BFDD"/>
<path d="M112.784 199.939C112.996 200.054 113.261 199.975 113.376 199.762C113.49 199.55 113.411 199.285 113.199 199.17C112.987 199.056 112.722 199.135 112.607 199.347C112.492 199.56 112.571 199.825 112.784 199.939Z" fill="#D4BFDD"/>
<path d="M94.3266 216.35C94.5861 216.49 94.9101 216.393 95.0502 216.134C95.1903 215.874 95.0935 215.55 94.8339 215.41C94.5744 215.27 94.2504 215.367 94.1103 215.626C93.9702 215.886 94.0671 216.21 94.3266 216.35Z" fill="#D4BFDD"/>
<path d="M83.6557 227.633C83.9624 227.799 84.3453 227.684 84.5108 227.378C84.6764 227.071 84.562 226.688 84.2553 226.522C83.9486 226.357 83.5657 226.471 83.4001 226.778C83.2346 227.085 83.349 227.468 83.6557 227.633Z" fill="#D4BFDD"/>
<path d="M75.6789 245.782C76.0328 245.973 76.4746 245.841 76.6656 245.487C76.8567 245.133 76.7247 244.691 76.3708 244.5C76.0169 244.309 75.5751 244.441 75.3841 244.795C75.193 245.149 75.325 245.591 75.6789 245.782Z" fill="#D4BFDD"/>
<path d="M69.563 242.702C69.9169 242.893 70.3586 242.761 70.5497 242.407C70.7407 242.053 70.6087 241.611 70.2548 241.42C69.9009 241.229 69.4591 241.361 69.2681 241.715C69.077 242.069 69.2091 242.511 69.563 242.702Z" fill="#D4BFDD"/>
<path d="M100.957 198.855C101.193 198.982 101.487 198.894 101.615 198.658C101.742 198.422 101.654 198.128 101.418 198C101.182 197.873 100.888 197.961 100.76 198.197C100.633 198.433 100.721 198.727 100.957 198.855Z" fill="#D4BFDD"/>
<path d="M108.709 198.289C108.921 198.404 109.186 198.324 109.301 198.112C109.415 197.9 109.336 197.635 109.124 197.52C108.911 197.405 108.646 197.485 108.532 197.697C108.417 197.909 108.496 198.174 108.709 198.289Z" fill="#D4BFDD"/>
<path d="M77.2624 216.791C77.5691 216.957 77.952 216.843 78.1175 216.536C78.2831 216.229 78.1687 215.846 77.862 215.681C77.5553 215.515 77.1724 215.629 77.0068 215.936C76.8413 216.243 76.9557 216.626 77.2624 216.791Z" fill="#D4BFDD"/>
<path d="M77.3061 256.259C77.6836 256.463 78.1548 256.322 78.3586 255.945C78.5624 255.567 78.4216 255.096 78.0441 254.892C77.6666 254.689 77.1954 254.829 76.9916 255.207C76.7878 255.584 76.9286 256.056 77.3061 256.259Z" fill="#D4BFDD"/>
<path d="M118.71 290.75C119.087 290.953 119.558 290.813 119.762 290.435C119.966 290.058 119.825 289.586 119.448 289.383C119.07 289.179 118.599 289.32 118.395 289.697C118.191 290.075 118.332 290.546 118.71 290.75Z" fill="#D4BFDD"/>
<path d="M130.041 277.832C130.418 278.035 130.89 277.895 131.093 277.517C131.297 277.14 131.156 276.668 130.779 276.465C130.401 276.261 129.93 276.402 129.726 276.779C129.523 277.157 129.664 277.628 130.041 277.832Z" fill="#D4BFDD"/>
<path d="M110.228 255.774C110.581 255.965 111.023 255.833 111.214 255.479C111.405 255.125 111.273 254.683 110.919 254.492C110.565 254.301 110.124 254.433 109.933 254.787C109.742 255.141 109.874 255.583 110.228 255.774Z" fill="#D4BFDD"/>
<path d="M113.056 293.761C113.434 293.965 113.905 293.824 114.109 293.447C114.313 293.069 114.172 292.598 113.794 292.394C113.417 292.191 112.946 292.331 112.742 292.709C112.538 293.086 112.679 293.558 113.056 293.761Z" fill="#D4BFDD"/>
<path d="M138.734 304.037C139.111 304.241 139.583 304.1 139.786 303.722C139.99 303.345 139.849 302.874 139.472 302.67C139.094 302.466 138.623 302.607 138.419 302.984C138.216 303.362 138.356 303.833 138.734 304.037Z" fill="#D4BFDD"/>
<path d="M150.79 324.73C151.168 324.934 151.639 324.793 151.843 324.416C152.047 324.038 151.906 323.567 151.528 323.363C151.151 323.159 150.68 323.3 150.476 323.678C150.272 324.055 150.413 324.526 150.79 324.73Z" fill="#D4BFDD"/>
<path d="M172.744 333.934C173.098 334.125 173.54 333.993 173.731 333.639C173.922 333.285 173.79 332.844 173.436 332.653C173.082 332.462 172.64 332.594 172.449 332.947C172.258 333.301 172.39 333.743 172.744 333.934Z" fill="#D4BFDD"/>
<path d="M191.036 354.622C191.319 354.775 191.672 354.67 191.825 354.386C191.978 354.103 191.872 353.75 191.589 353.597C191.306 353.444 190.953 353.55 190.8 353.833C190.647 354.116 190.753 354.469 191.036 354.622Z" fill="#D4BFDD"/>
<path d="M183.275 349.989C183.582 350.154 183.965 350.04 184.13 349.733C184.296 349.426 184.181 349.043 183.875 348.878C183.568 348.712 183.185 348.827 183.02 349.133C182.854 349.44 182.968 349.823 183.275 349.989Z" fill="#D4BFDD"/>
<path d="M101.15 301.408C101.528 301.612 101.999 301.471 102.203 301.093C102.407 300.716 102.266 300.245 101.888 300.041C101.511 299.837 101.04 299.978 100.836 300.355C100.632 300.733 100.773 301.204 101.15 301.408Z" fill="#D4BFDD"/>
<path d="M439.42 267.422C439.797 267.625 440.268 267.485 440.472 267.107C440.676 266.73 440.535 266.258 440.158 266.055C439.78 265.851 439.309 265.992 439.105 266.369C438.901 266.747 439.042 267.218 439.42 267.422Z" fill="#D4BFDD"/>
<path d="M527.936 321.333C528.267 321.512 528.679 321.389 528.857 321.058C529.036 320.728 528.913 320.316 528.582 320.137C528.252 319.959 527.84 320.082 527.661 320.413C527.483 320.743 527.606 321.155 527.936 321.333Z" fill="#D4BFDD"/>
<path d="M561.599 367.919C561.882 368.072 562.235 367.966 562.388 367.683C562.541 367.4 562.435 367.047 562.152 366.894C561.869 366.741 561.516 366.847 561.363 367.13C561.21 367.413 561.316 367.766 561.599 367.919Z" fill="#D4BFDD"/>
<path d="M572.924 400.897C573.23 401.062 573.613 400.948 573.779 400.641C573.944 400.335 573.83 399.952 573.523 399.786C573.217 399.621 572.834 399.735 572.668 400.042C572.503 400.348 572.617 400.731 572.924 400.897Z" fill="#D4BFDD"/>
<path d="M497.437 317.943C497.815 318.147 498.286 318.006 498.49 317.629C498.694 317.251 498.553 316.78 498.175 316.576C497.798 316.372 497.327 316.513 497.123 316.891C496.919 317.268 497.06 317.739 497.437 317.943Z" fill="#D4BFDD"/>
<path d="M556.992 374.919C557.275 375.072 557.628 374.966 557.781 374.683C557.934 374.4 557.828 374.047 557.545 373.894C557.262 373.741 556.909 373.847 556.756 374.13C556.603 374.413 556.709 374.766 556.992 374.919Z" fill="#D4BFDD"/>
<path d="M565.552 410.159C565.835 410.312 566.188 410.207 566.341 409.924C566.494 409.64 566.388 409.287 566.105 409.134C565.822 408.981 565.469 409.087 565.316 409.37C565.163 409.653 565.269 410.007 565.552 410.159Z" fill="#D4BFDD"/>
<path d="M537.647 433.438C537.954 433.603 538.337 433.489 538.502 433.182C538.668 432.876 538.553 432.493 538.247 432.327C537.94 432.162 537.557 432.276 537.392 432.583C537.226 432.889 537.34 433.272 537.647 433.438Z" fill="#D4BFDD"/>
<path d="M453.553 462.187C453.93 462.391 454.401 462.25 454.605 461.873C454.809 461.495 454.668 461.024 454.291 460.82C453.913 460.616 453.442 460.757 453.238 461.135C453.034 461.512 453.175 461.983 453.553 462.187Z" fill="#D4BFDD"/>
<path d="M553.124 445.543C553.502 445.746 553.973 445.606 554.177 445.228C554.381 444.851 554.24 444.379 553.862 444.176C553.485 443.972 553.014 444.113 552.81 444.49C552.606 444.868 552.747 445.339 553.124 445.543Z" fill="#D4BFDD"/>
<path d="M590.463 426.861C590.841 427.065 591.312 426.924 591.516 426.546C591.72 426.169 591.579 425.698 591.201 425.494C590.824 425.29 590.353 425.431 590.149 425.808C589.945 426.186 590.086 426.657 590.463 426.861Z" fill="#D4BFDD"/>
<path d="M582.281 474.414C582.659 474.618 583.13 474.477 583.334 474.099C583.537 473.722 583.397 473.251 583.019 473.047C582.642 472.843 582.17 472.984 581.967 473.361C581.763 473.739 581.904 474.21 582.281 474.414Z" fill="#D4BFDD"/>
<path d="M590.4 405.311C590.754 405.502 591.195 405.37 591.386 405.016C591.578 404.662 591.445 404.221 591.092 404.03C590.738 403.838 590.296 403.97 590.105 404.324C589.914 404.678 590.046 405.12 590.4 405.311Z" fill="#D4BFDD"/>
<path d="M548.276 354.27C548.535 354.41 548.859 354.313 548.999 354.053C549.14 353.794 549.043 353.47 548.783 353.33C548.524 353.19 548.2 353.287 548.06 353.546C547.92 353.806 548.016 354.13 548.276 354.27Z" fill="#D4BFDD"/>
<path d="M487.686 315.162C488.063 315.366 488.534 315.225 488.738 314.847C488.942 314.47 488.801 313.999 488.424 313.795C488.046 313.591 487.575 313.732 487.371 314.109C487.167 314.487 487.308 314.958 487.686 315.162Z" fill="#D4BFDD"/>
<path d="M430.185 273.695C430.563 273.899 431.034 273.758 431.238 273.38C431.441 273.003 431.301 272.532 430.923 272.328C430.546 272.124 430.074 272.265 429.871 272.642C429.667 273.02 429.808 273.491 430.185 273.695Z" fill="#D4BFDD"/>
<path d="M369.052 252.556C369.429 252.76 369.9 252.619 370.104 252.242C370.308 251.864 370.167 251.393 369.79 251.189C369.412 250.986 368.941 251.126 368.737 251.504C368.533 251.881 368.674 252.353 369.052 252.556Z" fill="#D4BFDD"/>
<path d="M307.944 216.752C308.322 216.955 308.793 216.815 308.997 216.437C309.2 216.06 309.06 215.588 308.682 215.385C308.305 215.181 307.833 215.322 307.63 215.699C307.426 216.077 307.567 216.548 307.944 216.752Z" fill="#D4BFDD"/>
<path d="M229.923 210.44C230.277 210.631 230.719 210.499 230.91 210.145C231.101 209.791 230.969 209.349 230.615 209.158C230.261 208.967 229.819 209.099 229.628 209.453C229.437 209.807 229.569 210.249 229.923 210.44Z" fill="#D4BFDD"/>
<path d="M202.278 210.242C202.538 210.382 202.862 210.286 203.002 210.026C203.142 209.767 203.045 209.443 202.786 209.303C202.526 209.162 202.202 209.259 202.062 209.519C201.922 209.778 202.019 210.102 202.278 210.242Z" fill="#D4BFDD"/>
<path d="M292.301 225.797C292.679 226 293.15 225.86 293.354 225.482C293.558 225.105 293.417 224.633 293.039 224.43C292.662 224.226 292.191 224.367 291.987 224.744C291.783 225.122 291.924 225.593 292.301 225.797Z" fill="#D4BFDD"/>
<path d="M487.098 286.099C487.476 286.303 487.947 286.162 488.151 285.785C488.355 285.407 488.214 284.936 487.836 284.732C487.459 284.528 486.988 284.669 486.784 285.047C486.58 285.424 486.721 285.895 487.098 286.099Z" fill="#D4BFDD"/>
<path d="M567.576 360.113C567.859 360.265 568.213 360.16 568.366 359.877C568.518 359.594 568.413 359.24 568.13 359.087C567.847 358.934 567.493 359.04 567.34 359.323C567.187 359.606 567.293 359.96 567.576 360.113Z" fill="#D4BFDD"/>
<path d="M559.258 364.993C559.541 365.146 559.895 365.041 560.048 364.757C560.2 364.474 560.095 364.121 559.812 363.968C559.529 363.815 559.175 363.921 559.022 364.204C558.869 364.487 558.975 364.841 559.258 364.993Z" fill="#D4BFDD"/>
<path d="M562.565 438.887C562.919 439.078 563.361 438.946 563.552 438.592C563.743 438.239 563.611 437.797 563.257 437.606C562.903 437.415 562.461 437.547 562.27 437.901C562.079 438.254 562.211 438.696 562.565 438.887Z" fill="#D4BFDD"/>
<path d="M404.186 435.7C404.469 435.853 404.822 435.748 404.975 435.465C405.128 435.181 405.022 434.828 404.739 434.675C404.456 434.522 404.103 434.628 403.95 434.911C403.797 435.194 403.902 435.548 404.186 435.7Z" fill="#D4BFDD"/>
<path d="M266.433 398.906C266.81 399.11 267.281 398.969 267.485 398.591C267.689 398.214 267.548 397.743 267.171 397.539C266.793 397.335 266.322 397.476 266.118 397.853C265.914 398.231 266.055 398.702 266.433 398.906Z" fill="#D4BFDD"/>
<path d="M210.148 372.053C210.455 372.219 210.837 372.104 211.003 371.798C211.169 371.491 211.054 371.108 210.747 370.942C210.441 370.777 210.058 370.891 209.892 371.198C209.727 371.505 209.841 371.888 210.148 372.053Z" fill="#D4BFDD"/>
<path d="M183.463 365.479C183.77 365.644 184.153 365.53 184.318 365.223C184.484 364.917 184.37 364.534 184.063 364.368C183.756 364.203 183.373 364.317 183.208 364.624C183.042 364.93 183.157 365.313 183.463 365.479Z" fill="#D4BFDD"/>
<path d="M311.785 416.268C312.092 416.434 312.475 416.319 312.641 416.012C312.806 415.706 312.692 415.323 312.385 415.157C312.078 414.992 311.695 415.106 311.53 415.413C311.364 415.719 311.479 416.102 311.785 416.268Z" fill="#D4BFDD"/>
<path d="M130.842 322.234C131.219 322.438 131.69 322.297 131.894 321.92C132.098 321.542 131.957 321.071 131.58 320.867C131.202 320.663 130.731 320.804 130.527 321.182C130.323 321.559 130.464 322.03 130.842 322.234Z" fill="#D4BFDD"/>
<path d="M177.351 361.577C177.658 361.742 178.041 361.628 178.206 361.321C178.372 361.014 178.257 360.631 177.951 360.466C177.644 360.3 177.261 360.415 177.095 360.721C176.93 361.028 177.044 361.411 177.351 361.577Z" fill="#D4BFDD"/>
<path d="M261.689 413.007C262.067 413.211 262.538 413.07 262.742 412.693C262.946 412.315 262.805 411.844 262.427 411.64C262.05 411.437 261.579 411.578 261.375 411.955C261.171 412.332 261.312 412.804 261.689 413.007Z" fill="#D4BFDD"/>
<path d="M412.574 454.298C412.857 454.451 413.21 454.345 413.363 454.062C413.516 453.779 413.41 453.426 413.127 453.273C412.844 453.12 412.491 453.226 412.338 453.509C412.185 453.792 412.291 454.145 412.574 454.298Z" fill="#D4BFDD"/>
<path d="M531.269 476.833C531.623 477.024 532.065 476.892 532.256 476.538C532.447 476.184 532.315 475.742 531.961 475.551C531.607 475.36 531.165 475.492 530.974 475.846C530.783 476.2 530.915 476.642 531.269 476.833Z" fill="#D4BFDD"/>
<path d="M578.67 473.845C579.048 474.049 579.519 473.908 579.723 473.531C579.927 473.153 579.786 472.682 579.408 472.478C579.031 472.275 578.56 472.415 578.356 472.793C578.152 473.17 578.293 473.642 578.67 473.845Z" fill="#D4BFDD"/>
<g filter="url(#filter0_f_479_40563)">
<path d="M389.146 247.891C473.808 290.873 528.663 352.935 511.619 386.496C494.575 420.057 412.147 412.458 327.436 369.468C242.774 326.487 187.919 264.425 204.963 230.864C222.008 197.303 304.484 204.909 389.146 247.891Z" fill="url(#paint0_radial_479_40563)"/>
</g>
<path d="M94.0138 169.527C98.7533 160.152 105.975 152.351 115.287 146.133C129.256 136.807 147.929 131.026 170.082 128.666C192.231 126.329 217.832 127.434 245.647 131.926C294.228 139.771 349.622 157.929 405.193 186.036C469.373 218.49 522.708 258.625 558.728 298.554C576.739 318.518 590.434 338.421 598.964 357.318C607.522 376.196 610.916 394.069 608.358 409.905C607.393 415.882 605.569 421.575 602.876 426.906C598.136 436.281 590.914 444.083 581.602 450.3C567.634 459.627 548.96 465.408 526.807 467.768C504.658 470.105 479.058 469 451.243 464.508C402.662 456.663 347.268 438.505 291.696 410.397C227.517 377.943 174.181 337.809 138.161 297.88C120.151 277.916 106.456 258.013 97.9255 239.115C89.3675 220.238 85.9739 202.365 88.5314 186.529C89.4967 180.551 91.3201 174.859 94.0138 169.527ZM98.3727 238.919C123.927 295.386 195.727 361.3 291.94 409.948C347.467 438.024 402.814 456.174 451.323 464.008C488.378 469.992 521.492 469.964 547.659 463.781C560.743 460.689 572.093 456.071 581.35 449.893C590.607 443.716 597.77 435.978 602.47 426.694C605.16 421.386 606.948 415.762 607.906 409.832C610.444 394.115 607.059 376.341 598.541 357.519C572.986 301.052 501.187 235.137 404.974 186.489C349.446 158.414 294.099 140.263 245.59 132.429C208.535 126.445 175.421 126.473 149.254 132.657C136.17 135.749 124.82 140.367 115.563 146.544C106.306 152.722 99.1435 160.46 94.4432 169.743C91.7534 175.051 89.9654 180.676 89.0077 186.606C86.4695 202.323 89.8545 220.096 98.3727 238.919Z" fill="#29ABE2"/>
<path d="M155.215 172.153C166.8 164.421 182.286 159.616 200.63 157.691C218.978 155.743 240.207 156.679 263.26 160.401C303.529 166.905 349.41 181.938 395.471 205.235C448.649 232.125 492.856 265.385 522.723 298.48C537.646 315.014 548.98 331.53 556.082 347.167C563.157 362.824 565.996 377.626 563.873 390.771C563.073 395.724 561.578 400.443 559.324 404.869C555.381 412.638 549.398 419.124 541.674 424.279C530.09 432.011 514.604 436.816 496.26 438.741C477.912 440.689 456.682 439.753 433.63 436.03C393.36 429.527 347.48 414.494 301.419 391.197C248.241 364.307 204.033 331.046 174.167 297.952C159.244 281.418 147.909 264.902 140.807 249.265C133.733 233.608 130.894 218.806 133.017 205.661C133.817 200.707 135.312 195.988 137.566 191.563C141.512 183.77 147.492 177.308 155.215 172.153ZM141.254 249.068C162.433 295.861 221.914 350.452 301.635 390.767C347.652 414.033 393.509 429.062 433.707 435.554C464.427 440.515 491.823 440.492 513.518 435.37C524.363 432.821 533.755 428.986 541.422 423.872C549.09 418.757 555.011 412.358 558.894 404.653C561.117 400.271 562.604 395.6 563.396 390.694C565.5 377.668 562.697 362.945 555.635 347.363C534.456 300.571 474.976 245.98 395.255 205.664C349.238 182.399 303.381 167.37 263.183 160.878C232.462 155.917 205.067 155.94 183.372 161.062C172.527 163.611 163.135 167.445 155.467 172.56C147.799 177.675 141.879 184.074 137.972 191.775C135.749 196.157 134.262 200.828 133.469 205.734C131.39 218.764 134.196 233.463 141.254 249.068Z" fill="#29ABE2"/>
<path d="M341.76 161.519C339.813 161.204 338.49 159.372 338.805 157.425C339.119 155.479 340.952 154.156 342.898 154.47C344.845 154.784 346.168 156.617 345.854 158.564C345.539 160.51 343.707 161.833 341.76 161.519Z" fill="url(#paint1_radial_479_40563)"/>
<path d="M350.04 363.086C348.396 362.821 347.279 361.273 347.544 359.629C347.81 357.985 349.357 356.867 351.002 357.133C352.646 357.398 353.763 358.946 353.498 360.59C353.232 362.234 351.684 363.352 350.04 363.086Z" fill="url(#paint2_radial_479_40563)"/>
<path d="M209.785 200.414C207.194 199.996 205.432 197.556 205.851 194.965C206.269 192.374 208.709 190.613 211.3 191.031C213.891 191.45 215.652 193.889 215.234 196.48C214.815 199.071 212.376 200.833 209.785 200.414Z" fill="url(#paint3_radial_479_40563)"/>
<path d="M561.32 402.19C558.44 401.725 556.482 399.013 556.947 396.132C557.412 393.252 560.124 391.294 563.005 391.759C565.885 392.224 567.843 394.937 567.378 397.817C566.913 400.697 564.201 402.655 561.32 402.19Z" fill="url(#paint4_radial_479_40563)"/>
<path opacity="0.2" d="M424.708 147.964C593.475 233.644 696.14 370.347 654.029 453.321C611.918 536.296 440.953 534.123 272.186 448.443C103.415 362.787 0.753578 226.06 42.8648 143.086C84.976 60.1121 255.937 62.3087 424.708 147.964Z" fill="url(#paint5_radial_479_40563)"/>
<defs>
<filter id="filter0_f_479_40563" x="139.859" y="147.934" width="436.864" height="321.494" filterUnits="userSpaceOnUse" color-interpolation-filters="sRGB">
<feFlood flood-opacity="0" result="BackgroundImageFix"/>
<feBlend mode="normal" in="SourceGraphic" in2="BackgroundImageFix" result="shape"/>
<feGaussianBlur stdDeviation="31" result="effect1_foregroundBlur_479_40563"/>
</filter>
<radialGradient id="paint0_radial_479_40563" cx="0" cy="0" r="1" gradientUnits="userSpaceOnUse" gradientTransform="translate(358.329 308.641) rotate(-153.088) scale(171.93 68.1635)">
<stop stop-color="white"/>
<stop offset="1" stop-color="white" stop-opacity="0"/>
</radialGradient>
<radialGradient id="paint1_radial_479_40563" cx="0" cy="0" r="1" gradientUnits="userSpaceOnUse" gradientTransform="translate(342.341 157.995) rotate(-170.826) scale(3.56079)">
<stop stop-color="white"/>
<stop offset="0.022588" stop-color="#FCFDFE"/>
<stop offset="1" stop-color="#84AADA"/>
</radialGradient>
<radialGradient id="paint2_radial_479_40563" cx="0" cy="0" r="1" gradientUnits="userSpaceOnUse" gradientTransform="translate(350.512 360.115) rotate(9.17375) scale(3.01531)">
<stop stop-color="white"/>
<stop offset="0.022588" stop-color="#FCFDFE"/>
<stop offset="1" stop-color="#84AADA"/>
</radialGradient>
<radialGradient id="paint3_radial_479_40563" cx="0" cy="0" r="1" gradientUnits="userSpaceOnUse" gradientTransform="translate(210.539 195.712) rotate(144.174) scale(4.75116)">
<stop stop-color="white"/>
<stop offset="0.022588" stop-color="#FCFDFE"/>
<stop offset="1" stop-color="#84AADA"/>
</radialGradient>
<radialGradient id="paint4_radial_479_40563" cx="0" cy="0" r="1" gradientUnits="userSpaceOnUse" gradientTransform="translate(562.159 396.987) rotate(-35.8263) scale(5.27982)">
<stop stop-color="white"/>
<stop offset="0.022588" stop-color="#FCFDFE"/>
<stop offset="1" stop-color="#84AADA"/>
</radialGradient>
<radialGradient id="paint5_radial_479_40563" cx="0" cy="0" r="1" gradientUnits="userSpaceOnUse" gradientTransform="translate(348.469 298.224) rotate(-153.089) scale(342.684 168.483)">
<stop stop-color="#74EAF1"/>
<stop offset="1" stop-color="white" stop-opacity="0"/>
<stop offset="1" stop-color="#EAFAFB" stop-opacity="0"/>
</radialGradient>
</defs>
</svg>
