<svg width="1079" height="1008" viewBox="0 0 1079 1008" fill="none" xmlns="http://www.w3.org/2000/svg">
<path opacity="0.2" d="M204.498 575.198C214.181 620.401 260.257 653.476 327.228 670.29C394.164 687.094 481.808 687.601 574.288 667.8C666.762 647.99 746.514 611.635 800.699 568.892C854.913 526.127 883.403 477.083 873.719 431.88C864.035 386.678 817.956 353.597 750.984 336.781C684.046 319.974 596.402 319.467 503.928 339.278C411.449 359.078 331.696 395.433 277.513 438.179C223.301 480.947 194.814 529.995 204.498 575.198Z" stroke="white"/>
<path opacity="0.2" d="M493.385 290.05L493.281 289.561L493.385 290.05C373.252 315.77 269.646 362.998 199.249 418.534C128.824 474.092 91.7651 537.849 104.361 596.646C116.958 655.444 176.877 698.426 263.877 720.268C350.842 742.1 464.7 742.757 584.833 717.036C704.958 691.302 808.565 644.074 878.963 588.542C949.39 532.987 986.453 469.236 973.857 410.439C961.261 351.642 901.337 308.653 814.335 286.808C727.368 264.972 613.51 264.315 493.385 290.05Z" stroke="white"/>
<path d="M749.612 492.308C766.276 441.95 738.963 387.618 688.605 370.954C638.248 354.29 583.916 381.603 567.252 431.96C550.587 482.318 577.901 536.65 628.258 553.314C678.616 569.979 732.948 542.665 749.612 492.308Z" fill="url(#paint0_radial_1411_4044)"/>
<g opacity="0.48">
<path d="M683.68 440.617C682.143 439.739 680.166 439.739 678.41 440.617L666.113 447.864L657.769 452.475L645.691 459.721C644.154 460.599 642.178 460.599 640.421 459.721L630.979 454.012C629.442 453.134 628.344 451.377 628.344 449.401L628.344 438.421C628.344 436.665 629.223 434.908 630.979 433.81L640.421 428.321C641.958 427.442 643.935 427.442 645.691 428.321L655.133 434.03C656.671 434.908 657.768 436.665 657.768 438.641L657.768 445.887L666.113 441.056L666.113 433.591C666.113 431.834 665.234 430.077 663.478 428.979L645.911 418.659C644.374 417.78 642.398 417.78 640.641 418.659L622.635 429.199C620.878 430.077 620 431.834 620 433.591L620 454.232C620 455.988 620.878 457.745 622.635 458.843L640.421 469.163C641.958 470.042 643.935 470.042 645.691 469.163L657.769 462.137L666.113 457.306L678.19 450.279C679.727 449.401 681.704 449.401 683.46 450.279L692.902 455.769C694.439 456.647 695.537 458.404 695.537 460.38L695.537 471.359C695.537 473.116 694.659 474.873 692.902 475.971L683.68 481.46C682.143 482.338 680.166 482.338 678.41 481.46L668.968 475.971C667.43 475.092 666.333 473.336 666.333 471.359L666.333 464.333L657.988 469.163L657.988 476.41C657.988 478.166 658.867 479.923 660.623 481.021L678.41 491.341C679.947 492.22 681.923 492.22 683.68 491.341L701.466 481.021C703.003 480.143 704.101 478.386 704.101 476.41L704.101 455.549C704.101 453.792 703.223 452.036 701.466 450.938L683.68 440.617Z" fill="#6E0EAF"/>
</g>
<defs>
<radialGradient id="paint0_radial_1411_4044" cx="0" cy="0" r="1" gradientUnits="userSpaceOnUse" gradientTransform="translate(505.378 543.437) rotate(-116.689) scale(273.081)">
<stop offset="0.54" stop-color="#3B0069" stop-opacity="0"/>
<stop offset="1" stop-color="#9E00FF"/>
</radialGradient>
</defs>
</svg>
