<svg width="660" height="515" viewBox="0 0 660 515" fill="none" xmlns="http://www.w3.org/2000/svg">
<path d="M337.951 93.4874C338.325 93.5896 338.711 93.369 338.814 92.9948C338.916 92.6206 338.695 92.2344 338.321 92.1323C337.947 92.0301 337.561 92.2506 337.458 92.6248C337.356 92.9991 337.577 93.3852 337.951 93.4874Z" fill="#D4BFDD" fill-opacity="0.5"/>
<path d="M267.488 98.2335C267.862 98.3357 268.249 98.1151 268.351 97.7409C268.453 97.3667 268.232 96.9805 267.858 96.8783C267.484 96.7762 267.098 96.9967 266.996 97.3709C266.893 97.7452 267.114 98.1313 267.488 98.2335Z" fill="#D4BFDD" fill-opacity="0.5"/>
<path d="M197.048 115.22C197.423 115.322 197.809 115.101 197.911 114.727C198.013 114.353 197.793 113.967 197.418 113.865C197.044 113.763 196.658 113.983 196.556 114.357C196.454 114.731 196.674 115.118 197.048 115.22Z" fill="#D4BFDD" fill-opacity="0.5"/>
<path d="M144.195 136.462C144.569 136.564 144.955 136.344 145.057 135.969C145.159 135.595 144.939 135.209 144.565 135.107C144.19 135.005 143.804 135.225 143.702 135.599C143.6 135.974 143.82 136.36 144.195 136.462Z" fill="#D4BFDD" fill-opacity="0.5"/>
<path d="M103.752 160.601C104.126 160.703 104.512 160.482 104.614 160.108C104.717 159.734 104.496 159.348 104.122 159.246C103.748 159.143 103.361 159.364 103.259 159.738C103.157 160.112 103.378 160.499 103.752 160.601Z" fill="#D4BFDD" fill-opacity="0.5"/>
<path d="M59.2379 193.134C59.6121 193.236 59.9983 193.016 60.1005 192.641C60.2026 192.267 59.9821 191.881 59.6079 191.779C59.2337 191.677 58.8475 191.897 58.7453 192.271C58.6431 192.646 58.8637 193.032 59.2379 193.134Z" fill="#D4BFDD" fill-opacity="0.5"/>
<path d="M27.0043 264.692C27.3785 264.795 27.7647 264.574 27.8668 264.2C27.969 263.826 27.7484 263.439 27.3742 263.337C27 263.235 26.6138 263.456 26.5117 263.83C26.4095 264.204 26.63 264.59 27.0043 264.692Z" fill="#D4BFDD" fill-opacity="0.5"/>
<path d="M127.575 149.179C127.949 149.281 128.335 149.06 128.438 148.686C128.54 148.312 128.319 147.926 127.945 147.824C127.571 147.721 127.185 147.942 127.082 148.316C126.98 148.69 127.201 149.077 127.575 149.179Z" fill="#D4BFDD" fill-opacity="0.5"/>
<path d="M201.739 138.706C202.113 138.808 202.499 138.588 202.601 138.214C202.703 137.839 202.483 137.453 202.109 137.351C201.734 137.249 201.348 137.469 201.246 137.844C201.144 138.218 201.364 138.604 201.739 138.706Z" fill="#D4BFDD" fill-opacity="0.5"/>
<path d="M286.417 122.737C286.791 122.84 287.178 122.619 287.28 122.245C287.382 121.871 287.161 121.484 286.787 121.382C286.413 121.28 286.027 121.501 285.925 121.875C285.822 122.249 286.043 122.635 286.417 122.737Z" fill="#D4BFDD" fill-opacity="0.5"/>
<path d="M227.471 132.622C227.846 132.724 228.232 132.504 228.334 132.13C228.436 131.755 228.215 131.369 227.841 131.267C227.467 131.165 227.081 131.385 226.979 131.76C226.877 132.134 227.097 132.52 227.471 132.622Z" fill="#D4BFDD" fill-opacity="0.5"/>
<path d="M355.051 113.851C355.425 113.953 355.812 113.732 355.914 113.358C356.016 112.984 355.795 112.598 355.421 112.496C355.047 112.393 354.661 112.614 354.559 112.988C354.456 113.362 354.677 113.749 355.051 113.851Z" fill="#D4BFDD" fill-opacity="0.5"/>
<path d="M381.662 119.888C382.037 119.99 382.423 119.769 382.525 119.395C382.627 119.021 382.407 118.635 382.032 118.533C381.658 118.43 381.272 118.651 381.17 119.025C381.068 119.399 381.288 119.786 381.662 119.888Z" fill="#D4BFDD" fill-opacity="0.5"/>
<path d="M527.949 179.442C528.323 179.545 528.709 179.324 528.811 178.95C528.913 178.576 528.693 178.189 528.319 178.087C527.944 177.985 527.558 178.206 527.456 178.58C527.354 178.954 527.574 179.34 527.949 179.442Z" fill="#D4BFDD" fill-opacity="0.5"/>
<path d="M536.78 166.929C537.155 167.031 537.541 166.81 537.643 166.436C537.745 166.062 537.525 165.676 537.15 165.574C536.776 165.471 536.39 165.692 536.288 166.066C536.186 166.44 536.406 166.827 536.78 166.929Z" fill="#D4BFDD" fill-opacity="0.5"/>
<path d="M430.761 170.562C431.135 170.664 431.521 170.443 431.624 170.069C431.726 169.695 431.505 169.309 431.131 169.206C430.757 169.104 430.371 169.325 430.268 169.699C430.166 170.073 430.387 170.459 430.761 170.562Z" fill="#D4BFDD" fill-opacity="0.5"/>
<path d="M266.115 133.761C266.489 133.863 266.876 133.642 266.978 133.268C267.08 132.894 266.859 132.508 266.485 132.406C266.111 132.304 265.725 132.524 265.623 132.898C265.52 133.272 265.741 133.659 266.115 133.761Z" fill="#D4BFDD" fill-opacity="0.5"/>
<path d="M127.748 169.386C128.122 169.488 128.508 169.267 128.61 168.893C128.713 168.519 128.492 168.133 128.118 168.031C127.744 167.929 127.357 168.149 127.255 168.523C127.153 168.897 127.374 169.284 127.748 169.386Z" fill="#D4BFDD" fill-opacity="0.5"/>
<path d="M86.4274 197.06C86.8016 197.162 87.1878 196.941 87.2899 196.567C87.3921 196.193 87.1715 195.807 86.7973 195.705C86.4231 195.602 86.0369 195.823 85.9348 196.197C85.8326 196.571 86.0531 196.958 86.4274 197.06Z" fill="#D4BFDD" fill-opacity="0.5"/>
<path d="M74.9811 309.65C75.3553 309.752 75.7415 309.531 75.8436 309.157C75.9458 308.783 75.7253 308.397 75.351 308.294C74.9768 308.192 74.5906 308.413 74.4885 308.787C74.3863 309.161 74.6068 309.547 74.9811 309.65Z" fill="#D4BFDD" fill-opacity="0.5"/>
<path d="M75.35 214.962C75.7242 215.064 76.1104 214.844 76.2125 214.469C76.3147 214.095 76.0942 213.709 75.7199 213.607C75.3457 213.505 74.9595 213.725 74.8574 214.099C74.7552 214.474 74.9757 214.86 75.35 214.962Z" fill="#D4BFDD" fill-opacity="0.5"/>
<path d="M89.2478 295.573C89.622 295.676 90.0082 295.455 90.1104 295.081C90.2125 294.707 89.992 294.32 89.6178 294.218C89.2435 294.116 88.8574 294.337 88.7552 294.711C88.653 295.085 88.8736 295.471 89.2478 295.573Z" fill="#D4BFDD" fill-opacity="0.5"/>
<path d="M93.7438 264.259C94.118 264.361 94.5042 264.141 94.6063 263.766C94.7085 263.392 94.4879 263.006 94.1137 262.904C93.7395 262.802 93.3533 263.022 93.2512 263.396C93.149 263.771 93.3695 264.157 93.7438 264.259Z" fill="#D4BFDD" fill-opacity="0.5"/>
<path d="M196.581 355.958C196.955 356.06 197.341 355.84 197.443 355.466C197.546 355.091 197.325 354.705 196.951 354.603C196.577 354.501 196.19 354.721 196.088 355.096C195.986 355.47 196.207 355.856 196.581 355.958Z" fill="#D4BFDD" fill-opacity="0.5"/>
<path d="M215.365 353.48C215.739 353.582 216.126 353.361 216.228 352.987C216.33 352.613 216.109 352.227 215.735 352.124C215.361 352.022 214.975 352.243 214.873 352.617C214.77 352.991 214.991 353.377 215.365 353.48Z" fill="#D4BFDD" fill-opacity="0.5"/>
<path d="M406.704 376.189C407.078 376.291 407.465 376.07 407.567 375.696C407.669 375.322 407.448 374.936 407.074 374.833C406.7 374.731 406.314 374.952 406.212 375.326C406.109 375.7 406.33 376.086 406.704 376.189Z" fill="#D4BFDD" fill-opacity="0.5"/>
<path d="M289.599 369.925C289.974 370.027 290.36 369.807 290.462 369.432C290.564 369.058 290.344 368.672 289.969 368.57C289.595 368.468 289.209 368.688 289.107 369.062C289.005 369.437 289.225 369.823 289.599 369.925Z" fill="#D4BFDD" fill-opacity="0.5"/>
<path d="M452.28 372.933C452.654 373.035 453.041 372.814 453.143 372.44C453.245 372.066 453.024 371.68 452.65 371.578C452.276 371.475 451.89 371.696 451.788 372.07C451.686 372.444 451.906 372.831 452.28 372.933Z" fill="#D4BFDD" fill-opacity="0.5"/>
<path d="M357.243 396.169C357.617 396.271 358.004 396.051 358.106 395.676C358.208 395.302 357.987 394.916 357.613 394.814C357.239 394.712 356.853 394.932 356.751 395.306C356.648 395.681 356.869 396.067 357.243 396.169Z" fill="#D4BFDD" fill-opacity="0.5"/>
<path d="M533.719 357.489C534.093 357.592 534.479 357.371 534.582 356.997C534.684 356.623 534.463 356.236 534.089 356.134C533.715 356.032 533.329 356.253 533.227 356.627C533.124 357.001 533.345 357.387 533.719 357.489Z" fill="#D4BFDD" fill-opacity="0.5"/>
<path d="M581.451 320.825C581.825 320.927 582.211 320.707 582.313 320.333C582.415 319.958 582.195 319.572 581.821 319.47C581.446 319.368 581.06 319.589 580.958 319.963C580.856 320.337 581.076 320.723 581.451 320.825Z" fill="#D4BFDD" fill-opacity="0.5"/>
<path d="M561.494 208.575C561.868 208.677 562.254 208.457 562.357 208.083C562.459 207.709 562.238 207.322 561.864 207.22C561.49 207.118 561.104 207.339 561.001 207.713C560.899 208.087 561.12 208.473 561.494 208.575Z" fill="#D4BFDD" fill-opacity="0.5"/>
<path d="M542.505 185.97C542.879 186.072 543.265 185.851 543.368 185.477C543.47 185.103 543.249 184.717 542.875 184.615C542.501 184.513 542.115 184.733 542.013 185.107C541.91 185.481 542.131 185.868 542.505 185.97Z" fill="#D4BFDD" fill-opacity="0.5"/>
<path d="M600.053 314.03C600.428 314.133 600.814 313.912 600.916 313.538C601.018 313.164 600.798 312.777 600.423 312.675C600.049 312.573 599.663 312.794 599.561 313.168C599.459 313.542 599.679 313.928 600.053 314.03Z" fill="#D4BFDD" fill-opacity="0.5"/>
<path d="M588.889 218.741C589.264 218.843 589.65 218.623 589.752 218.249C589.854 217.875 589.634 217.488 589.259 217.386C588.885 217.284 588.499 217.505 588.397 217.879C588.295 218.253 588.515 218.639 588.889 218.741Z" fill="#D4BFDD" fill-opacity="0.5"/>
<path d="M608.192 330.22C608.566 330.322 608.952 330.101 609.055 329.727C609.157 329.353 608.936 328.967 608.562 328.865C608.188 328.763 607.802 328.983 607.699 329.357C607.597 329.731 607.818 330.118 608.192 330.22Z" fill="#D4BFDD" fill-opacity="0.5"/>
<path d="M572.495 223.958C572.869 224.06 573.255 223.84 573.357 223.466C573.459 223.091 573.239 222.705 572.865 222.603C572.49 222.501 572.104 222.721 572.002 223.096C571.9 223.47 572.12 223.856 572.495 223.958Z" fill="#D4BFDD" fill-opacity="0.5"/>
<path d="M607.136 244.745C607.51 244.847 607.897 244.627 607.999 244.253C608.101 243.878 607.88 243.492 607.506 243.39C607.132 243.288 606.746 243.508 606.644 243.883C606.541 244.257 606.762 244.643 607.136 244.745Z" fill="#D4BFDD" fill-opacity="0.5"/>
<path d="M604.019 355.329C604.393 355.431 604.779 355.211 604.882 354.837C604.984 354.462 604.763 354.076 604.389 353.974C604.015 353.872 603.629 354.092 603.526 354.467C603.424 354.841 603.645 355.227 604.019 355.329Z" fill="#D4BFDD" fill-opacity="0.5"/>
<path d="M566.283 215.21C566.658 215.312 567.044 215.092 567.146 214.717C567.248 214.343 567.027 213.957 566.653 213.855C566.279 213.753 565.893 213.973 565.791 214.348C565.689 214.722 565.909 215.108 566.283 215.21Z" fill="#D4BFDD" fill-opacity="0.5"/>
<path d="M574.196 350.564C574.571 350.666 574.957 350.445 575.059 350.071C575.161 349.697 574.941 349.311 574.566 349.208C574.192 349.106 573.806 349.327 573.704 349.701C573.602 350.075 573.822 350.461 574.196 350.564Z" fill="#D4BFDD" fill-opacity="0.5"/>
<path d="M588.379 257.778C588.753 257.881 589.139 257.66 589.241 257.286C589.344 256.912 589.123 256.525 588.749 256.423C588.375 256.321 587.988 256.542 587.886 256.916C587.784 257.29 588.005 257.676 588.379 257.778Z" fill="#D4BFDD" fill-opacity="0.5"/>
<path d="M551.965 351.317C552.34 351.42 552.726 351.199 552.828 350.825C552.93 350.451 552.71 350.064 552.335 349.962C551.961 349.86 551.575 350.081 551.473 350.455C551.371 350.829 551.591 351.215 551.965 351.317Z" fill="#D4BFDD" fill-opacity="0.5"/>
<path d="M345.979 152.431C346.354 152.533 346.74 152.312 346.842 151.938C346.944 151.564 346.724 151.178 346.349 151.076C345.975 150.973 345.589 151.194 345.487 151.568C345.385 151.942 345.605 152.329 345.979 152.431Z" fill="#D4BFDD" fill-opacity="0.5"/>
<path d="M184.691 168.314C185.065 168.416 185.451 168.195 185.553 167.821C185.655 167.447 185.435 167.061 185.061 166.958C184.686 166.856 184.3 167.077 184.198 167.451C184.096 167.825 184.316 168.211 184.691 168.314Z" fill="#D4BFDD" fill-opacity="0.5"/>
<path d="M108.852 206.085C109.226 206.187 109.613 205.967 109.715 205.592C109.817 205.218 109.596 204.832 109.222 204.73C108.848 204.628 108.462 204.848 108.36 205.223C108.257 205.597 108.478 205.983 108.852 206.085Z" fill="#D4BFDD" fill-opacity="0.5"/>
<path d="M84.0019 268.105C84.3762 268.207 84.7623 267.986 84.8645 267.612C84.9667 267.238 84.7461 266.852 84.3719 266.749C83.9977 266.647 83.6115 266.868 83.5093 267.242C83.4072 267.616 83.6277 268.002 84.0019 268.105Z" fill="#D4BFDD" fill-opacity="0.5"/>
<path d="M146.453 347.548C146.827 347.65 147.214 347.43 147.316 347.055C147.418 346.681 147.197 346.295 146.823 346.193C146.449 346.091 146.063 346.311 145.961 346.685C145.858 347.06 146.079 347.446 146.453 347.548Z" fill="#D4BFDD" fill-opacity="0.5"/>
<path d="M133.222 341.843C133.596 341.945 133.982 341.725 134.084 341.35C134.187 340.976 133.966 340.59 133.592 340.488C133.218 340.386 132.831 340.606 132.729 340.98C132.627 341.355 132.848 341.741 133.222 341.843Z" fill="#D4BFDD" fill-opacity="0.5"/>
<path d="M276.968 395.692C277.342 395.795 277.728 395.574 277.83 395.2C277.932 394.826 277.712 394.44 277.338 394.337C276.963 394.235 276.577 394.456 276.475 394.83C276.373 395.204 276.593 395.59 276.968 395.692Z" fill="#D4BFDD" fill-opacity="0.5"/>
<path d="M393.781 409.013C394.156 409.115 394.542 408.894 394.644 408.52C394.746 408.146 394.526 407.76 394.151 407.658C393.777 407.555 393.391 407.776 393.289 408.15C393.187 408.524 393.407 408.911 393.781 409.013Z" fill="#D4BFDD" fill-opacity="0.5"/>
<path d="M381.964 416.302C382.338 416.404 382.725 416.183 382.827 415.809C382.929 415.435 382.708 415.049 382.334 414.947C381.96 414.845 381.574 415.065 381.472 415.439C381.369 415.814 381.59 416.2 381.964 416.302Z" fill="#D4BFDD" fill-opacity="0.5"/>
<path d="M534.886 401.718C535.26 401.82 535.646 401.599 535.748 401.225C535.85 400.851 535.63 400.465 535.256 400.363C534.881 400.261 534.495 400.481 534.393 400.855C534.291 401.23 534.511 401.616 534.886 401.718Z" fill="#D4BFDD" fill-opacity="0.5"/>
<path d="M580.68 372.489C581.054 372.592 581.44 372.371 581.542 371.997C581.644 371.623 581.424 371.236 581.05 371.134C580.675 371.032 580.289 371.253 580.187 371.627C580.085 372.001 580.305 372.387 580.68 372.489Z" fill="#D4BFDD" fill-opacity="0.5"/>
<path d="M554.046 242.353C554.421 242.455 554.807 242.234 554.909 241.86C555.011 241.486 554.791 241.1 554.416 240.997C554.042 240.895 553.656 241.116 553.554 241.49C553.452 241.864 553.672 242.25 554.046 242.353Z" fill="#D4BFDD" fill-opacity="0.5"/>
<path d="M404.946 158.782C405.32 158.884 405.706 158.664 405.808 158.29C405.911 157.916 405.69 157.529 405.316 157.427C404.942 157.325 404.555 157.546 404.453 157.92C404.351 158.294 404.572 158.68 404.946 158.782Z" fill="#D4BFDD" fill-opacity="0.5"/>
<path d="M281.246 162.005C281.62 162.107 282.006 161.887 282.108 161.512C282.211 161.138 281.99 160.752 281.616 160.65C281.242 160.548 280.855 160.768 280.753 161.142C280.651 161.517 280.872 161.903 281.246 162.005Z" fill="#D4BFDD" fill-opacity="0.5"/>
<path d="M352.757 127.427C353.131 127.529 353.517 127.308 353.62 126.934C353.722 126.56 353.501 126.174 353.127 126.072C352.753 125.97 352.367 126.19 352.264 126.564C352.162 126.939 352.383 127.325 352.757 127.427Z" fill="#D4BFDD" fill-opacity="0.5"/>
<path d="M535.043 175.964C535.417 176.066 535.803 175.846 535.905 175.471C536.007 175.097 535.787 174.711 535.413 174.609C535.038 174.507 534.652 174.727 534.55 175.101C534.448 175.476 534.668 175.862 535.043 175.964Z" fill="#D4BFDD" fill-opacity="0.5"/>
<path d="M426.83 141.958C427.205 142.06 427.591 141.84 427.693 141.466C427.795 141.091 427.574 140.705 427.2 140.603C426.826 140.501 426.44 140.721 426.338 141.096C426.236 141.47 426.456 141.856 426.83 141.958Z" fill="#D4BFDD" fill-opacity="0.5"/>
<path d="M549.096 187.487C549.47 187.59 549.856 187.369 549.958 186.995C550.06 186.621 549.84 186.234 549.466 186.132C549.091 186.03 548.705 186.251 548.603 186.625C548.501 186.999 548.722 187.385 549.096 187.487Z" fill="#D4BFDD" fill-opacity="0.5"/>
<path d="M431.901 128.554C432.275 128.656 432.661 128.435 432.763 128.061C432.865 127.687 432.645 127.301 432.271 127.199C431.896 127.096 431.51 127.317 431.408 127.691C431.306 128.065 431.526 128.452 431.901 128.554Z" fill="#D4BFDD" fill-opacity="0.5"/>
<path d="M575.787 210.067C576.161 210.17 576.547 209.949 576.65 209.575C576.752 209.201 576.531 208.814 576.157 208.712C575.783 208.61 575.397 208.831 575.294 209.205C575.192 209.579 575.413 209.965 575.787 210.067Z" fill="#D4BFDD" fill-opacity="0.5"/>
<path d="M584.288 234.601C584.663 234.703 585.049 234.482 585.151 234.108C585.253 233.734 585.032 233.348 584.658 233.246C584.284 233.143 583.898 233.364 583.796 233.738C583.694 234.112 583.914 234.499 584.288 234.601Z" fill="#D4BFDD" fill-opacity="0.5"/>
<path d="M189.329 182.325C189.704 182.427 190.09 182.207 190.192 181.833C190.294 181.459 190.074 181.072 189.699 180.97C189.325 180.868 188.939 181.089 188.837 181.463C188.735 181.837 188.955 182.223 189.329 182.325Z" fill="#D4BFDD" fill-opacity="0.5"/>
<path d="M144.533 226.064C144.907 226.166 145.293 225.945 145.395 225.571C145.497 225.197 145.277 224.811 144.903 224.708C144.528 224.606 144.142 224.827 144.04 225.201C143.938 225.575 144.158 225.961 144.533 226.064Z" fill="#D4BFDD" fill-opacity="0.5"/>
<path d="M138.678 252.683C139.052 252.785 139.438 252.564 139.54 252.19C139.642 251.816 139.422 251.43 139.048 251.328C138.673 251.225 138.287 251.446 138.185 251.82C138.083 252.194 138.304 252.581 138.678 252.683Z" fill="#D4BFDD" fill-opacity="0.5"/>
<path d="M219.859 312.026C220.233 312.129 220.619 311.908 220.721 311.534C220.823 311.16 220.603 310.773 220.228 310.671C219.854 310.569 219.468 310.79 219.366 311.164C219.264 311.538 219.484 311.924 219.859 312.026Z" fill="#D4BFDD" fill-opacity="0.5"/>
<path d="M223.034 316.396C223.408 316.498 223.794 316.277 223.896 315.903C223.999 315.529 223.778 315.143 223.404 315.04C223.03 314.938 222.643 315.159 222.541 315.533C222.439 315.907 222.66 316.293 223.034 316.396Z" fill="#D4BFDD" fill-opacity="0.5"/>
<path d="M397 350.552C397.374 350.654 397.761 350.433 397.863 350.059C397.965 349.685 397.744 349.299 397.37 349.197C396.996 349.095 396.61 349.315 396.508 349.689C396.405 350.064 396.626 350.45 397 350.552Z" fill="#D4BFDD" fill-opacity="0.5"/>
<path d="M432.486 344.595C432.86 344.697 433.246 344.476 433.348 344.102C433.451 343.728 433.23 343.342 432.856 343.24C432.482 343.138 432.095 343.358 431.993 343.732C431.891 344.106 432.112 344.493 432.486 344.595Z" fill="#D4BFDD" fill-opacity="0.5"/>
<path d="M415.251 401.23C415.625 401.332 416.011 401.111 416.113 400.737C416.215 400.363 415.995 399.977 415.621 399.874C415.246 399.772 414.86 399.993 414.758 400.367C414.656 400.741 414.877 401.127 415.251 401.23Z" fill="#D4BFDD" fill-opacity="0.5"/>
<path d="M509.145 320.155C509.52 320.258 509.906 320.037 510.008 319.663C510.11 319.289 509.89 318.902 509.515 318.8C509.141 318.698 508.755 318.919 508.653 319.293C508.551 319.667 508.771 320.053 509.145 320.155Z" fill="#D4BFDD" fill-opacity="0.5"/>
<path d="M577.913 258.609C578.288 258.711 578.674 258.49 578.776 258.116C578.878 257.742 578.658 257.356 578.283 257.253C577.909 257.151 577.523 257.372 577.421 257.746C577.319 258.12 577.539 258.506 577.913 258.609Z" fill="#D4BFDD" fill-opacity="0.5"/>
<path d="M487.873 238.396C488.247 238.498 488.633 238.277 488.735 237.903C488.837 237.529 488.617 237.143 488.243 237.04C487.868 236.938 487.482 237.159 487.38 237.533C487.278 237.907 487.498 238.293 487.873 238.396Z" fill="#D4BFDD" fill-opacity="0.5"/>
<path d="M303.295 209.255C303.669 209.357 304.055 209.137 304.157 208.762C304.259 208.388 304.039 208.002 303.665 207.9C303.29 207.798 302.904 208.018 302.802 208.392C302.7 208.767 302.92 209.153 303.295 209.255Z" fill="#D4BFDD" fill-opacity="0.5"/>
<path d="M259.578 206.878C259.952 206.98 260.338 206.76 260.441 206.385C260.543 206.011 260.322 205.625 259.948 205.523C259.574 205.421 259.188 205.641 259.086 206.015C258.983 206.39 259.204 206.776 259.578 206.878Z" fill="#D4BFDD" fill-opacity="0.5"/>
<path d="M199.006 254.728C199.38 254.83 199.767 254.609 199.869 254.235C199.971 253.861 199.75 253.475 199.376 253.372C199.002 253.27 198.616 253.491 198.514 253.865C198.411 254.239 198.632 254.625 199.006 254.728Z" fill="#D4BFDD" fill-opacity="0.5"/>
<path d="M237.797 276.148C238.172 276.25 238.558 276.029 238.66 275.655C238.762 275.281 238.542 274.895 238.167 274.792C237.793 274.69 237.407 274.911 237.305 275.285C237.203 275.659 237.423 276.045 237.797 276.148Z" fill="#D4BFDD" fill-opacity="0.5"/>
<path d="M382.364 308.843C382.738 308.945 383.124 308.725 383.226 308.35C383.328 307.976 383.108 307.59 382.734 307.488C382.36 307.386 381.973 307.606 381.871 307.98C381.769 308.355 381.99 308.741 382.364 308.843Z" fill="#D4BFDD" fill-opacity="0.5"/>
<path d="M477.2 348.649C477.574 348.752 477.96 348.531 478.063 348.157C478.165 347.783 477.944 347.397 477.57 347.294C477.196 347.192 476.81 347.413 476.707 347.787C476.605 348.161 476.826 348.547 477.2 348.649Z" fill="#D4BFDD" fill-opacity="0.5"/>
<path d="M299.93 67.4034C300.304 67.5056 300.691 67.2851 300.793 66.9108C300.895 66.5366 300.674 66.1504 300.3 66.0483C299.926 65.9461 299.54 66.1666 299.438 66.5409C299.335 66.9151 299.556 67.3013 299.93 67.4034Z" fill="#D4BFDD" fill-opacity="0.5"/>
<path d="M487.484 107.644C487.858 107.746 488.244 107.525 488.347 107.151C488.449 106.777 488.228 106.391 487.854 106.289C487.48 106.186 487.094 106.407 486.991 106.781C486.889 107.155 487.11 107.541 487.484 107.644Z" fill="#D4BFDD" fill-opacity="0.5"/>
<path d="M592.104 149.128C592.478 149.23 592.864 149.01 592.966 148.635C593.069 148.261 592.848 147.875 592.474 147.773C592.1 147.671 591.713 147.891 591.611 148.265C591.509 148.64 591.73 149.026 592.104 149.128Z" fill="#D4BFDD" fill-opacity="0.5"/>
<path d="M490.223 416.962C490.597 417.064 490.984 416.844 491.086 416.469C491.188 416.095 490.967 415.709 490.593 415.607C490.219 415.505 489.833 415.725 489.731 416.099C489.628 416.474 489.849 416.86 490.223 416.962Z" fill="#D4BFDD" fill-opacity="0.5"/>
<path d="M336.196 436.437C336.57 436.539 336.956 436.318 337.059 435.944C337.161 435.57 336.94 435.184 336.566 435.081C336.192 434.979 335.806 435.2 335.703 435.574C335.601 435.948 335.822 436.334 336.196 436.437Z" fill="#D4BFDD" fill-opacity="0.5"/>
<path d="M121.923 394.222C122.297 394.324 122.683 394.103 122.785 393.729C122.888 393.355 122.667 392.969 122.293 392.867C121.919 392.764 121.532 392.985 121.43 393.359C121.328 393.733 121.549 394.12 121.923 394.222Z" fill="#D4BFDD" fill-opacity="0.5"/>
<path d="M133.619 278.872C133.993 278.974 134.379 278.754 134.481 278.38C134.583 278.005 134.363 277.619 133.989 277.517C133.614 277.415 133.228 277.635 133.126 278.01C133.024 278.384 133.244 278.77 133.619 278.872Z" fill="#D4BFDD" fill-opacity="0.5"/>
<path d="M210.475 327.388C210.849 327.49 211.235 327.269 211.337 326.895C211.439 326.521 211.219 326.135 210.845 326.033C210.47 325.93 210.084 326.151 209.982 326.525C209.88 326.899 210.1 327.286 210.475 327.388Z" fill="#D4BFDD" fill-opacity="0.5"/>
<path d="M401.247 352.677C401.622 352.779 402.008 352.559 402.11 352.184C402.212 351.81 401.991 351.424 401.617 351.322C401.243 351.22 400.857 351.44 400.755 351.814C400.653 352.189 400.873 352.575 401.247 352.677Z" fill="#D4BFDD" fill-opacity="0.5"/>
<path d="M508.835 314.788C509.209 314.89 509.596 314.67 509.698 314.296C509.8 313.921 509.579 313.535 509.205 313.433C508.831 313.331 508.445 313.551 508.343 313.926C508.24 314.3 508.461 314.686 508.835 314.788Z" fill="#D4BFDD" fill-opacity="0.5"/>
<path d="M426.031 311.069C426.406 311.172 426.792 310.951 426.894 310.577C426.996 310.203 426.776 309.816 426.401 309.714C426.027 309.612 425.641 309.833 425.539 310.207C425.437 310.581 425.657 310.967 426.031 311.069Z" fill="#D4BFDD" fill-opacity="0.5"/>
<path d="M434.374 313.347C434.748 313.449 435.134 313.228 435.236 312.854C435.339 312.48 435.118 312.094 434.744 311.992C434.37 311.889 433.983 312.11 433.881 312.484C433.779 312.858 434 313.245 434.374 313.347Z" fill="#D4BFDD" fill-opacity="0.5"/>
<path d="M492.859 364.806C493.234 364.908 493.62 364.687 493.722 364.313C493.824 363.939 493.604 363.553 493.229 363.451C492.855 363.348 492.469 363.569 492.367 363.943C492.265 364.317 492.485 364.704 492.859 364.806Z" fill="#D4BFDD" fill-opacity="0.5"/>
<path d="M533.753 245.692C534.127 245.795 534.513 245.574 534.615 245.2C534.718 244.826 534.497 244.439 534.123 244.337C533.749 244.235 533.362 244.456 533.26 244.83C533.158 245.204 533.379 245.59 533.753 245.692Z" fill="#D4BFDD" fill-opacity="0.5"/>
<path d="M445.714 205.634C446.089 205.736 446.475 205.516 446.577 205.141C446.679 204.767 446.459 204.381 446.084 204.279C445.71 204.177 445.324 204.397 445.222 204.771C445.12 205.146 445.34 205.532 445.714 205.634Z" fill="#D4BFDD" fill-opacity="0.5"/>
<path d="M412.768 190.634C413.142 190.736 413.528 190.516 413.631 190.141C413.733 189.767 413.512 189.381 413.138 189.279C412.764 189.177 412.378 189.397 412.275 189.771C412.173 190.146 412.394 190.532 412.768 190.634Z" fill="#D4BFDD" fill-opacity="0.5"/>
<path d="M244.792 207.021C245.167 207.123 245.553 206.902 245.655 206.528C245.757 206.154 245.537 205.768 245.162 205.665C244.788 205.563 244.402 205.784 244.3 206.158C244.198 206.532 244.418 206.918 244.792 207.021Z" fill="#D4BFDD" fill-opacity="0.5"/>
<path d="M227.604 177.489C227.978 177.592 228.364 177.371 228.466 176.997C228.569 176.623 228.348 176.236 227.974 176.134C227.6 176.032 227.213 176.253 227.111 176.627C227.009 177.001 227.23 177.387 227.604 177.489Z" fill="#D4BFDD" fill-opacity="0.5"/>
<path d="M241.844 322.671C242.218 322.773 242.605 322.553 242.707 322.178C242.809 321.804 242.588 321.418 242.214 321.316C241.84 321.214 241.454 321.434 241.352 321.808C241.249 322.183 241.47 322.569 241.844 322.671Z" fill="#D4BFDD" fill-opacity="0.5"/>
<path d="M269.377 372.819C269.751 372.922 270.137 372.701 270.239 372.327C270.341 371.953 270.121 371.566 269.747 371.464C269.372 371.362 268.986 371.583 268.884 371.957C268.782 372.331 269.002 372.717 269.377 372.819Z" fill="#D4BFDD" fill-opacity="0.5"/>
<path d="M300.869 139.468C301.243 139.57 301.629 139.35 301.732 138.975C301.834 138.601 301.613 138.215 301.239 138.113C300.865 138.011 300.479 138.231 300.376 138.605C300.274 138.98 300.495 139.366 300.869 139.468Z" fill="#D4BFDD" fill-opacity="0.5"/>
<path d="M280.752 138.476C281.127 138.578 281.513 138.357 281.615 137.983C281.717 137.609 281.496 137.223 281.122 137.121C280.748 137.018 280.362 137.239 280.26 137.613C280.158 137.987 280.378 138.374 280.752 138.476Z" fill="#D4BFDD" fill-opacity="0.5"/>
<path d="M245.85 139.146C246.224 139.248 246.61 139.027 246.713 138.653C246.815 138.279 246.594 137.893 246.22 137.79C245.846 137.688 245.46 137.909 245.357 138.283C245.255 138.657 245.476 139.043 245.85 139.146Z" fill="#D4BFDD" fill-opacity="0.5"/>
<path d="M206.762 135.481C207.043 135.558 207.332 135.393 207.409 135.112C207.486 134.831 207.32 134.542 207.04 134.465C206.759 134.388 206.469 134.554 206.393 134.834C206.316 135.115 206.481 135.405 206.762 135.481Z" fill="#D4BFDD" fill-opacity="0.5"/>
<path d="M145.171 147.564C145.335 147.609 145.504 147.513 145.549 147.349C145.594 147.185 145.497 147.016 145.333 146.972C145.17 146.927 145.001 147.023 144.956 147.187C144.911 147.351 145.008 147.52 145.171 147.564Z" fill="#D4BFDD" fill-opacity="0.5"/>
<path d="M132.017 153.57C132.18 153.615 132.349 153.519 132.394 153.355C132.439 153.191 132.342 153.022 132.179 152.977C132.015 152.933 131.846 153.029 131.801 153.193C131.756 153.357 131.853 153.526 132.017 153.57Z" fill="#D4BFDD" fill-opacity="0.5"/>
<path d="M121.173 165.129C121.313 165.168 121.458 165.085 121.497 164.944C121.535 164.804 121.452 164.659 121.312 164.62C121.171 164.582 121.026 164.665 120.988 164.805C120.949 164.946 121.032 165.091 121.173 165.129Z" fill="#D4BFDD" fill-opacity="0.5"/>
<path d="M107.111 183.634C107.322 183.691 107.539 183.567 107.597 183.357C107.654 183.146 107.53 182.929 107.319 182.872C107.109 182.814 106.892 182.938 106.834 183.149C106.777 183.359 106.901 183.576 107.111 183.634Z" fill="#D4BFDD" fill-opacity="0.5"/>
<path d="M94.216 201.867C94.4733 201.938 94.7388 201.786 94.809 201.529C94.8792 201.272 94.7276 201.006 94.4704 200.936C94.2131 200.866 93.9476 201.017 93.8773 201.274C93.8071 201.532 93.9587 201.797 94.216 201.867Z" fill="#D4BFDD" fill-opacity="0.5"/>
<path d="M87.1271 213.984C87.4312 214.067 87.7449 213.888 87.828 213.584C87.911 213.28 87.7318 212.966 87.4277 212.883C87.1237 212.8 86.8099 212.979 86.7269 213.283C86.6439 213.587 86.8231 213.901 87.1271 213.984Z" fill="#D4BFDD" fill-opacity="0.5"/>
<path d="M83.819 231.604C84.1698 231.7 84.5319 231.493 84.6277 231.142C84.7235 230.791 84.5167 230.429 84.1659 230.334C83.815 230.238 83.453 230.445 83.3572 230.795C83.2614 231.146 83.4682 231.508 83.819 231.604Z" fill="#D4BFDD" fill-opacity="0.5"/>
<path d="M77.8022 230.147C78.153 230.243 78.515 230.036 78.6108 229.685C78.7066 229.334 78.4999 228.972 78.149 228.877C77.7982 228.781 77.4361 228.988 77.3404 229.338C77.2446 229.689 77.4513 230.051 77.8022 230.147Z" fill="#D4BFDD" fill-opacity="0.5"/>
<path d="M96.4711 185.093C96.7049 185.157 96.9463 185.019 97.0102 184.786C97.074 184.552 96.9362 184.31 96.7023 184.246C96.4684 184.183 96.227 184.32 96.1632 184.554C96.0993 184.788 96.2372 185.03 96.4711 185.093Z" fill="#D4BFDD" fill-opacity="0.5"/>
<path d="M103.182 183.009C103.393 183.066 103.61 182.942 103.668 182.732C103.725 182.521 103.601 182.304 103.391 182.247C103.18 182.189 102.963 182.313 102.905 182.524C102.848 182.734 102.972 182.951 103.182 183.009Z" fill="#D4BFDD" fill-opacity="0.5"/>
<path d="M79.2751 205.744C79.5791 205.827 79.8929 205.647 79.9759 205.343C80.0589 205.039 79.8797 204.726 79.5757 204.642C79.2716 204.559 78.9579 204.739 78.8748 205.043C78.7918 205.347 78.971 205.661 79.2751 205.744Z" fill="#D4BFDD" fill-opacity="0.5"/>
<path d="M87.3993 240.503C87.7735 240.605 88.1597 240.385 88.2618 240.01C88.364 239.636 88.1435 239.25 87.7693 239.148C87.395 239.046 87.0088 239.266 86.9067 239.64C86.8045 240.015 87.0251 240.401 87.3993 240.503Z" fill="#D4BFDD" fill-opacity="0.5"/>
<path d="M130.929 262.396C131.303 262.498 131.689 262.277 131.791 261.903C131.893 261.529 131.673 261.143 131.299 261.04C130.924 260.938 130.538 261.159 130.436 261.533C130.334 261.907 130.554 262.293 130.929 262.396Z" fill="#D4BFDD" fill-opacity="0.5"/>
<path d="M138.264 248.7C138.638 248.802 139.024 248.582 139.126 248.208C139.228 247.834 139.008 247.447 138.634 247.345C138.259 247.243 137.873 247.464 137.771 247.838C137.669 248.212 137.889 248.598 138.264 248.7Z" fill="#D4BFDD" fill-opacity="0.5"/>
<path d="M116.295 233.329C116.645 233.424 117.007 233.218 117.103 232.867C117.199 232.516 116.992 232.154 116.641 232.058C116.291 231.962 115.929 232.169 115.833 232.52C115.737 232.871 115.944 233.233 116.295 233.329Z" fill="#D4BFDD" fill-opacity="0.5"/>
<path d="M126.567 266.208C126.941 266.31 127.327 266.09 127.429 265.716C127.532 265.341 127.311 264.955 126.937 264.853C126.563 264.751 126.176 264.971 126.074 265.346C125.972 265.72 126.193 266.106 126.567 266.208Z" fill="#D4BFDD" fill-opacity="0.5"/>
<path d="M151.287 269.999C151.661 270.101 152.047 269.881 152.15 269.507C152.252 269.132 152.031 268.746 151.657 268.644C151.283 268.542 150.897 268.762 150.794 269.137C150.692 269.511 150.913 269.897 151.287 269.999Z" fill="#D4BFDD" fill-opacity="0.5"/>
<path d="M166.143 285.749C166.517 285.851 166.903 285.631 167.005 285.257C167.108 284.882 166.887 284.496 166.513 284.394C166.139 284.292 165.753 284.512 165.65 284.887C165.548 285.261 165.769 285.647 166.143 285.749Z" fill="#D4BFDD" fill-opacity="0.5"/>
<path d="M187.365 289.366C187.716 289.462 188.078 289.255 188.174 288.904C188.27 288.553 188.063 288.191 187.712 288.095C187.361 288 186.999 288.206 186.903 288.557C186.808 288.908 187.014 289.27 187.365 289.366Z" fill="#D4BFDD" fill-opacity="0.5"/>
<path d="M207.712 303.837C207.993 303.913 208.283 303.748 208.359 303.467C208.436 303.187 208.271 302.897 207.99 302.82C207.709 302.744 207.42 302.909 207.343 303.19C207.266 303.47 207.432 303.76 207.712 303.837Z" fill="#D4BFDD" fill-opacity="0.5"/>
<path d="M199.929 301.349C200.233 301.432 200.547 301.253 200.63 300.949C200.713 300.645 200.534 300.331 200.229 300.248C199.925 300.165 199.612 300.344 199.529 300.648C199.446 300.952 199.625 301.266 199.929 301.349Z" fill="#D4BFDD" fill-opacity="0.5"/>
<path d="M117.647 275.382C118.021 275.484 118.407 275.264 118.509 274.889C118.612 274.515 118.391 274.129 118.017 274.027C117.643 273.925 117.256 274.145 117.154 274.519C117.052 274.894 117.273 275.28 117.647 275.382Z" fill="#D4BFDD" fill-opacity="0.5"/>
<path d="M408.619 176.167C408.993 176.269 409.379 176.049 409.482 175.675C409.584 175.3 409.363 174.914 408.989 174.812C408.615 174.71 408.229 174.93 408.126 175.305C408.024 175.679 408.245 176.065 408.619 176.167Z" fill="#D4BFDD" fill-opacity="0.5"/>
<path d="M497.621 205.514C497.949 205.603 498.287 205.41 498.376 205.083C498.465 204.755 498.272 204.417 497.945 204.328C497.618 204.238 497.28 204.431 497.19 204.759C497.101 205.086 497.294 205.424 497.621 205.514Z" fill="#D4BFDD" fill-opacity="0.5"/>
<path d="M536.812 239.655C537.093 239.732 537.383 239.566 537.459 239.286C537.536 239.005 537.371 238.715 537.09 238.639C536.809 238.562 536.52 238.728 536.443 239.008C536.366 239.289 536.532 239.578 536.812 239.655Z" fill="#D4BFDD" fill-opacity="0.5"/>
<path d="M553.541 266.38C553.845 266.463 554.159 266.284 554.242 265.98C554.325 265.676 554.146 265.362 553.842 265.279C553.538 265.196 553.224 265.375 553.141 265.679C553.058 265.983 553.237 266.297 553.541 266.38Z" fill="#D4BFDD" fill-opacity="0.5"/>
<path d="M470.066 208.778C470.44 208.881 470.826 208.66 470.928 208.286C471.03 207.912 470.81 207.525 470.436 207.423C470.061 207.321 469.675 207.542 469.573 207.916C469.471 208.29 469.691 208.676 470.066 208.778Z" fill="#D4BFDD" fill-opacity="0.5"/>
<path d="M534.189 246.764C534.469 246.841 534.759 246.676 534.836 246.395C534.912 246.114 534.747 245.825 534.466 245.748C534.186 245.671 533.896 245.837 533.819 246.118C533.743 246.398 533.908 246.688 534.189 246.764Z" fill="#D4BFDD" fill-opacity="0.5"/>
<path d="M548.945 276.046C549.226 276.122 549.515 275.957 549.592 275.676C549.669 275.396 549.503 275.106 549.223 275.029C548.942 274.953 548.652 275.118 548.576 275.399C548.499 275.679 548.664 275.969 548.945 276.046Z" fill="#D4BFDD" fill-opacity="0.5"/>
<path d="M529.135 302.261C529.439 302.344 529.753 302.165 529.836 301.861C529.919 301.557 529.74 301.243 529.436 301.16C529.132 301.077 528.818 301.256 528.735 301.56C528.652 301.864 528.831 302.178 529.135 302.261Z" fill="#D4BFDD" fill-opacity="0.5"/>
<path d="M460.958 344.81C461.332 344.912 461.718 344.691 461.82 344.317C461.922 343.943 461.702 343.557 461.328 343.455C460.953 343.352 460.567 343.573 460.465 343.947C460.363 344.321 460.583 344.708 460.958 344.81Z" fill="#D4BFDD" fill-opacity="0.5"/>
<path d="M545.247 309.757C545.621 309.859 546.007 309.639 546.11 309.264C546.212 308.89 545.991 308.504 545.617 308.402C545.243 308.3 544.857 308.52 544.754 308.894C544.652 309.269 544.873 309.655 545.247 309.757Z" fill="#D4BFDD" fill-opacity="0.5"/>
<path d="M574.306 285.651C574.681 285.754 575.067 285.533 575.169 285.159C575.271 284.785 575.051 284.398 574.676 284.296C574.302 284.194 573.916 284.415 573.814 284.789C573.712 285.163 573.932 285.549 574.306 285.651Z" fill="#D4BFDD" fill-opacity="0.5"/>
<path d="M576.84 329.214C577.215 329.316 577.601 329.096 577.703 328.721C577.805 328.347 577.585 327.961 577.21 327.859C576.836 327.757 576.45 327.977 576.348 328.351C576.246 328.726 576.466 329.112 576.84 329.214Z" fill="#D4BFDD" fill-opacity="0.5"/>
<path d="M569.837 266.686C570.188 266.782 570.55 266.575 570.646 266.224C570.741 265.873 570.535 265.511 570.184 265.416C569.833 265.32 569.471 265.527 569.375 265.877C569.279 266.228 569.486 266.59 569.837 266.686Z" fill="#D4BFDD" fill-opacity="0.5"/>
<path d="M522.282 230.358C522.539 230.428 522.805 230.276 522.875 230.019C522.945 229.762 522.793 229.496 522.536 229.426C522.279 229.356 522.013 229.507 521.943 229.765C521.873 230.022 522.025 230.287 522.282 230.358Z" fill="#D4BFDD" fill-opacity="0.5"/>
<path d="M460.907 208.327C461.281 208.429 461.668 208.209 461.77 207.835C461.872 207.46 461.651 207.074 461.277 206.972C460.903 206.87 460.517 207.09 460.415 207.465C460.312 207.839 460.533 208.225 460.907 208.327Z" fill="#D4BFDD" fill-opacity="0.5"/>
<path d="M401.771 183.585C402.145 183.687 402.531 183.467 402.633 183.092C402.735 182.718 402.515 182.332 402.141 182.23C401.767 182.128 401.38 182.348 401.278 182.723C401.176 183.097 401.397 183.483 401.771 183.585Z" fill="#D4BFDD" fill-opacity="0.5"/>
<path d="M343.596 177.482C343.97 177.584 344.357 177.363 344.459 176.989C344.561 176.615 344.34 176.229 343.966 176.126C343.592 176.024 343.206 176.245 343.104 176.619C343.001 176.993 343.222 177.379 343.596 177.482Z" fill="#D4BFDD" fill-opacity="0.5"/>
<path d="M282.442 158.462C282.816 158.564 283.202 158.344 283.304 157.969C283.406 157.595 283.186 157.209 282.812 157.107C282.438 157.005 282.051 157.225 281.949 157.599C281.847 157.974 282.068 158.36 282.442 158.462Z" fill="#D4BFDD" fill-opacity="0.5"/>
<path d="M212.432 168.885C212.783 168.981 213.145 168.774 213.241 168.423C213.337 168.073 213.13 167.711 212.779 167.615C212.428 167.519 212.066 167.726 211.97 168.077C211.875 168.427 212.081 168.79 212.432 168.885Z" fill="#D4BFDD" fill-opacity="0.5"/>
<path d="M188.044 174.377C188.302 174.447 188.567 174.296 188.637 174.039C188.707 173.781 188.556 173.516 188.299 173.446C188.041 173.375 187.776 173.527 187.706 173.784C187.635 174.041 187.787 174.307 188.044 174.377Z" fill="#D4BFDD" fill-opacity="0.5"/>
<path d="M270.517 169.632C270.891 169.734 271.277 169.514 271.379 169.139C271.481 168.765 271.261 168.379 270.887 168.277C270.512 168.175 270.126 168.395 270.024 168.769C269.922 169.144 270.142 169.53 270.517 169.632Z" fill="#D4BFDD" fill-opacity="0.5"/>
<path d="M454.438 182.851C454.812 182.953 455.198 182.732 455.3 182.358C455.402 181.984 455.182 181.598 454.808 181.496C454.433 181.393 454.047 181.614 453.945 181.988C453.843 182.362 454.063 182.749 454.438 182.851Z" fill="#D4BFDD" fill-opacity="0.5"/>
<path d="M540.478 231.554C540.759 231.63 541.048 231.465 541.125 231.184C541.202 230.903 541.036 230.614 540.756 230.537C540.475 230.461 540.185 230.626 540.109 230.907C540.032 231.187 540.197 231.477 540.478 231.554Z" fill="#D4BFDD" fill-opacity="0.5"/>
<path d="M534.151 237.555C534.432 237.632 534.721 237.467 534.798 237.186C534.875 236.905 534.709 236.616 534.429 236.539C534.148 236.463 533.858 236.628 533.782 236.909C533.705 237.189 533.871 237.479 534.151 237.555Z" fill="#D4BFDD" fill-opacity="0.5"/>
<path d="M552.199 301.963C552.55 302.059 552.912 301.852 553.008 301.502C553.104 301.151 552.897 300.789 552.546 300.693C552.195 300.597 551.833 300.804 551.737 301.155C551.642 301.506 551.848 301.868 552.199 301.963Z" fill="#D4BFDD" fill-opacity="0.5"/>
<path d="M412.051 331.589C412.332 331.665 412.622 331.5 412.698 331.219C412.775 330.939 412.61 330.649 412.329 330.572C412.048 330.496 411.759 330.661 411.682 330.942C411.605 331.222 411.771 331.512 412.051 331.589Z" fill="#D4BFDD" fill-opacity="0.5"/>
<path d="M283.188 327.398C283.563 327.5 283.949 327.279 284.051 326.905C284.153 326.531 283.933 326.145 283.558 326.042C283.184 325.94 282.798 326.161 282.696 326.535C282.594 326.909 282.814 327.295 283.188 327.398Z" fill="#D4BFDD" fill-opacity="0.5"/>
<path d="M228.117 315.279C228.421 315.362 228.735 315.183 228.818 314.879C228.901 314.574 228.721 314.261 228.417 314.178C228.113 314.095 227.8 314.274 227.717 314.578C227.634 314.882 227.813 315.196 228.117 315.279Z" fill="#D4BFDD" fill-opacity="0.5"/>
<path d="M203.267 314.953C203.571 315.036 203.885 314.856 203.968 314.552C204.051 314.248 203.872 313.934 203.568 313.851C203.264 313.768 202.95 313.948 202.867 314.252C202.784 314.556 202.963 314.87 203.267 314.953Z" fill="#D4BFDD" fill-opacity="0.5"/>
<path d="M326.69 333.402C326.994 333.485 327.308 333.306 327.391 333.002C327.474 332.697 327.295 332.384 326.991 332.301C326.687 332.218 326.373 332.397 326.29 332.701C326.207 333.005 326.386 333.319 326.69 333.402Z" fill="#D4BFDD" fill-opacity="0.5"/>
<path d="M148.063 287.64C148.437 287.742 148.823 287.521 148.925 287.147C149.027 286.773 148.807 286.387 148.433 286.285C148.058 286.182 147.672 286.403 147.57 286.777C147.468 287.151 147.688 287.538 148.063 287.64Z" fill="#D4BFDD" fill-opacity="0.5"/>
<path d="M197.084 312.765C197.388 312.848 197.702 312.669 197.785 312.365C197.868 312.061 197.689 311.747 197.385 311.664C197.081 311.581 196.767 311.76 196.684 312.064C196.601 312.368 196.78 312.682 197.084 312.765Z" fill="#D4BFDD" fill-opacity="0.5"/>
<path d="M281.901 340.794C282.275 340.896 282.661 340.676 282.763 340.301C282.865 339.927 282.645 339.541 282.271 339.439C281.896 339.337 281.51 339.557 281.408 339.931C281.306 340.306 281.526 340.692 281.901 340.794Z" fill="#D4BFDD" fill-opacity="0.5"/>
<path d="M423.249 346.253C423.53 346.329 423.819 346.164 423.896 345.883C423.972 345.603 423.807 345.313 423.526 345.236C423.246 345.16 422.956 345.325 422.879 345.606C422.803 345.887 422.968 346.176 423.249 346.253Z" fill="#D4BFDD" fill-opacity="0.5"/>
<path d="M532.405 341.788C532.756 341.883 533.118 341.677 533.214 341.326C533.31 340.975 533.103 340.613 532.752 340.517C532.401 340.421 532.039 340.628 531.944 340.979C531.848 341.33 532.054 341.692 532.405 341.788Z" fill="#D4BFDD" fill-opacity="0.5"/>
<path d="M573.543 329.45C573.918 329.552 574.304 329.332 574.406 328.958C574.508 328.584 574.288 328.197 573.913 328.095C573.539 327.993 573.153 328.214 573.051 328.588C572.949 328.962 573.169 329.348 573.543 329.45Z" fill="#D4BFDD" fill-opacity="0.5"/>
</svg>
