<svg width="1318" height="1071" viewBox="0 0 1318 1071" fill="none" xmlns="http://www.w3.org/2000/svg">
<g filter="url(#filter0_f_1404_4042)">
<rect x="615" y="355" width="348" height="307" rx="122" fill="#CC4900" fill-opacity="0.61"/>
</g>
<path opacity="0.2" d="M204.498 638.198C214.181 683.401 260.257 716.476 327.228 733.29C394.164 750.094 481.808 750.601 574.288 730.8C666.762 710.99 746.514 674.635 800.699 631.892C854.913 589.127 883.403 540.083 873.719 494.88C864.035 449.678 817.956 416.597 750.984 399.781C684.046 382.974 596.402 382.467 503.928 402.278C411.449 422.078 331.696 458.433 277.513 501.179C223.301 543.947 194.814 592.995 204.498 638.198Z" stroke="white"/>
<path opacity="0.2" d="M493.385 353.05L493.281 352.561L493.385 353.05C373.252 378.77 269.646 425.998 199.249 481.534C128.824 537.092 91.7651 600.849 104.361 659.646C116.958 718.444 176.877 761.426 263.877 783.268C350.842 805.1 464.7 805.757 584.833 780.036C704.958 754.302 808.565 707.074 878.963 651.542C949.39 595.987 986.453 532.236 973.857 473.439C961.261 414.642 901.337 371.653 814.335 349.808C727.368 327.972 613.51 327.315 493.385 353.05Z" stroke="white"/>
<path d="M742.881 570.881C768.145 524.241 750.817 465.951 704.177 440.687C657.537 415.423 599.247 432.751 573.983 479.391C548.718 526.031 566.046 584.321 612.686 609.585C659.326 634.849 717.616 617.521 742.881 570.881Z" fill="url(#paint0_radial_1404_4042)"/>
<g opacity="0.66">
<path d="M721.738 521.24C721.688 521.28 721.633 521.316 721.588 521.36C719.701 523.206 717.815 525.052 715.929 526.898C715.867 526.959 715.803 527.018 715.756 527.062C713.752 525.101 711.758 523.149 709.784 521.217C711.753 519.291 713.747 517.34 715.758 515.371C715.78 515.389 715.836 515.433 715.886 515.482C717.819 517.374 719.752 519.267 721.685 521.16C721.7 521.175 721.721 521.184 721.739 521.197C721.738 521.211 721.738 521.226 721.738 521.24V521.24Z" fill="#750002"/>
<path d="M684.639 516.972C682.63 515.006 680.639 513.058 678.644 511.105C678.711 510.987 694.751 495.263 694.989 495.086C700.45 500.431 705.91 505.773 711.374 511.12C711.306 511.238 705.69 516.761 705.396 516.984C701.943 513.604 698.488 510.223 695.011 506.82C691.538 510.219 688.084 513.6 684.639 516.972V516.972Z" fill="#750002"/>
<path d="M684.617 525.419C688.084 528.812 691.535 532.19 695.002 535.583C695.413 535.215 695.783 534.83 696.166 534.459C696.552 534.086 696.934 533.709 697.318 533.333C697.702 532.958 698.085 532.582 698.469 532.207C698.853 531.831 699.236 531.456 699.62 531.08C700.009 530.7 700.398 530.319 700.787 529.938C701.17 529.563 701.554 529.187 701.938 528.812C702.321 528.437 702.705 528.061 703.088 527.686C703.472 527.31 703.856 526.935 704.239 526.559C704.622 526.184 705.005 525.81 705.41 525.414C707.419 527.378 709.414 529.329 711.391 531.261C705.918 536.618 700.456 541.963 695.014 547.289C689.575 541.965 684.113 536.619 678.635 531.257C680.606 529.333 682.604 527.384 684.617 525.419V525.419Z" fill="#750002"/>
<path d="M695.013 527.12C693.002 525.152 690.976 523.169 688.966 521.202C690.975 519.236 693 517.254 695.008 515.289L701.055 521.207C699.045 523.174 697.02 525.157 695.013 527.12V527.12Z" fill="#750002"/>
<path d="M668.343 521.189L674.288 515.371L680.239 521.196C678.266 523.127 676.271 525.08 674.295 527.014C672.33 525.091 670.335 523.139 668.343 521.189V521.189Z" fill="#750002"/>
</g>
<path d="M918.507 591.156C937.422 593.848 950.574 611.364 947.883 630.28C945.191 649.195 927.675 662.347 908.759 659.655C889.844 656.963 876.692 639.447 879.384 620.532C882.075 601.616 899.591 588.464 918.507 591.156Z" fill="url(#paint1_radial_1404_4042)"/>
<defs>
<filter id="filter0_f_1404_4042" x="260" y="0" width="1058" height="1017" filterUnits="userSpaceOnUse" color-interpolation-filters="sRGB">
<feFlood flood-opacity="0" result="BackgroundImageFix"/>
<feBlend mode="normal" in="SourceGraphic" in2="BackgroundImageFix" result="shape"/>
<feGaussianBlur stdDeviation="177.5" result="effect1_foregroundBlur_1404_4042"/>
</filter>
<radialGradient id="paint0_radial_1404_4042" cx="0" cy="0" r="1" gradientUnits="userSpaceOnUse" gradientTransform="translate(493.461 578.242) rotate(-106.556) scale(273.081)">
<stop offset="0.617708" stop-color="#780016" stop-opacity="0"/>
<stop offset="1" stop-color="#9E0303"/>
</radialGradient>
<radialGradient id="paint1_radial_1404_4042" cx="0" cy="0" r="1" gradientUnits="userSpaceOnUse" gradientTransform="translate(862.877 661.778) rotate(53.0991) scale(98.3416)">
<stop/>
<stop offset="0.54" stop-color="#200419"/>
<stop offset="1" stop-color="#922576"/>
</radialGradient>
</defs>
</svg>
