<svg width="24" height="24" viewBox="0 0 24 24" fill="none" xmlns="http://www.w3.org/2000/svg">
<path d="M17.9998 11.9993C17.802 11.9993 17.6087 11.9406 17.4443 11.8307C17.2799 11.7209 17.1518 11.5647 17.0761 11.382C17.0004 11.1993 16.9806 10.9983 17.0192 10.8043C17.0578 10.6104 17.153 10.4322 17.2928 10.2923L19.5857 7.99935L17.2928 5.70635C17.1081 5.51826 17.0051 5.26484 17.0063 5.00122C17.0075 4.73761 17.1128 4.48513 17.2992 4.29872C17.4856 4.11231 17.738 4.00706 18.0017 4.00587C18.2653 4.00468 18.5187 4.10764 18.7068 4.29235L21.7068 7.29235C21.7997 7.38518 21.8733 7.4954 21.9236 7.61671C21.9739 7.73803 21.9998 7.86806 21.9998 7.99938C21.9998 8.13069 21.9739 8.26072 21.9236 8.38204C21.8733 8.50335 21.7997 8.61358 21.7068 8.70641L18.7068 11.7064C18.6141 11.7994 18.5039 11.8732 18.3825 11.9234C18.2612 11.9737 18.1311 11.9995 17.9998 11.9993Z" fill="#BFC8D7"/>
<path d="M20 9H8C7.73478 9 7.48043 8.89464 7.29289 8.70711C7.10536 8.51957 7 8.26522 7 8C7 7.73478 7.10536 7.48043 7.29289 7.29289C7.48043 7.10536 7.73478 7 8 7H20C20.2652 7 20.5196 7.10536 20.7071 7.29289C20.8946 7.48043 21 7.73478 21 8C21 8.26522 20.8946 8.51957 20.7071 8.70711C20.5196 8.89464 20.2652 9 20 9Z" fill="#BFC8D7"/>
<path d="M5.99997 19.9994C5.86864 19.9995 5.73856 19.9737 5.61723 19.9234C5.4959 19.8732 5.3857 19.7994 5.29297 19.7064L2.29297 16.7064C2.20009 16.6135 2.12641 16.5033 2.07614 16.382C2.02587 16.2607 2 16.1307 2 15.9993C2 15.868 2.02587 15.738 2.07614 15.6167C2.12641 15.4954 2.20009 15.3851 2.29297 15.2923L5.29297 12.2923C5.48089 12.1068 5.7346 12.0031 5.99869 12.0039C6.26279 12.0047 6.51583 12.11 6.70257 12.2968C6.88931 12.4835 6.99458 12.7366 6.99541 13.0007C6.99623 13.2648 6.89254 13.5185 6.70697 13.7064L4.41403 15.9994L6.70703 18.2924C6.84685 18.4322 6.94205 18.6104 6.98062 18.8044C7.01919 18.9983 6.99938 19.1994 6.9237 19.3821C6.84802 19.5648 6.71987 19.7209 6.55545 19.8308C6.39104 19.9407 6.19773 19.9993 5.99997 19.9994Z" fill="#BFC8D7"/>
<path d="M16 17H4C3.73478 17 3.48043 16.8946 3.29289 16.7071C3.10536 16.5196 3 16.2652 3 16C3 15.7348 3.10536 15.4804 3.29289 15.2929C3.48043 15.1054 3.73478 15 4 15H16C16.2652 15 16.5196 15.1054 16.7071 15.2929C16.8946 15.4804 17 15.7348 17 16C17 16.2652 16.8946 16.5196 16.7071 16.7071C16.5196 16.8946 16.2652 17 16 17Z" fill="#BFC8D7"/>
</svg>
