<svg width="24" height="24" viewBox="0 0 24 24" fill="none" xmlns="http://www.w3.org/2000/svg">
<path d="M1.125 11.625C6.76575 11.625 8.25 18.75 8.25 18.75C8.25 18.75 9.73425 11.625 15.375 11.625C9.73425 11.625 8.25 4.5 8.25 4.5C8.25 4.5 6.76575 11.625 1.125 11.625Z" fill="#BFC8D7"/>
<path d="M12.375 18.75C15.8663 19.5049 16.125 22.875 16.125 22.875C16.125 22.875 16.3837 19.5049 19.875 18.75C16.3837 17.9951 16.125 14.625 16.125 14.625C16.125 14.625 15.8663 17.9951 12.375 18.75Z" fill="#BFC8D7"/>
<path d="M13.125 6.375C14.3899 6.61882 15.5442 7.25911 16.4207 8.20305C17.2973 9.147 17.8504 10.3456 18 11.625C18.1496 10.3456 18.7027 9.147 19.5793 8.20305C20.4558 7.25911 21.6101 6.61882 22.875 6.375C21.6101 6.13118 20.4558 5.49089 19.5793 4.54695C18.7027 3.603 18.1496 2.40444 18 1.125C17.8504 2.40444 17.2973 3.603 16.4207 4.54695C15.5442 5.49089 14.3899 6.13118 13.125 6.375Z" fill="#BFC8D7"/>
</svg>
