<svg width="24" height="24" viewBox="0 0 24 24" fill="none" xmlns="http://www.w3.org/2000/svg">
<path d="M2.80237 13.5397C2.70631 13.514 2.60396 13.5275 2.51784 13.5772C2.43172 13.6269 2.36888 13.7088 2.34314 13.8049C2.3174 13.9009 2.33087 14.0033 2.3806 14.0894C2.43032 14.1755 2.51222 14.2384 2.60827 14.2641L5.83182 15.1279L3.04352 16.7377C2.95742 16.7874 2.89461 16.8693 2.86889 16.9654C2.84317 17.0614 2.85664 17.1638 2.90635 17.2499C2.95607 17.336 3.03794 17.3989 3.13398 17.4247C3.23003 17.4504 3.33237 17.437 3.41852 17.3873L6.20689 15.7775L5.34314 19.001C5.3174 19.0971 5.33087 19.1994 5.3806 19.2856C5.43032 19.3717 5.51222 19.4345 5.60827 19.4603C5.70433 19.486 5.80668 19.4725 5.8928 19.4228C5.97892 19.3731 6.04176 19.2912 6.0675 19.1951L7.12535 15.2472L11.6246 12.6496V17.8447L8.73445 20.7349C8.66486 20.8053 8.62597 20.9005 8.62628 20.9995C8.62659 21.0985 8.66607 21.1934 8.7361 21.2635C8.80613 21.3335 8.90102 21.373 9.00005 21.3733C9.09909 21.3736 9.19423 21.3347 9.2647 21.2651L11.6246 18.9053V22.125C11.6246 22.2245 11.6641 22.3198 11.7344 22.3902C11.8047 22.4605 11.9001 22.5 11.9996 22.5C12.099 22.5 12.1944 22.4605 12.2647 22.3902C12.3351 22.3198 12.3746 22.2245 12.3746 22.125V18.9053L14.7344 21.2651C14.8049 21.3347 14.9001 21.3736 14.9991 21.3733C15.0981 21.373 15.193 21.3335 15.263 21.2635C15.3331 21.1934 15.3726 21.0986 15.3729 20.9995C15.3732 20.9005 15.3343 20.8053 15.2647 20.7349L12.3746 17.8447V12.6496L16.8738 15.2472L17.9316 19.1951C17.9574 19.2912 18.0202 19.3731 18.1063 19.4228C18.1925 19.4725 18.2948 19.486 18.3909 19.4603C18.4869 19.4345 18.5688 19.3717 18.6185 19.2856C18.6683 19.1994 18.6817 19.0971 18.656 19.001L17.7922 15.7775L20.5806 17.3873C20.6233 17.412 20.6704 17.428 20.7192 17.4344C20.7681 17.4409 20.8177 17.4376 20.8653 17.4249C20.9129 17.4122 20.9575 17.3902 20.9966 17.3602C21.0357 17.3302 21.0685 17.2928 21.0931 17.2501C21.1178 17.2074 21.1337 17.1603 21.1402 17.1115C21.1466 17.0626 21.1433 17.013 21.1305 16.9654C21.1178 16.9178 21.0958 16.8732 21.0657 16.8341C21.0357 16.7951 20.9983 16.7623 20.9556 16.7377L18.1673 15.1279L21.3909 14.2641C21.4869 14.2384 21.5688 14.1755 21.6185 14.0894C21.6683 14.0033 21.6817 13.9009 21.656 13.8049C21.6303 13.7088 21.5674 13.6269 21.4813 13.5772C21.3952 13.5275 21.2928 13.514 21.1968 13.5397L17.2489 14.5976L12.7497 12L17.2489 9.40242L21.1968 10.4602C21.2928 10.486 21.3952 10.4725 21.4813 10.4228C21.5674 10.3731 21.6303 10.2912 21.656 10.1951C21.6817 10.0991 21.6683 9.99671 21.6185 9.91059C21.5688 9.82447 21.4869 9.76162 21.3909 9.73589L18.1673 8.87213L20.9556 7.26231C21.0417 7.21256 21.1045 7.13065 21.1303 7.03459C21.156 6.93854 21.1425 6.8362 21.0928 6.75008C21.0431 6.66396 20.9612 6.6011 20.8652 6.57533C20.7691 6.54956 20.6668 6.56299 20.5806 6.61266L17.7922 8.22253L18.656 4.99896C18.6817 4.9029 18.6683 4.80056 18.6185 4.71443C18.5688 4.62831 18.4869 4.56547 18.3909 4.53973C18.2948 4.51399 18.1925 4.52747 18.1063 4.57719C18.0202 4.62691 17.9574 4.70881 17.9316 4.80487L16.8738 8.75281L12.3746 11.3504V6.15527L15.2647 3.26515C15.2999 3.23041 15.3278 3.18906 15.347 3.14347C15.3661 3.09789 15.376 3.04897 15.3762 2.99953C15.3764 2.95009 15.3667 2.90111 15.3479 2.8554C15.329 2.8097 15.3013 2.76817 15.2664 2.73321C15.2314 2.69825 15.1899 2.67055 15.1442 2.6517C15.0985 2.63286 15.0495 2.62323 15.0001 2.62339C14.9506 2.62354 14.9017 2.63347 14.8561 2.6526C14.8105 2.67174 14.7692 2.6997 14.7344 2.73488L12.3746 5.09473V1.875C12.3746 1.77554 12.3351 1.68016 12.2647 1.60984C12.1944 1.53951 12.099 1.5 11.9996 1.5C11.9001 1.5 11.8047 1.53951 11.7344 1.60984C11.6641 1.68016 11.6246 1.77554 11.6246 1.875V5.09473L9.2647 2.73488C9.19416 2.66561 9.09913 2.627 9.00027 2.62745C8.90142 2.62789 8.80674 2.66736 8.73684 2.73727C8.66693 2.80717 8.62747 2.90185 8.62702 3.0007C8.62657 3.09956 8.66518 3.19459 8.73445 3.26512L11.6246 6.15527V11.3504L7.12535 8.75281L6.0675 4.80487C6.04176 4.70882 5.97892 4.62692 5.8928 4.5772C5.80668 4.52747 5.70433 4.514 5.60827 4.53974C5.51222 4.56548 5.43032 4.62832 5.3806 4.71444C5.33087 4.80056 5.3174 4.90291 5.34314 4.99897L6.20689 8.22254L3.41852 6.61266C3.33237 6.563 3.23003 6.54957 3.13398 6.57534C3.03794 6.60111 2.95607 6.66397 2.90635 6.75009C2.85664 6.83621 2.84317 6.93855 2.86889 7.0346C2.89461 7.13066 2.95742 7.21257 3.04352 7.26232L5.83182 8.87214L2.60827 9.7359C2.56044 9.7484 2.51556 9.77023 2.4762 9.80015C2.43684 9.83006 2.40379 9.86746 2.37894 9.91019C2.35409 9.95293 2.33794 10.0002 2.33141 10.0492C2.32488 10.0982 2.32811 10.148 2.3409 10.1957C2.3537 10.2435 2.37581 10.2882 2.40596 10.3274C2.43612 10.3666 2.47372 10.3994 2.51661 10.424C2.5595 10.4486 2.60682 10.4644 2.65587 10.4706C2.70491 10.4769 2.7547 10.4733 2.80237 10.4602L6.75028 9.4024L11.2495 12L6.75028 14.5976L2.80237 13.5397Z" fill="#BFC8D7"/>
</svg>
