<svg width="32" height="32" viewBox="0 0 32 32" fill="none" xmlns="http://www.w3.org/2000/svg">
<path d="M23.2011 11.641C22.6893 11.3443 22.0313 11.3443 21.4465 11.641L17.3525 14.089L14.5744 15.6469L10.5535 18.0949C10.0418 18.3917 9.38375 18.3917 8.79892 18.0949L5.65533 16.1662C5.14358 15.8695 4.77808 15.276 4.77808 14.6083L4.77808 10.8991C4.77808 10.3057 5.0705 9.71216 5.65533 9.34128L8.79892 7.48668C9.31067 7.18996 9.96867 7.18996 10.5535 7.48668L13.6971 9.41544C14.2088 9.71216 14.5743 10.3056 14.5743 10.9733L14.5743 13.4213L17.3524 11.7893L17.3524 9.26712C17.3524 8.67367 17.06 8.08013 16.4752 7.70925L10.6267 4.22254C10.1149 3.92582 9.45692 3.92582 8.87208 4.22254L2.87733 7.78341C2.29242 8.08013 2 8.67358 2 9.26712L2 16.2404C2 16.8339 2.29242 17.4274 2.87725 17.7983L8.79892 21.2849C9.31067 21.5817 9.96867 21.5817 10.5535 21.2849L14.5744 18.911L17.3525 17.279L21.3734 14.9051C21.8852 14.6084 22.5432 14.6084 23.128 14.9051L26.2716 16.7597C26.7833 17.0565 27.1488 17.6499 27.1488 18.3176L27.1488 22.0268C27.1488 22.6202 26.8564 23.2138 26.2716 23.5846L23.2011 25.4392C22.6893 25.736 22.0313 25.736 21.4465 25.4392L18.3029 23.5846C17.7912 23.2879 17.4257 22.6945 17.4257 22.0268L17.4257 19.6529L14.6476 21.2849L14.6476 23.733C14.6476 24.3264 14.94 24.92 15.5248 25.2908L21.4465 28.7775C21.9583 29.0742 22.6163 29.0742 23.2011 28.7775L29.1227 25.2908C29.6345 24.9941 30 24.4007 30 23.733L30 16.6855C30 16.092 29.7076 15.4985 29.1227 15.1276L23.2011 11.641Z" fill="url(#paint0_linear_2405_12028)"/>
<defs>
<linearGradient id="paint0_linear_2405_12028" x1="16" y1="4" x2="16" y2="29" gradientUnits="userSpaceOnUse">
<stop stop-color="#2F73DA"/>
<stop offset="1" stop-color="#00D1FF"/>
</linearGradient>
</defs>
</svg>
