<svg width="33" height="32" viewBox="0 0 33 32" fill="none" xmlns="http://www.w3.org/2000/svg">
<path d="M4.23681 18.053C4.10874 18.0187 3.97228 18.0366 3.85745 18.1029C3.74262 18.1692 3.65883 18.2784 3.62451 18.4065C3.59019 18.5346 3.60816 18.6711 3.67445 18.7859C3.74075 18.9007 3.84995 18.9845 3.97802 19.0188L8.27609 20.1705L4.55835 22.3169C4.44355 22.3832 4.3598 22.4924 4.32551 22.6205C4.29121 22.7486 4.30918 22.885 4.37546 22.9999C4.44175 23.1147 4.55092 23.1985 4.67897 23.2329C4.80703 23.2672 4.94349 23.2493 5.05835 23.1831L8.77618 21.0366L7.62451 25.3347C7.59019 25.4628 7.60816 25.5992 7.67445 25.7141C7.74075 25.8289 7.84995 25.9127 7.97802 25.947C8.1061 25.9813 8.24256 25.9634 8.35739 25.8971C8.47222 25.8308 8.55601 25.7216 8.59033 25.5935L10.0008 20.3296L15.9998 16.8661V23.793L12.1463 27.6465C12.0535 27.7404 12.0016 27.8673 12.002 27.9993C12.0024 28.1314 12.0551 28.2579 12.1485 28.3513C12.2418 28.4446 12.3683 28.4973 12.5004 28.4977C12.6324 28.4981 12.7593 28.4463 12.8533 28.3535L15.9998 25.207V29.5C15.9998 29.6326 16.0524 29.7598 16.1462 29.8536C16.24 29.9473 16.3671 30 16.4998 30C16.6324 30 16.7595 29.9473 16.8533 29.8536C16.9471 29.7598 16.9998 29.6326 16.9998 29.5V25.207L20.1463 28.3535C20.2402 28.4463 20.3671 28.4981 20.4991 28.4977C20.6312 28.4973 20.7577 28.4447 20.8511 28.3513C20.9444 28.2579 20.9971 28.1314 20.9975 27.9994C20.9979 27.8673 20.946 27.7405 20.8533 27.6465L16.9998 23.793V16.8661L22.9987 20.3296L24.4092 25.5935C24.4435 25.7216 24.5273 25.8308 24.6421 25.8971C24.7569 25.9634 24.8934 25.9813 25.0215 25.947C25.1496 25.9127 25.2588 25.8289 25.3251 25.7141C25.3914 25.5992 25.4093 25.4628 25.375 25.3347L24.2233 21.0366L27.9412 23.1831C27.998 23.216 28.0608 23.2373 28.126 23.2459C28.1911 23.2545 28.2573 23.2502 28.3207 23.2332C28.3842 23.2162 28.4437 23.1869 28.4958 23.1469C28.5479 23.1069 28.5916 23.057 28.6245 23.0001C28.6573 22.9432 28.6786 22.8804 28.6872 22.8153C28.6958 22.7502 28.6914 22.684 28.6744 22.6205C28.6574 22.5571 28.628 22.4976 28.588 22.4455C28.548 22.3934 28.4981 22.3497 28.4412 22.3169L24.7234 20.1705L29.0215 19.0188C29.1496 18.9845 29.2588 18.9007 29.3251 18.7859C29.3914 18.671 29.4093 18.5346 29.375 18.4065C29.3407 18.2784 29.2569 18.1692 29.1421 18.1029C29.0272 18.0366 28.8908 18.0187 28.7627 18.053L23.4988 19.4634L17.4999 16L23.4988 12.5366L28.7627 13.947C28.8908 13.9813 29.0272 13.9634 29.1421 13.8971C29.2569 13.8308 29.3407 13.7216 29.375 13.5935C29.4093 13.4654 29.3914 13.3289 29.3251 13.2141C29.2588 13.0993 29.1496 13.0155 29.0215 12.9812L24.7234 11.8295L28.4412 9.68309C28.556 9.61674 28.6397 9.50753 28.674 9.37946C28.7083 9.25139 28.6903 9.11494 28.624 9.00011C28.5578 8.88528 28.4486 8.80147 28.3205 8.76711C28.1925 8.73275 28.056 8.75065 27.9412 8.81688L24.2233 10.9634L25.375 6.66528C25.4093 6.5372 25.3914 6.40074 25.3251 6.28591C25.2588 6.17108 25.1496 6.08729 25.0215 6.05298C24.8934 6.01866 24.7569 6.03662 24.6421 6.10292C24.5273 6.16922 24.4435 6.27841 24.4092 6.40649L22.9987 11.6704L16.9998 15.1339V8.20703L20.8533 4.35353C20.9002 4.30721 20.9374 4.25208 20.963 4.1913C20.9885 4.13052 21.0017 4.06529 21.0019 3.99937C21.0021 3.93346 20.9893 3.86815 20.9642 3.80721C20.939 3.74627 20.9021 3.6909 20.8555 3.64428C20.8089 3.59767 20.7535 3.56074 20.6926 3.53561C20.6316 3.51047 20.5663 3.49764 20.5004 3.49785C20.4345 3.49805 20.3693 3.51129 20.3085 3.53681C20.2477 3.56232 20.1926 3.5996 20.1463 3.6465L16.9998 6.79297V2.5C16.9998 2.36739 16.9471 2.24021 16.8533 2.14645C16.7595 2.05268 16.6324 2 16.4998 2C16.3671 2 16.24 2.05268 16.1462 2.14645C16.0524 2.24021 15.9998 2.36739 15.9998 2.5V6.79297L12.8533 3.6465C12.7592 3.55414 12.6325 3.50267 12.5007 3.50326C12.3689 3.50386 12.2426 3.55648 12.1494 3.64969C12.0562 3.74289 12.0036 3.86913 12.003 4.00094C12.0024 4.13275 12.0539 4.25946 12.1463 4.3535L15.9998 8.20703V15.1339L10.0008 11.6704L8.59033 6.4065C8.55601 6.27842 8.47222 6.16923 8.35739 6.10293C8.24256 6.03663 8.1061 6.01867 7.97802 6.05299C7.84995 6.0873 7.74075 6.17109 7.67445 6.28592C7.60816 6.40075 7.59019 6.53721 7.62451 6.66529L8.77618 10.9634L5.05835 8.81688C4.94349 8.75066 4.80703 8.73276 4.67897 8.76712C4.55092 8.80148 4.44175 8.88529 4.37546 9.00012C4.30918 9.11495 4.29121 9.2514 4.32551 9.37947C4.3598 9.50754 4.44355 9.61675 4.55835 9.68309L8.27609 11.8295L3.97802 12.9812C3.91425 12.9979 3.85441 13.027 3.80193 13.0669C3.74945 13.1067 3.70538 13.1566 3.67224 13.2136C3.63911 13.2706 3.61757 13.3335 3.60887 13.3989C3.60017 13.4642 3.60447 13.5306 3.62153 13.5943C3.63859 13.658 3.66807 13.7176 3.70828 13.7699C3.74848 13.8221 3.79862 13.8659 3.8558 13.8986C3.91299 13.9314 3.97609 13.9526 4.04148 13.9609C4.10687 13.9692 4.17325 13.9645 4.23681 13.947L9.5007 12.5365L15.4996 16L9.5007 19.4634L4.23681 18.053Z" fill="#94A4BC"/>
<path d="M4.23681 18.053C4.10874 18.0187 3.97228 18.0366 3.85745 18.1029C3.74262 18.1692 3.65883 18.2784 3.62451 18.4065C3.59019 18.5346 3.60816 18.6711 3.67445 18.7859C3.74075 18.9007 3.84995 18.9845 3.97802 19.0188L8.27609 20.1705L4.55835 22.3169C4.44355 22.3832 4.3598 22.4924 4.32551 22.6205C4.29121 22.7486 4.30918 22.885 4.37546 22.9999C4.44175 23.1147 4.55092 23.1985 4.67897 23.2329C4.80703 23.2672 4.94349 23.2493 5.05835 23.1831L8.77618 21.0366L7.62451 25.3347C7.59019 25.4628 7.60816 25.5992 7.67445 25.7141C7.74075 25.8289 7.84995 25.9127 7.97802 25.947C8.1061 25.9813 8.24256 25.9634 8.35739 25.8971C8.47222 25.8308 8.55601 25.7216 8.59033 25.5935L10.0008 20.3296L15.9998 16.8661V23.793L12.1463 27.6465C12.0535 27.7404 12.0016 27.8673 12.002 27.9993C12.0024 28.1314 12.0551 28.2579 12.1485 28.3513C12.2418 28.4446 12.3683 28.4973 12.5004 28.4977C12.6324 28.4981 12.7593 28.4463 12.8533 28.3535L15.9998 25.207V29.5C15.9998 29.6326 16.0524 29.7598 16.1462 29.8536C16.24 29.9473 16.3671 30 16.4998 30C16.6324 30 16.7595 29.9473 16.8533 29.8536C16.9471 29.7598 16.9998 29.6326 16.9998 29.5V25.207L20.1463 28.3535C20.2402 28.4463 20.3671 28.4981 20.4991 28.4977C20.6312 28.4973 20.7577 28.4447 20.8511 28.3513C20.9444 28.2579 20.9971 28.1314 20.9975 27.9994C20.9979 27.8673 20.946 27.7405 20.8533 27.6465L16.9998 23.793V16.8661L22.9987 20.3296L24.4092 25.5935C24.4435 25.7216 24.5273 25.8308 24.6421 25.8971C24.7569 25.9634 24.8934 25.9813 25.0215 25.947C25.1496 25.9127 25.2588 25.8289 25.3251 25.7141C25.3914 25.5992 25.4093 25.4628 25.375 25.3347L24.2233 21.0366L27.9412 23.1831C27.998 23.216 28.0608 23.2373 28.126 23.2459C28.1911 23.2545 28.2573 23.2502 28.3207 23.2332C28.3842 23.2162 28.4437 23.1869 28.4958 23.1469C28.5479 23.1069 28.5916 23.057 28.6245 23.0001C28.6573 22.9432 28.6786 22.8804 28.6872 22.8153C28.6958 22.7502 28.6914 22.684 28.6744 22.6205C28.6574 22.5571 28.628 22.4976 28.588 22.4455C28.548 22.3934 28.4981 22.3497 28.4412 22.3169L24.7234 20.1705L29.0215 19.0188C29.1496 18.9845 29.2588 18.9007 29.3251 18.7859C29.3914 18.671 29.4093 18.5346 29.375 18.4065C29.3407 18.2784 29.2569 18.1692 29.1421 18.1029C29.0272 18.0366 28.8908 18.0187 28.7627 18.053L23.4988 19.4634L17.4999 16L23.4988 12.5366L28.7627 13.947C28.8908 13.9813 29.0272 13.9634 29.1421 13.8971C29.2569 13.8308 29.3407 13.7216 29.375 13.5935C29.4093 13.4654 29.3914 13.3289 29.3251 13.2141C29.2588 13.0993 29.1496 13.0155 29.0215 12.9812L24.7234 11.8295L28.4412 9.68309C28.556 9.61674 28.6397 9.50753 28.674 9.37946C28.7083 9.25139 28.6903 9.11494 28.624 9.00011C28.5578 8.88528 28.4486 8.80147 28.3205 8.76711C28.1925 8.73275 28.056 8.75065 27.9412 8.81688L24.2233 10.9634L25.375 6.66528C25.4093 6.5372 25.3914 6.40074 25.3251 6.28591C25.2588 6.17108 25.1496 6.08729 25.0215 6.05298C24.8934 6.01866 24.7569 6.03662 24.6421 6.10292C24.5273 6.16922 24.4435 6.27841 24.4092 6.40649L22.9987 11.6704L16.9998 15.1339V8.20703L20.8533 4.35353C20.9002 4.30721 20.9374 4.25208 20.963 4.1913C20.9885 4.13052 21.0017 4.06529 21.0019 3.99937C21.0021 3.93346 20.9893 3.86815 20.9642 3.80721C20.939 3.74627 20.9021 3.6909 20.8555 3.64428C20.8089 3.59767 20.7535 3.56074 20.6926 3.53561C20.6316 3.51047 20.5663 3.49764 20.5004 3.49785C20.4345 3.49805 20.3693 3.51129 20.3085 3.53681C20.2477 3.56232 20.1926 3.5996 20.1463 3.6465L16.9998 6.79297V2.5C16.9998 2.36739 16.9471 2.24021 16.8533 2.14645C16.7595 2.05268 16.6324 2 16.4998 2C16.3671 2 16.24 2.05268 16.1462 2.14645C16.0524 2.24021 15.9998 2.36739 15.9998 2.5V6.79297L12.8533 3.6465C12.7592 3.55414 12.6325 3.50267 12.5007 3.50326C12.3689 3.50386 12.2426 3.55648 12.1494 3.64969C12.0562 3.74289 12.0036 3.86913 12.003 4.00094C12.0024 4.13275 12.0539 4.25946 12.1463 4.3535L15.9998 8.20703V15.1339L10.0008 11.6704L8.59033 6.4065C8.55601 6.27842 8.47222 6.16923 8.35739 6.10293C8.24256 6.03663 8.1061 6.01867 7.97802 6.05299C7.84995 6.0873 7.74075 6.17109 7.67445 6.28592C7.60816 6.40075 7.59019 6.53721 7.62451 6.66529L8.77618 10.9634L5.05835 8.81688C4.94349 8.75066 4.80703 8.73276 4.67897 8.76712C4.55092 8.80148 4.44175 8.88529 4.37546 9.00012C4.30918 9.11495 4.29121 9.2514 4.32551 9.37947C4.3598 9.50754 4.44355 9.61675 4.55835 9.68309L8.27609 11.8295L3.97802 12.9812C3.91425 12.9979 3.85441 13.027 3.80193 13.0669C3.74945 13.1067 3.70538 13.1566 3.67224 13.2136C3.63911 13.2706 3.61757 13.3335 3.60887 13.3989C3.60017 13.4642 3.60447 13.5306 3.62153 13.5943C3.63859 13.658 3.66807 13.7176 3.70828 13.7699C3.74848 13.8221 3.79862 13.8659 3.8558 13.8986C3.91299 13.9314 3.97609 13.9526 4.04148 13.9609C4.10687 13.9692 4.17325 13.9645 4.23681 13.947L9.5007 12.5365L15.4996 16L9.5007 19.4634L4.23681 18.053Z" fill="url(#paint0_linear_2405_12034)"/>
<defs>
<linearGradient id="paint0_linear_2405_12034" x1="16.4983" y1="2" x2="16.4983" y2="30" gradientUnits="userSpaceOnUse">
<stop stop-color="#2F73DA"/>
<stop offset="1" stop-color="#00D1FF"/>
</linearGradient>
</defs>
</svg>
